<?xml version="1.0" encoding="UTF-8"?>
<svg xmlns="http://www.w3.org/2000/svg" xmlns:xlink="http://www.w3.org/1999/xlink" version="1.2" >
<font id="Proxima Nova Semibold">
<font-face  font-family="Proxima Nova" units-per-em="1000" ascent="920" descent="-210" font-style="normal" font-weight="600" font-stretch="normal" cap-height="667" x-height="483" underline-position="-123" underline-thickness="20" />
<missing-glyph  horiz-adv-x="493" d="M71 752 L422 752 L422 -90 L71 -90 L71 752 Z M102 722 L102 -60 L390 -60 L390 722 L102 722 Z " />
<glyph glyph-name="NULL" d="" />
<glyph glyph-name="nonmarkingreturn" unicode="&#xd;" d="" />
<glyph glyph-name="space" unicode="&#x20;" horiz-adv-x="257" d="" />
<glyph glyph-name="uni00A0" unicode="&#xa0;" horiz-adv-x="257" d="" />
<glyph glyph-name="uni2009" unicode="&#x2009;" horiz-adv-x="125" d="" />
<glyph glyph-name="zero" unicode="0" horiz-adv-x="616" d="M41 333 Q41 422 70 500.5 Q99 579 159 628 Q219 677 308 677 Q397 677 457 628 Q517 579 546 500.5 Q575 422 575 333 Q575 244 546 165.5 Q517 87 457 37.5 Q397 -12 308 -12 Q219 -12 159 37.5 Q99 87 70 165.5 Q41 244 41 333 Z M456 333 Q456 438 420.5 505.5 Q385 573 308 573 Q231 573 195.5 505.5 Q160 438 160 333 Q160 228 196 160 Q232 92 308 92 Q384 92 420 160 Q456 228 456 333 Z " />
<glyph glyph-name="one" unicode="1" horiz-adv-x="380" d="M192 515 L83 402 L15 473 L207 667 L309 667 L309 0 L192 0 L192 515 Z " />
<glyph glyph-name="two" unicode="2" horiz-adv-x="595" d="M50 92 Q193 200 266.5 262.5 Q340 325 375 374.5 Q410 424 410 471 Q410 520 374.5 546.5 Q339 573 289 573 Q233 573 187.5 552 Q142 531 109 493 L41 570 Q84 622 149.5 649.5 Q215 677 287 677 Q353 677 408 653 Q463 629 496 582 Q529 535 529 471 Q529 385 457 300 Q385 215 237 103 L533 103 L533 0 L50 0 L50 92 Z " />
<glyph glyph-name="three" unicode="3" horiz-adv-x="574" d="M87 173 Q119 136 169 114 Q219 92 272 92 Q337 92 374 119.5 Q411 147 411 194 Q411 288 263 288 Q196 288 186 287 L186 392 Q198 391 263 391 Q325 391 362.5 413 Q400 435 400 479 Q400 524 362 548.5 Q324 573 265 573 Q167 573 93 499 L33 572 Q74 620 135.5 648.5 Q197 677 276 677 Q385 677 451 628.5 Q517 580 517 497 Q517 435 473.5 394.5 Q430 354 372 344 Q407 341 443 321.5 Q479 302 503 266 Q527 230 527 182 Q527 126 496 82 Q465 38 408.5 13 Q352 -12 276 -12 Q191 -12 125.5 18 Q60 48 24 96 L87 173 Z " />
<glyph glyph-name="four" unicode="4" horiz-adv-x="580" d="M346 151 L28 151 L28 245 L302 667 L463 667 L463 254 L552 254 L552 151 L463 151 L463 0 L346 0 L346 151 Z M143 254 L346 254 L346 562 L143 254 Z " />
<glyph glyph-name="five" unicode="5" horiz-adv-x="600" d="M123 171 Q193 92 303 92 Q365 92 402.5 125.5 Q440 159 440 209 Q440 263 403.5 295.5 Q367 328 306 328 Q221 328 160 270 L77 294 L77 667 L514 667 L514 564 L194 564 L194 371 Q220 397 259.5 413 Q299 429 345 429 Q402 429 450.5 403 Q499 377 528.5 328.5 Q558 280 558 214 Q558 146 526 94.5 Q494 43 436 15.5 Q378 -12 304 -12 Q143 -12 56 91 L123 171 Z " />
<glyph glyph-name="six" unicode="6" horiz-adv-x="601" d="M41 332 Q41 430 75 508.5 Q109 587 175 632 Q241 677 335 677 Q451 677 527 603 L472 514 Q444 544 412.5 558.5 Q381 573 335 573 Q281 573 241 543 Q201 513 180 462.5 Q159 412 159 353 Q159 340 160 334 Q185 371 234 399 Q283 427 339 427 Q400 427 451 402.5 Q502 378 532 329 Q562 280 562 212 Q562 150 531.5 99 Q501 48 445 18 Q389 -12 316 -12 Q222 -12 160.5 34 Q99 80 70 157.5 Q41 235 41 332 Z M444 208 Q444 266 405 296.5 Q366 327 307 327 Q265 327 226 305.5 Q187 284 161 248 Q167 184 203 138 Q239 92 310 92 Q352 92 382.5 109 Q413 126 428.5 153 Q444 180 444 208 Z " />
<glyph glyph-name="seven" unicode="7" horiz-adv-x="532" d="M373 564 L27 564 L27 667 L508 667 L508 586 L249 0 L121 0 L373 564 Z " />
<glyph glyph-name="eight" unicode="8" horiz-adv-x="595" d="M42 171 Q42 232 84.5 277 Q127 322 192 344 Q130 364 91.5 403 Q53 442 53 502 Q53 560 88 599.5 Q123 639 179 658 Q235 677 298 677 Q360 677 416 658 Q472 639 507.5 599.5 Q543 560 543 502 Q543 442 504 403 Q465 364 403 344 Q468 322 510.5 277 Q553 232 553 171 Q553 114 518.5 72.5 Q484 31 425.5 9.5 Q367 -12 298 -12 Q228 -12 169.5 9 Q111 30 76.5 71.5 Q42 113 42 171 Z M424 484 Q424 525 388.5 549 Q353 573 298 573 Q242 573 206.5 549 Q171 525 171 484 Q171 443 211.5 420.5 Q252 398 298 390 Q344 398 384 420.5 Q424 443 424 484 Z M435 186 Q435 218 411 240.5 Q387 263 355 275.5 Q323 288 298 291 Q272 288 240 275.5 Q208 263 184 240.5 Q160 218 160 186 Q160 144 199.5 118 Q239 92 298 92 Q355 92 395 118 Q435 144 435 186 Z " />
<glyph glyph-name="nine" unicode="9" horiz-adv-x="601" d="M128 151 Q156 122 188 107.5 Q220 93 265 93 Q323 93 362.5 124 Q402 155 421.5 205 Q441 255 441 312 L441 332 Q415 295 366 266.5 Q317 238 262 238 Q201 238 150 263 Q99 288 68.5 337 Q38 386 38 454 Q38 516 68.5 567 Q99 618 155 648 Q211 678 284 678 Q378 678 439.5 632 Q501 586 530 508 Q559 430 559 333 Q559 235 525 157 Q491 79 425 34 Q359 -11 265 -11 Q148 -11 74 63 L128 151 Z M439 417 Q434 480 397.5 527 Q361 574 290 574 Q249 574 218.5 556.5 Q188 539 172.5 512.5 Q157 486 157 458 Q157 400 196 369.5 Q235 339 293 339 Q336 339 375 360 Q414 381 439 417 Z " />
<glyph glyph-name="A" unicode="A" horiz-adv-x="673" d="M494 128 L178 128 L129 0 L1 0 L263 667 L409 667 L671 0 L543 0 L494 128 Z M211 231 L461 231 L336 568 L211 231 Z " />
<glyph glyph-name="B" unicode="B" horiz-adv-x="648" d="M71 667 L399 667 Q458 667 501 644.5 Q544 622 566.5 583.5 Q589 545 589 497 Q589 437 555.5 395.5 Q522 354 473 344 Q508 339 537.5 315.5 Q567 292 584.5 256 Q602 220 602 180 Q602 100 550.5 50 Q499 0 408 0 L71 0 L71 667 Z M375 391 Q419 391 444 415 Q469 439 469 477 Q469 516 444 540 Q419 564 375 564 L188 564 L188 391 L375 391 Z M380 103 Q428 103 455 127.5 Q482 152 482 196 Q482 235 455 261.5 Q428 288 380 288 L188 288 L188 103 L380 103 Z " />
<glyph glyph-name="C" unicode="C" horiz-adv-x="682" d="M386 -12 Q290 -12 211.5 31.5 Q133 75 87 154 Q41 233 41 333 Q41 433 87 512 Q133 591 211.5 634.5 Q290 678 386 678 Q565 678 659 528 L559 477 Q534 520 488 547 Q442 574 386 574 Q323 574 271.5 543 Q220 512 190.5 457 Q161 402 161 333 Q161 264 190.5 209 Q220 154 271.5 123 Q323 92 386 92 Q442 92 488 119 Q534 146 559 189 L659 138 Q563 -12 386 -12 Z " />
<glyph glyph-name="D" unicode="D" horiz-adv-x="710" d="M71 667 L319 667 Q422 667 501 624.5 Q580 582 624 506 Q668 430 668 333 Q668 236 624 160.5 Q580 85 501 42.5 Q422 0 319 0 L71 0 L71 667 Z M319 103 Q389 103 441 133.5 Q493 164 520.5 216.5 Q548 269 548 333 Q548 398 521.5 450.5 Q495 503 443 533.5 Q391 564 319 564 L188 564 L188 103 L319 103 Z " />
<glyph glyph-name="E" unicode="E" horiz-adv-x="577" d="M71 667 L528 667 L528 564 L188 564 L188 391 L521 391 L521 288 L188 288 L188 103 L528 103 L528 0 L71 0 L71 667 Z " />
<glyph glyph-name="F" unicode="F" horiz-adv-x="562" d="M71 667 L528 667 L528 564 L188 564 L188 391 L521 391 L521 288 L188 288 L188 0 L71 0 L71 667 Z " />
<glyph glyph-name="G" unicode="G" horiz-adv-x="717" d="M41 333 Q41 435 87.5 513.5 Q134 592 214 635 Q294 678 391 678 Q482 678 548.5 640 Q615 602 660 539 L564 485 Q536 524 490.5 549 Q445 574 391 574 Q326 574 273.5 543 Q221 512 191 457 Q161 402 161 333 Q161 264 191 209 Q221 154 273.5 122.5 Q326 91 391 91 Q438 91 480.5 109 Q523 127 549 151 L549 255 L350 255 L350 358 L666 358 L666 108 Q614 51 544.5 19 Q475 -13 391 -13 Q294 -13 214 30.5 Q134 74 87.5 152.5 Q41 231 41 333 Z " />
<glyph glyph-name="H" unicode="H" horiz-adv-x="723" d="M535 291 L188 291 L188 0 L71 0 L71 667 L188 667 L188 394 L535 394 L535 667 L652 667 L652 0 L535 0 L535 291 Z " />
<glyph glyph-name="I" unicode="I" horiz-adv-x="259" d="M71 667 L188 667 L188 0 L71 0 L71 667 Z " />
<glyph glyph-name="J" unicode="J" horiz-adv-x="481" d="M62 147 Q113 92 176 92 Q230 92 261.5 125 Q293 158 293 213 L293 667 L410 667 L410 211 Q410 101 348 44.5 Q286 -12 185 -12 Q74 -12 8 58 L62 147 Z " />
<glyph glyph-name="K" unicode="K" horiz-adv-x="621" d="M246 281 L188 213 L188 0 L71 0 L71 667 L188 667 L188 349 L449 667 L594 667 L323 352 L614 0 L470 0 L246 281 Z " />
<glyph glyph-name="L" unicode="L" horiz-adv-x="517" d="M71 667 L188 667 L188 103 L482 103 L482 0 L71 0 L71 667 Z " />
<glyph glyph-name="M" unicode="M" horiz-adv-x="835" d="M647 505 L442 0 L392 0 L188 505 L188 0 L71 0 L71 667 L236 667 L417 218 L599 667 L764 667 L764 0 L647 0 L647 505 Z " />
<glyph glyph-name="N" unicode="N" horiz-adv-x="720" d="M188 486 L188 0 L71 0 L71 667 L191 667 L532 194 L532 667 L649 667 L649 0 L536 0 L188 486 Z " />
<glyph glyph-name="O" unicode="O" horiz-adv-x="765" d="M41 333 Q41 431 84.5 510 Q128 589 205.5 633.5 Q283 678 382 678 Q481 678 558.5 633.5 Q636 589 679.5 510 Q723 431 723 333 Q723 235 679.5 156 Q636 77 558.5 32.5 Q481 -12 382 -12 Q283 -12 205.5 32.5 Q128 77 84.5 156 Q41 235 41 333 Z M603 333 Q603 402 575.5 457 Q548 512 498 543 Q448 574 382 574 Q316 574 266 543 Q216 512 188.5 457 Q161 402 161 333 Q161 265 188.5 210 Q216 155 266 123.5 Q316 92 382 92 Q448 92 498 123.5 Q548 155 575.5 210 Q603 265 603 333 Z " />
<glyph glyph-name="P" unicode="P" horiz-adv-x="608" d="M71 667 L364 667 Q432 667 481 639 Q530 611 556 563 Q582 515 582 458 Q582 401 556 353 Q530 305 480.5 277 Q431 249 364 249 L188 249 L188 0 L71 0 L71 667 Z M462 458 Q462 506 430 535 Q398 564 348 564 L188 564 L188 352 L348 352 Q398 352 430 381 Q462 410 462 458 Z " />
<glyph glyph-name="Q" unicode="Q" horiz-adv-x="765" d="M723 333 Q723 262 700 201 Q677 140 634 93 L689 31 L608 -37 L550 28 Q476 -12 382 -12 Q283 -12 205.5 32.5 Q128 77 84.5 156 Q41 235 41 333 Q41 431 84.5 510 Q128 589 205.5 633.5 Q283 678 382 678 Q481 678 558.5 633.5 Q636 589 679.5 510 Q723 431 723 333 Z M382 92 Q434 92 477 112 L394 206 L475 273 L558 180 Q603 244 603 333 Q603 402 575.5 457 Q548 512 498 543 Q448 574 382 574 Q316 574 266 543 Q216 512 188.5 457 Q161 402 161 333 Q161 265 188.5 210 Q216 155 266 123.5 Q316 92 382 92 Z " />
<glyph glyph-name="R" unicode="R" horiz-adv-x="628" d="M304 249 L188 249 L188 0 L71 0 L71 667 L364 667 Q429 667 478.5 640.5 Q528 614 555 566.5 Q582 519 582 458 Q582 374 536 323.5 Q490 273 424 262 L587 0 L452 0 L304 249 Z M462 458 Q462 506 430 535 Q398 564 348 564 L188 564 L188 352 L348 352 Q398 352 430 381 Q462 410 462 458 Z " />
<glyph glyph-name="S" unicode="S" horiz-adv-x="594" d="M93 184 Q131 143 185 117.5 Q239 92 304 92 Q371 92 404.5 119 Q438 146 438 183 Q438 211 418.5 229 Q399 247 369 257.5 Q339 268 286 282 Q211 300 164 319 Q117 338 83 377.5 Q49 417 49 482 Q49 537 79.5 581.5 Q110 626 165.5 651.5 Q221 677 292 677 Q446 677 542 584 L475 497 Q437 535 386.5 554 Q336 573 282 573 Q230 573 199.5 550.5 Q169 528 169 490 Q169 466 188 450 Q207 434 235.5 424 Q264 414 316 401 Q391 382 439.5 362 Q488 342 522.5 301.5 Q557 261 557 194 Q557 136 529 89.5 Q501 43 443 15.5 Q385 -12 299 -12 Q210 -12 142.5 16 Q75 44 28 94 L93 184 Z " />
<glyph glyph-name="T" unicode="T" horiz-adv-x="577" d="M230 564 L28 564 L28 667 L549 667 L549 564 L347 564 L347 0 L230 0 L230 564 Z " />
<glyph glyph-name="U" unicode="U" horiz-adv-x="719" d="M71 667 L189 667 L189 267 Q189 186 233.5 139 Q278 92 360 92 Q442 92 486 139 Q530 186 530 267 L530 667 L648 667 L648 264 Q648 136 574.5 62 Q501 -12 360 -12 Q218 -12 144.5 62 Q71 136 71 263 L71 667 Z " />
<glyph glyph-name="V" unicode="V" horiz-adv-x="673" d="M1 667 L134 667 L336 127 L538 667 L671 667 L409 0 L263 0 L1 667 Z " />
<glyph glyph-name="W" unicode="W" horiz-adv-x="903" d="M451 492 L322 0 L197 0 L6 667 L137 667 L267 153 L405 667 L498 667 L636 153 L765 667 L896 667 L706 0 L581 0 L451 492 Z " />
<glyph glyph-name="X" unicode="X" horiz-adv-x="661" d="M330 261 L143 0 L3 0 L253 342 L18 667 L158 667 L330 422 L501 667 L642 667 L408 343 L657 0 L517 0 L330 261 Z " />
<glyph glyph-name="Y" unicode="Y" horiz-adv-x="637" d="M260 277 L1 667 L135 667 L319 381 L501 667 L635 667 L377 277 L377 0 L260 0 L260 277 Z " />
<glyph glyph-name="Z" unicode="Z" horiz-adv-x="589" d="M44 95 L385 564 L44 564 L44 667 L537 667 L537 572 L196 103 L544 103 L544 0 L44 0 L44 95 Z " />
<glyph glyph-name="a" unicode="a" horiz-adv-x="536" d="M363 52 Q336 21 295.5 4.5 Q255 -12 207 -12 Q166 -12 127 6.5 Q88 25 63.5 61 Q39 97 39 148 Q39 201 63.5 236 Q88 271 126.5 288 Q165 305 207 305 Q256 305 296.5 289 Q337 273 363 243 L363 315 Q363 357 332 381 Q301 405 250 405 Q169 405 107 344 L64 417 Q146 495 267 495 Q356 495 412 453 Q468 411 468 320 L468 0 L363 0 L363 52 Z M363 183 Q345 207 314.5 220 Q284 233 248 233 Q203 233 174 209 Q145 185 145 146 Q145 107 174 83.5 Q203 60 248 60 Q284 60 314.5 73 Q345 86 363 110 L363 183 Z " />
<glyph glyph-name="b" unicode="b" horiz-adv-x="581" d="M68 667 L173 667 L173 416 Q201 454 241.5 474.5 Q282 495 328 495 Q390 495 438.5 464 Q487 433 514.5 375.5 Q542 318 542 241 Q542 163 514.5 106 Q487 49 438.5 18.5 Q390 -12 328 -12 Q282 -12 241.5 8.5 Q201 29 173 66 L173 0 L68 0 L68 667 Z M173 145 Q190 118 225.5 99.5 Q261 81 297 81 Q359 81 396.5 125.5 Q434 170 434 241 Q434 312 396.5 357 Q359 402 297 402 Q261 402 226 383 Q191 364 173 336 L173 145 Z " />
<glyph glyph-name="c" unicode="c" horiz-adv-x="497" d="M38 242 Q38 314 70 372 Q102 430 159 462.5 Q216 495 288 495 Q409 495 473 409 L404 345 Q364 402 293 402 Q227 402 187 357.5 Q147 313 147 242 Q147 171 187 126 Q227 81 293 81 Q362 81 404 138 L473 74 Q409 -12 288 -12 Q216 -12 159 20.5 Q102 53 70 111 Q38 169 38 242 Z " />
<glyph glyph-name="d" unicode="d" horiz-adv-x="581" d="M408 66 Q380 29 339.5 8.5 Q299 -12 253 -12 Q191 -12 142 18.5 Q93 49 65.5 106 Q38 163 38 241 Q38 318 65.5 375.5 Q93 433 142 464 Q191 495 253 495 Q298 495 338.5 474.5 Q379 454 408 416 L408 667 L513 667 L513 0 L408 0 L408 66 Z M408 337 Q390 365 355 383.5 Q320 402 283 402 Q221 402 184 357 Q147 312 147 241 Q147 170 184 125.5 Q221 81 283 81 Q320 81 355 99 Q390 117 408 145 L408 337 Z " />
<glyph glyph-name="e" unicode="e" horiz-adv-x="557" d="M38 242 Q38 312 69.5 369.5 Q101 427 157 461 Q213 495 283 495 Q354 495 408 461 Q462 427 491.5 367.5 Q521 308 521 232 L521 207 L148 207 Q154 150 195 112 Q236 74 302 74 Q339 74 376.5 88 Q414 102 439 127 L487 58 Q451 24 400 6 Q349 -12 291 -12 Q219 -12 161.5 19.5 Q104 51 71 109 Q38 167 38 242 Z M283 409 Q221 409 186 370.5 Q151 332 147 281 L419 281 Q418 312 403 341.5 Q388 371 358 390 Q328 409 283 409 Z " />
<glyph glyph-name="f" unicode="f" horiz-adv-x="308" d="M93 391 L13 391 L13 483 L93 483 L93 510 Q93 589 135 633 Q177 677 246 677 Q297 677 330 658 L307 581 Q290 591 265 591 Q234 591 216 570.5 Q198 550 198 510 L198 483 L296 483 L296 391 L198 391 L198 0 L93 0 L93 391 Z " />
<glyph glyph-name="g" unicode="g" horiz-adv-x="580" d="M111 -48 Q139 -81 176.5 -95.5 Q214 -110 264 -110 Q324 -110 365.5 -78.5 Q407 -47 407 21 L407 79 Q378 42 338 20.5 Q298 -1 252 -1 Q190 -1 141.5 28 Q93 57 65.5 113 Q38 169 38 247 Q38 323 65.5 379.5 Q93 436 141.5 465.5 Q190 495 252 495 Q298 495 338 474.5 Q378 454 407 416 L407 483 L512 483 L512 25 Q512 -94 440.5 -145 Q369 -196 264 -196 Q200 -196 152.5 -179.5 Q105 -163 62 -124 L111 -48 Z M407 337 Q389 364 354 383 Q319 402 283 402 Q221 402 184 359.5 Q147 317 147 247 Q147 177 184 134.5 Q221 92 283 92 Q319 92 354 111 Q389 130 407 157 L407 337 Z " />
<glyph glyph-name="h" unicode="h" horiz-adv-x="568" d="M395 304 Q395 357 369.5 379.5 Q344 402 297 402 Q260 402 227 383 Q194 364 173 337 L173 0 L68 0 L68 667 L173 667 L173 417 Q200 449 245.5 472 Q291 495 344 495 Q421 495 460.5 456 Q500 417 500 342 L500 0 L395 0 L395 304 Z " />
<glyph glyph-name="i" unicode="i" horiz-adv-x="241" d="M120 557 Q94 557 74.5 576 Q55 595 55 622 Q55 649 74.5 668 Q94 687 120 687 Q147 687 166 668 Q185 649 185 622 Q185 595 166 576 Q147 557 120 557 Z M68 483 L173 483 L173 0 L68 0 L68 483 Z " />
<glyph glyph-name="j" unicode="j" horiz-adv-x="241" d="M120 557 Q94 557 74.5 576 Q55 595 55 622 Q55 649 74.5 668 Q94 687 120 687 Q147 687 166 668 Q185 649 185 622 Q185 595 166 576 Q147 557 120 557 Z M173 -28 Q173 -107 132 -151.5 Q91 -196 13 -196 Q-16 -196 -41 -191 L-30 -104 Q-18 -107 0 -107 Q31 -107 49.5 -88 Q68 -69 68 -28 L68 483 L173 483 L173 -28 Z " />
<glyph glyph-name="k" unicode="k" horiz-adv-x="526" d="M240 199 L173 130 L173 0 L68 0 L68 667 L173 667 L173 250 L386 483 L516 483 L315 264 L520 0 L388 0 L240 199 Z " />
<glyph glyph-name="l" unicode="l" horiz-adv-x="241" d="M68 667 L173 667 L173 0 L68 0 L68 667 Z " />
<glyph glyph-name="m" unicode="m" horiz-adv-x="833" d="M660 315 Q660 356 640.5 379 Q621 402 581 402 Q548 402 517 383 Q486 364 469 338 L469 0 L364 0 L364 315 Q364 356 344.5 379 Q325 402 284 402 Q252 402 221.5 383 Q191 364 173 337 L173 0 L68 0 L68 483 L173 483 L173 417 Q191 444 235.5 469.5 Q280 495 330 495 Q382 495 416 471 Q450 447 462 406 Q485 442 530 468.5 Q575 495 626 495 Q694 495 729.5 458.5 Q765 422 765 349 L765 0 L660 0 L660 315 Z " />
<glyph glyph-name="n" unicode="n" horiz-adv-x="567" d="M394 302 Q394 356 369 379 Q344 402 297 402 Q259 402 226 383 Q193 364 173 337 L173 0 L68 0 L68 483 L173 483 L173 417 Q200 449 245 472 Q290 495 343 495 Q420 495 459.5 455 Q499 415 499 340 L499 0 L394 0 L394 302 Z " />
<glyph glyph-name="o" unicode="o" horiz-adv-x="573" d="M286 -12 Q212 -12 155.5 22 Q99 56 68.5 114 Q38 172 38 242 Q38 311 68.5 369 Q99 427 155.5 461 Q212 495 286 495 Q361 495 417.5 461 Q474 427 504.5 369.5 Q535 312 535 242 Q535 172 504.5 114 Q474 56 417.5 22 Q361 -12 286 -12 Z M286 81 Q351 81 388.5 127.5 Q426 174 426 242 Q426 309 388.5 355.5 Q351 402 286 402 Q222 402 184.5 355.5 Q147 309 147 242 Q147 174 184.5 127.5 Q222 81 286 81 Z " />
<glyph glyph-name="p" unicode="p" horiz-adv-x="580" d="M68 -184 L68 483 L173 483 L173 417 Q200 454 240.5 474.5 Q281 495 328 495 Q391 495 439.5 464.5 Q488 434 515 377 Q542 320 542 242 Q542 164 515 106.5 Q488 49 439.5 18.5 Q391 -12 328 -12 Q282 -12 242 8 Q202 28 173 67 L173 -184 L68 -184 Z M433 242 Q433 313 396 357.5 Q359 402 297 402 Q261 402 226 383 Q191 364 173 337 L173 146 Q191 119 226 100 Q261 81 297 81 Q359 81 396 126 Q433 171 433 242 Z " />
<glyph glyph-name="q" unicode="q" horiz-adv-x="580" d="M407 -184 L407 67 Q378 28 338 8 Q298 -12 252 -12 Q189 -12 140.5 18.5 Q92 49 65 106.5 Q38 164 38 242 Q38 320 65 377 Q92 434 140.5 464.5 Q189 495 252 495 Q299 495 339.5 474.5 Q380 454 407 417 L407 483 L512 483 L512 -184 L407 -184 Z M407 337 Q389 364 354 383 Q319 402 283 402 Q221 402 184 357.5 Q147 313 147 242 Q147 171 184 126 Q221 81 283 81 Q319 81 354 100 Q389 119 407 146 L407 337 Z " />
<glyph glyph-name="r" unicode="r" horiz-adv-x="347" d="M68 483 L173 483 L173 412 Q201 448 243 471 Q285 494 330 494 L330 390 Q316 393 297 393 Q264 393 226.5 373.5 Q189 354 173 329 L173 0 L68 0 L68 483 Z " />
<glyph glyph-name="s" unicode="s" horiz-adv-x="472" d="M74 139 Q101 111 147 91 Q193 71 238 71 Q284 71 308.5 86.5 Q333 102 333 130 Q333 159 305 173.5 Q277 188 223 200 Q166 212 129.5 225.5 Q93 239 67 268.5 Q41 298 41 348 Q41 388 63.5 421.5 Q86 455 129 475 Q172 495 231 495 Q342 495 419 427 L375 353 Q352 379 314 395 Q276 411 232 411 Q190 411 166 396.5 Q142 382 142 357 Q142 332 168 319 Q194 306 247 294 Q304 282 342 267.5 Q380 253 407 222 Q434 191 434 138 Q434 72 381 30 Q328 -12 233 -12 Q171 -12 117 7.5 Q63 27 26 63 L74 139 Z " />
<glyph glyph-name="t" unicode="t" horiz-adv-x="319" d="M213 -12 Q152 -12 120.5 20 Q89 52 89 112 L89 391 L9 391 L9 483 L89 483 L89 615 L194 615 L194 483 L292 483 L292 391 L194 391 L194 138 Q194 112 206 96.5 Q218 81 240 81 Q254 81 267.5 86 Q281 91 287 98 L312 19 Q279 -12 213 -12 Z " />
<glyph glyph-name="u" unicode="u" horiz-adv-x="567" d="M394 64 Q365 31 320.5 9.5 Q276 -12 223 -12 Q146 -12 107 27 Q68 66 68 141 L68 483 L173 483 L173 179 Q173 126 198 103.5 Q223 81 270 81 Q308 81 341 99 Q374 117 394 144 L394 483 L499 483 L499 0 L394 0 L394 64 Z " />
<glyph glyph-name="v" unicode="v" horiz-adv-x="503" d="M-2 483 L110 483 L251 121 L392 483 L505 483 L308 0 L195 0 L-2 483 Z " />
<glyph glyph-name="w" unicode="w" horiz-adv-x="754" d="M377 354 L265 0 L155 0 L5 483 L114 483 L216 132 L331 483 L423 483 L538 132 L640 483 L749 483 L599 0 L489 0 L377 354 Z " />
<glyph glyph-name="x" unicode="x" horiz-adv-x="496" d="M248 178 L122 0 L5 0 L182 248 L15 483 L133 483 L248 319 L362 483 L480 483 L313 248 L491 0 L373 0 L248 178 Z " />
<glyph glyph-name="y" unicode="y" horiz-adv-x="503" d="M63 -95 Q81 -103 103 -103 Q129 -103 145.5 -93.5 Q162 -84 172 -61 L196 -6 L-2 483 L110 483 L251 121 L392 483 L505 483 L272 -87 Q248 -146 207 -170.5 Q166 -195 106 -196 Q93 -196 75.5 -194 Q58 -192 47 -189 L63 -95 Z " />
<glyph glyph-name="z" unicode="z" horiz-adv-x="476" d="M46 79 L285 391 L46 391 L46 483 L425 483 L425 406 L184 91 L429 91 L429 0 L46 0 L46 79 Z " />
<glyph glyph-name="Aacute" unicode="&#xc1;" horiz-adv-x="673" d="M494 128 L178 128 L129 0 L1 0 L263 667 L409 667 L671 0 L543 0 L494 128 Z M211 231 L461 231 L336 568 L211 231 Z M295 723 L435 867 L535 867 L370 723 L295 723 Z " />
<glyph glyph-name="Abreve" unicode="&#x102;" horiz-adv-x="673" d="M494 128 L178 128 L129 0 L1 0 L263 667 L409 667 L671 0 L543 0 L494 128 Z M211 231 L461 231 L336 568 L211 231 Z M336 721 Q283 721 237 744.5 Q191 768 160 809 L208 849 Q230 818 263 800.5 Q296 783 336 783 Q375 783 408 800.5 Q441 818 463 849 L511 809 Q480 768 434.5 744.5 Q389 721 336 721 Z " />
<glyph glyph-name="Acircumflex" unicode="&#xc2;" horiz-adv-x="673" d="M494 128 L178 128 L129 0 L1 0 L263 667 L409 667 L671 0 L543 0 L494 128 Z M211 231 L461 231 L336 568 L211 231 Z M336 819 L261 723 L195 723 L288 867 L384 867 L480 723 L413 723 L336 819 Z " />
<glyph glyph-name="Adieresis" unicode="&#xc4;" horiz-adv-x="673" d="M494 128 L178 128 L129 0 L1 0 L263 667 L409 667 L671 0 L543 0 L494 128 Z M211 231 L461 231 L336 568 L211 231 Z M232 731 Q207 731 190 748 Q173 765 173 790 Q173 814 190 831 Q207 848 232 848 Q256 848 273 831 Q290 814 290 790 Q290 765 273 748 Q256 731 232 731 Z M441 731 Q417 731 399.5 748 Q382 765 382 790 Q382 814 399.5 831 Q417 848 441 848 Q465 848 482.5 831 Q500 814 500 790 Q500 765 482.5 748 Q465 731 441 731 Z " />
<glyph glyph-name="Agrave" unicode="&#xc0;" horiz-adv-x="673" d="M494 128 L178 128 L129 0 L1 0 L263 667 L409 667 L671 0 L543 0 L494 128 Z M211 231 L461 231 L336 568 L211 231 Z M133 867 L233 867 L373 723 L298 723 L133 867 Z " />
<glyph glyph-name="Amacron" unicode="&#x100;" horiz-adv-x="673" d="M494 128 L178 128 L129 0 L1 0 L263 667 L409 667 L671 0 L543 0 L494 128 Z M211 231 L461 231 L336 568 L211 231 Z M174 795 L497 795 L497 733 L174 733 L174 795 Z " />
<glyph glyph-name="Aogonek" unicode="&#x104;" horiz-adv-x="673" d="M646 0 Q557 -34 557 -84 Q557 -98 567.5 -106.5 Q578 -115 592 -115 Q608 -115 622 -108 L646 -169 Q618 -186 566 -186 Q522 -186 491 -166 Q460 -146 460 -109 Q460 -76 489.5 -48 Q519 -20 567 0 L543 0 L494 128 L178 128 L129 0 L1 0 L263 667 L409 667 L671 0 L646 0 Z M461 231 L336 568 L211 231 L461 231 Z " />
<glyph glyph-name="Aring" unicode="&#xc5;" horiz-adv-x="673" d="M494 128 L178 128 L129 0 L1 0 L263 667 L409 667 L671 0 L543 0 L494 128 Z M211 231 L461 231 L336 568 L211 231 Z M235 805 Q235 847 265 877.5 Q295 908 337 908 Q379 908 408.5 877.5 Q438 847 438 805 Q438 763 408.5 733 Q379 703 337 703 Q295 703 265 733 Q235 763 235 805 Z M388 805 Q388 827 373.5 842 Q359 857 337 857 Q316 857 300.5 842 Q285 827 285 805 Q285 784 300.5 768.5 Q316 753 337 753 Q358 753 373 768.5 Q388 784 388 805 Z " />
<glyph glyph-name="Atilde" unicode="&#xc3;" horiz-adv-x="673" d="M494 128 L178 128 L129 0 L1 0 L263 667 L409 667 L671 0 L543 0 L494 128 Z M211 231 L461 231 L336 568 L211 231 Z M318 767 Q306 783 296.5 791 Q287 799 275 799 Q257 799 245 781 Q233 763 233 727 L176 727 Q176 789 202.5 825 Q229 861 279 861 Q305 861 321 849 Q337 837 354 815 Q368 798 377 790.5 Q386 783 398 783 Q416 783 427.5 801 Q439 819 439 855 L497 855 Q497 793 470.5 757 Q444 721 394 721 Q368 721 351.5 733 Q335 745 318 767 Z " />
<glyph glyph-name="uni1EA0" unicode="&#x1ea0;" horiz-adv-x="673" d="M494 128 L178 128 L129 0 L1 0 L263 667 L409 667 L671 0 L543 0 L494 128 Z M211 231 L461 231 L336 568 L211 231 Z M277 -118 Q277 -94 294.5 -76.5 Q312 -59 336 -59 Q360 -59 377 -76.5 Q394 -94 394 -118 Q394 -143 377 -160 Q360 -177 336 -177 Q312 -177 294.5 -160 Q277 -143 277 -118 Z " />
<glyph glyph-name="uni1EA2" unicode="&#x1ea2;" horiz-adv-x="673" d="M494 128 L178 128 L129 0 L1 0 L263 667 L409 667 L671 0 L543 0 L494 128 Z M211 231 L461 231 L336 568 L211 231 Z M229 811 Q240 845 266.5 864 Q293 883 329 883 Q371 883 399 860 Q427 837 427 791 Q427 772 421.5 757 Q416 742 405 724 L343 724 Q370 754 370 789 Q370 811 358.5 822.5 Q347 834 329 834 Q295 834 281 795 L229 811 Z " />
<glyph glyph-name="uni1EA4" unicode="&#x1ea4;" horiz-adv-x="673" d="M449 780 L589 888 L689 888 L524 780 L449 780 Z M336 777 L261 705 L195 705 L288 813 L384 813 L480 705 L413 705 L336 777 Z M494 128 L178 128 L129 0 L1 0 L263 667 L409 667 L671 0 L543 0 L494 128 Z M211 231 L461 231 L336 568 L211 231 Z " />
<glyph glyph-name="uni1EAC" unicode="&#x1eac;" horiz-adv-x="673" d="M494 128 L178 128 L129 0 L1 0 L263 667 L409 667 L671 0 L543 0 L494 128 Z M211 231 L461 231 L336 568 L211 231 Z M277 -118 Q277 -94 294.5 -76.5 Q312 -59 336 -59 Q360 -59 377 -76.5 Q394 -94 394 -118 Q394 -143 377 -160 Q360 -177 336 -177 Q312 -177 294.5 -160 Q277 -143 277 -118 Z M336 819 L261 723 L195 723 L288 867 L384 867 L480 723 L413 723 L336 819 Z " />
<glyph glyph-name="uni1EA6" unicode="&#x1ea6;" horiz-adv-x="673" d="M-12 888 L88 888 L228 780 L153 780 L-12 888 Z M336 777 L261 705 L195 705 L288 813 L384 813 L480 705 L413 705 L336 777 Z M494 128 L178 128 L129 0 L1 0 L263 667 L409 667 L671 0 L543 0 L494 128 Z M211 231 L461 231 L336 568 L211 231 Z " />
<glyph glyph-name="uni1EA8" unicode="&#x1ea8;" horiz-adv-x="673" d="M335 845 Q346 870 372.5 884.5 Q399 899 435 899 Q477 899 505 882 Q533 865 533 830 Q533 816 527.5 804.5 Q522 793 511 780 L449 780 Q476 803 476 829 Q476 845 464.5 853.5 Q453 862 435 862 Q401 862 387 833 L335 845 Z M336 777 L261 705 L195 705 L288 813 L384 813 L480 705 L413 705 L336 777 Z M494 128 L178 128 L129 0 L1 0 L263 667 L409 667 L671 0 L543 0 L494 128 Z M211 231 L461 231 L336 568 L211 231 Z " />
<glyph glyph-name="uni1EAE" unicode="&#x1eae;" horiz-adv-x="673" d="M295 804 L435 912 L535 912 L370 804 L295 804 Z M336 704 Q283 704 237 721.5 Q191 739 160 770 L208 800 Q231 777 263.5 763.5 Q296 750 336 750 Q375 750 408 763 Q441 776 463 800 L511 770 Q481 739 435 721.5 Q389 704 336 704 Z M494 128 L178 128 L129 0 L1 0 L263 667 L409 667 L671 0 L543 0 L494 128 Z M211 231 L461 231 L336 568 L211 231 Z " />
<glyph glyph-name="uni1EAA" unicode="&#x1eaa;" horiz-adv-x="673" d="M318 859 Q306 871 296.5 877 Q287 883 275 883 Q256 883 244.5 869.5 Q233 856 233 829 L176 829 Q176 876 202.5 903 Q229 930 279 930 Q305 930 321 921 Q337 912 354 895 Q367 883 376.5 877 Q386 871 398 871 Q416 871 427.5 884.5 Q439 898 439 925 L497 925 Q497 879 470.5 852 Q444 825 394 825 Q368 825 351.5 834 Q335 843 318 859 Z M336 777 L261 705 L195 705 L288 813 L384 813 L480 705 L413 705 L336 777 Z M494 128 L178 128 L129 0 L1 0 L263 667 L409 667 L671 0 L543 0 L494 128 Z M211 231 L461 231 L336 568 L211 231 Z " />
<glyph glyph-name="uni1EB0" unicode="&#x1eb0;" horiz-adv-x="673" d="M133 912 L233 912 L373 804 L298 804 L133 912 Z M336 704 Q283 704 237 721.5 Q191 739 160 770 L208 800 Q231 777 263.5 763.5 Q296 750 336 750 Q375 750 408 763 Q441 776 463 800 L511 770 Q481 739 435 721.5 Q389 704 336 704 Z M494 128 L178 128 L129 0 L1 0 L263 667 L409 667 L671 0 L543 0 L494 128 Z M211 231 L461 231 L336 568 L211 231 Z " />
<glyph glyph-name="uni1EB2" unicode="&#x1eb2;" horiz-adv-x="673" d="M229 870 Q240 895 266.5 909.5 Q293 924 329 924 Q371 924 399 907 Q427 890 427 855 Q427 841 421.5 829.5 Q416 818 405 805 L343 805 Q370 828 370 854 Q370 870 358.5 878.5 Q347 887 329 887 Q295 887 281 858 L229 870 Z M336 704 Q283 704 237 721.5 Q191 739 160 770 L208 800 Q231 777 263.5 763.5 Q296 750 336 750 Q375 750 408 763 Q441 776 463 800 L511 770 Q481 739 435 721.5 Q389 704 336 704 Z M494 128 L178 128 L129 0 L1 0 L263 667 L409 667 L671 0 L543 0 L494 128 Z M211 231 L461 231 L336 568 L211 231 Z " />
<glyph glyph-name="uni1EB4" unicode="&#x1eb4;" horiz-adv-x="673" d="M318 837 Q306 849 296.5 855 Q287 861 275 861 Q256 861 244.5 847.5 Q233 834 233 807 L176 807 Q176 854 202.5 881 Q229 908 279 908 Q305 908 321 899 Q337 890 354 873 Q367 861 376.5 855 Q386 849 398 849 Q416 849 427.5 862.5 Q439 876 439 903 L497 903 Q497 857 470.5 830 Q444 803 394 803 Q368 803 351.5 812 Q335 821 318 837 Z M336 704 Q283 704 237 721.5 Q191 739 160 770 L208 800 Q231 777 263.5 763.5 Q296 750 336 750 Q375 750 408 763 Q441 776 463 800 L511 770 Q481 739 435 721.5 Q389 704 336 704 Z M494 128 L178 128 L129 0 L1 0 L263 667 L409 667 L671 0 L543 0 L494 128 Z M211 231 L461 231 L336 568 L211 231 Z " />
<glyph glyph-name="uni1EB6" unicode="&#x1eb6;" horiz-adv-x="673" d="M494 128 L178 128 L129 0 L1 0 L263 667 L409 667 L671 0 L543 0 L494 128 Z M211 231 L461 231 L336 568 L211 231 Z M336 721 Q283 721 237 744.5 Q191 768 160 809 L208 849 Q230 818 263 800.5 Q296 783 336 783 Q375 783 408 800.5 Q441 818 463 849 L511 809 Q480 768 434.5 744.5 Q389 721 336 721 Z M277 -118 Q277 -94 294.5 -76.5 Q312 -59 336 -59 Q360 -59 377 -76.5 Q394 -94 394 -118 Q394 -143 377 -160 Q360 -177 336 -177 Q312 -177 294.5 -160 Q277 -143 277 -118 Z " />
<glyph glyph-name="AE" unicode="&#xc6;" horiz-adv-x="959" d="M455 128 L203 128 L126 0 L-2 0 L408 667 L912 667 L912 564 L572 564 L572 391 L905 391 L905 288 L572 288 L572 103 L912 103 L912 0 L455 0 L455 128 Z M259 231 L455 231 L455 569 L259 231 Z " />
<glyph glyph-name="AEacute" unicode="&#x1fc;" horiz-adv-x="959" d="M455 128 L203 128 L126 0 L-2 0 L408 667 L912 667 L912 564 L572 564 L572 391 L905 391 L905 288 L572 288 L572 103 L912 103 L912 0 L455 0 L455 128 Z M259 231 L455 231 L455 569 L259 231 Z M471 723 L611 867 L711 867 L546 723 L471 723 Z " />
<glyph glyph-name="uni1E02" unicode="&#x1e02;" horiz-adv-x="648" d="M71 667 L399 667 Q458 667 501 644.5 Q544 622 566.5 583.5 Q589 545 589 497 Q589 437 555.5 395.5 Q522 354 473 344 Q508 339 537.5 315.5 Q567 292 584.5 256 Q602 220 602 180 Q602 100 550.5 50 Q499 0 408 0 L71 0 L71 667 Z M375 391 Q419 391 444 415 Q469 439 469 477 Q469 516 444 540 Q419 564 375 564 L188 564 L188 391 L375 391 Z M380 103 Q428 103 455 127.5 Q482 152 482 196 Q482 235 455 261.5 Q428 288 380 288 L188 288 L188 103 L380 103 Z M262 789 Q262 813 279.5 830.5 Q297 848 321 848 Q345 848 362 830.5 Q379 813 379 789 Q379 764 362 747 Q345 730 321 730 Q297 730 279.5 747 Q262 764 262 789 Z " />
<glyph glyph-name="Cacute" unicode="&#x106;" horiz-adv-x="682" d="M386 -12 Q290 -12 211.5 31.5 Q133 75 87 154 Q41 233 41 333 Q41 433 87 512 Q133 591 211.5 634.5 Q290 678 386 678 Q565 678 659 528 L559 477 Q534 520 488 547 Q442 574 386 574 Q323 574 271.5 543 Q220 512 190.5 457 Q161 402 161 333 Q161 264 190.5 209 Q220 154 271.5 123 Q323 92 386 92 Q442 92 488 119 Q534 146 559 189 L659 138 Q563 -12 386 -12 Z M345 723 L485 867 L585 867 L420 723 L345 723 Z " />
<glyph glyph-name="Ccedilla" unicode="&#xc7;" horiz-adv-x="682" d="M386 92 Q442 92 488 119 Q534 146 559 189 L659 138 Q570 -3 407 -11 L390 -53 Q406 -42 426 -42 Q455 -42 474 -61 Q493 -80 493 -109 Q493 -148 462 -171 Q431 -194 385 -194 Q352 -194 323.5 -185 Q295 -176 279 -163 L301 -117 Q337 -146 382 -146 Q406 -146 422 -136 Q438 -126 438 -108 Q438 -95 429.5 -87.5 Q421 -80 405 -80 Q384 -80 371 -95 L330 -72 L353 -11 Q265 -4 194 41.5 Q123 87 82 163 Q41 239 41 333 Q41 433 87 512 Q133 591 211.5 634.5 Q290 678 386 678 Q565 678 659 528 L559 477 Q534 520 488 547 Q442 574 386 574 Q323 574 271.5 543 Q220 512 190.5 457 Q161 402 161 333 Q161 264 190.5 209 Q220 154 271.5 123 Q323 92 386 92 Z " />
<glyph glyph-name="Ccircumflex" unicode="&#x108;" horiz-adv-x="682" d="M386 -12 Q290 -12 211.5 31.5 Q133 75 87 154 Q41 233 41 333 Q41 433 87 512 Q133 591 211.5 634.5 Q290 678 386 678 Q565 678 659 528 L559 477 Q534 520 488 547 Q442 574 386 574 Q323 574 271.5 543 Q220 512 190.5 457 Q161 402 161 333 Q161 264 190.5 209 Q220 154 271.5 123 Q323 92 386 92 Q442 92 488 119 Q534 146 559 189 L659 138 Q563 -12 386 -12 Z M386 819 L311 723 L245 723 L338 867 L434 867 L530 723 L463 723 L386 819 Z " />
<glyph glyph-name="Cdotaccent" unicode="&#x10a;" horiz-adv-x="682" d="M386 -12 Q290 -12 211.5 31.5 Q133 75 87 154 Q41 233 41 333 Q41 433 87 512 Q133 591 211.5 634.5 Q290 678 386 678 Q565 678 659 528 L559 477 Q534 520 488 547 Q442 574 386 574 Q323 574 271.5 543 Q220 512 190.5 457 Q161 402 161 333 Q161 264 190.5 209 Q220 154 271.5 123 Q323 92 386 92 Q442 92 488 119 Q534 146 559 189 L659 138 Q563 -12 386 -12 Z M327 789 Q327 813 344.5 830.5 Q362 848 386 848 Q410 848 427 830.5 Q444 813 444 789 Q444 764 427 747 Q410 730 386 730 Q362 730 344.5 747 Q327 764 327 789 Z " />
<glyph glyph-name="Ccaron" unicode="&#x10c;" horiz-adv-x="682" d="M386 -12 Q290 -12 211.5 31.5 Q133 75 87 154 Q41 233 41 333 Q41 433 87 512 Q133 591 211.5 634.5 Q290 678 386 678 Q565 678 659 528 L559 477 Q534 520 488 547 Q442 574 386 574 Q323 574 271.5 543 Q220 512 190.5 457 Q161 402 161 333 Q161 264 190.5 209 Q220 154 271.5 123 Q323 92 386 92 Q442 92 488 119 Q534 146 559 189 L659 138 Q563 -12 386 -12 Z M242 867 L308 867 L386 770 L460 867 L527 867 L434 723 L338 723 L242 867 Z " />
<glyph glyph-name="Dcaron" unicode="&#x10e;" horiz-adv-x="710" d="M71 667 L319 667 Q422 667 501 624.5 Q580 582 624 506 Q668 430 668 333 Q668 236 624 160.5 Q580 85 501 42.5 Q422 0 319 0 L71 0 L71 667 Z M319 103 Q389 103 441 133.5 Q493 164 520.5 216.5 Q548 269 548 333 Q548 398 521.5 450.5 Q495 503 443 533.5 Q391 564 319 564 L188 564 L188 103 L319 103 Z M212 867 L278 867 L356 770 L430 867 L497 867 L404 723 L308 723 L212 867 Z " />
<glyph glyph-name="Dcroat" unicode="&#x110;" horiz-adv-x="736" d="M345 667 Q448 667 527 624.5 Q606 582 650 506 Q694 430 694 333 Q694 236 650 160.5 Q606 85 527 42.5 Q448 0 345 0 L97 0 L97 285 L9 285 L9 371 L97 371 L97 667 L345 667 Z M345 103 Q415 103 467 133.5 Q519 164 546.5 216.5 Q574 269 574 333 Q574 398 547.5 450.5 Q521 503 469 533.5 Q417 564 345 564 L214 564 L214 371 L372 371 L372 285 L214 285 L214 103 L345 103 Z " />
<glyph glyph-name="uni1E0A" unicode="&#x1e0a;" horiz-adv-x="710" d="M71 667 L319 667 Q422 667 501 624.5 Q580 582 624 506 Q668 430 668 333 Q668 236 624 160.5 Q580 85 501 42.5 Q422 0 319 0 L71 0 L71 667 Z M319 103 Q389 103 441 133.5 Q493 164 520.5 216.5 Q548 269 548 333 Q548 398 521.5 450.5 Q495 503 443 533.5 Q391 564 319 564 L188 564 L188 103 L319 103 Z M297 789 Q297 813 314.5 830.5 Q332 848 356 848 Q380 848 397 830.5 Q414 813 414 789 Q414 764 397 747 Q380 730 356 730 Q332 730 314.5 747 Q297 764 297 789 Z " />
<glyph glyph-name="Eacute" unicode="&#xc9;" horiz-adv-x="577" d="M71 667 L528 667 L528 564 L188 564 L188 391 L521 391 L521 288 L188 288 L188 103 L528 103 L528 0 L71 0 L71 667 Z M265 723 L405 867 L505 867 L340 723 L265 723 Z " />
<glyph glyph-name="Ebreve" unicode="&#x114;" horiz-adv-x="577" d="M71 667 L528 667 L528 564 L188 564 L188 391 L521 391 L521 288 L188 288 L188 103 L528 103 L528 0 L71 0 L71 667 Z M306 721 Q253 721 207 744.5 Q161 768 130 809 L178 849 Q200 818 233 800.5 Q266 783 306 783 Q345 783 378 800.5 Q411 818 433 849 L481 809 Q450 768 404.5 744.5 Q359 721 306 721 Z " />
<glyph glyph-name="Ecircumflex" unicode="&#xca;" horiz-adv-x="577" d="M71 667 L528 667 L528 564 L188 564 L188 391 L521 391 L521 288 L188 288 L188 103 L528 103 L528 0 L71 0 L71 667 Z M306 819 L231 723 L165 723 L258 867 L354 867 L450 723 L383 723 L306 819 Z " />
<glyph glyph-name="Edieresis" unicode="&#xcb;" horiz-adv-x="577" d="M71 667 L528 667 L528 564 L188 564 L188 391 L521 391 L521 288 L188 288 L188 103 L528 103 L528 0 L71 0 L71 667 Z M202 731 Q177 731 160 748 Q143 765 143 790 Q143 814 160 831 Q177 848 202 848 Q226 848 243 831 Q260 814 260 790 Q260 765 243 748 Q226 731 202 731 Z M411 731 Q387 731 369.5 748 Q352 765 352 790 Q352 814 369.5 831 Q387 848 411 848 Q435 848 452.5 831 Q470 814 470 790 Q470 765 452.5 748 Q435 731 411 731 Z " />
<glyph glyph-name="Edotaccent" unicode="&#x116;" horiz-adv-x="577" d="M71 667 L528 667 L528 564 L188 564 L188 391 L521 391 L521 288 L188 288 L188 103 L528 103 L528 0 L71 0 L71 667 Z M247 789 Q247 813 264.5 830.5 Q282 848 306 848 Q330 848 347 830.5 Q364 813 364 789 Q364 764 347 747 Q330 730 306 730 Q282 730 264.5 747 Q247 764 247 789 Z " />
<glyph glyph-name="Egrave" unicode="&#xc8;" horiz-adv-x="577" d="M71 667 L528 667 L528 564 L188 564 L188 391 L521 391 L521 288 L188 288 L188 103 L528 103 L528 0 L71 0 L71 667 Z M103 867 L203 867 L343 723 L268 723 L103 867 Z " />
<glyph glyph-name="Emacron" unicode="&#x112;" horiz-adv-x="577" d="M71 667 L528 667 L528 564 L188 564 L188 391 L521 391 L521 288 L188 288 L188 103 L528 103 L528 0 L71 0 L71 667 Z M144 795 L467 795 L467 733 L144 733 L144 795 Z " />
<glyph glyph-name="Eogonek" unicode="&#x118;" horiz-adv-x="577" d="M188 564 L188 391 L521 391 L521 288 L188 288 L188 103 L528 103 L528 0 Q439 -34 439 -84 Q439 -98 449.5 -106.5 Q460 -115 474 -115 Q490 -115 504 -108 L528 -169 Q500 -186 448 -186 Q404 -186 373 -166 Q342 -146 342 -109 Q342 -76 371.5 -48 Q401 -20 449 0 L71 0 L71 667 L528 667 L528 564 L188 564 Z " />
<glyph glyph-name="Ecaron" unicode="&#x11a;" horiz-adv-x="577" d="M71 667 L528 667 L528 564 L188 564 L188 391 L521 391 L521 288 L188 288 L188 103 L528 103 L528 0 L71 0 L71 667 Z M162 867 L228 867 L306 770 L380 867 L447 867 L354 723 L258 723 L162 867 Z " />
<glyph glyph-name="uni1EB8" unicode="&#x1eb8;" horiz-adv-x="577" d="M71 667 L528 667 L528 564 L188 564 L188 391 L521 391 L521 288 L188 288 L188 103 L528 103 L528 0 L71 0 L71 667 Z M247 -118 Q247 -94 264.5 -76.5 Q282 -59 306 -59 Q330 -59 347 -76.5 Q364 -94 364 -118 Q364 -143 347 -160 Q330 -177 306 -177 Q282 -177 264.5 -160 Q247 -143 247 -118 Z " />
<glyph glyph-name="uni1EBA" unicode="&#x1eba;" horiz-adv-x="577" d="M71 667 L528 667 L528 564 L188 564 L188 391 L521 391 L521 288 L188 288 L188 103 L528 103 L528 0 L71 0 L71 667 Z M199 811 Q210 845 236.5 864 Q263 883 299 883 Q341 883 369 860 Q397 837 397 791 Q397 772 391.5 757 Q386 742 375 724 L313 724 Q340 754 340 789 Q340 811 328.5 822.5 Q317 834 299 834 Q265 834 251 795 L199 811 Z " />
<glyph glyph-name="uni1EBC" unicode="&#x1ebc;" horiz-adv-x="577" d="M71 667 L528 667 L528 564 L188 564 L188 391 L521 391 L521 288 L188 288 L188 103 L528 103 L528 0 L71 0 L71 667 Z M288 767 Q276 783 266.5 791 Q257 799 245 799 Q227 799 215 781 Q203 763 203 727 L146 727 Q146 789 172.5 825 Q199 861 249 861 Q275 861 291 849 Q307 837 324 815 Q338 798 347 790.5 Q356 783 368 783 Q386 783 397.5 801 Q409 819 409 855 L467 855 Q467 793 440.5 757 Q414 721 364 721 Q338 721 321.5 733 Q305 745 288 767 Z " />
<glyph glyph-name="uni1EBE" unicode="&#x1ebe;" horiz-adv-x="577" d="M419 780 L559 888 L659 888 L494 780 L419 780 Z M306 777 L231 705 L165 705 L258 813 L354 813 L450 705 L383 705 L306 777 Z M71 667 L528 667 L528 564 L188 564 L188 391 L521 391 L521 288 L188 288 L188 103 L528 103 L528 0 L71 0 L71 667 Z " />
<glyph glyph-name="uni1EC0" unicode="&#x1ec0;" horiz-adv-x="577" d="M-42 888 L58 888 L198 780 L123 780 L-42 888 Z M306 777 L231 705 L165 705 L258 813 L354 813 L450 705 L383 705 L306 777 Z M71 667 L528 667 L528 564 L188 564 L188 391 L521 391 L521 288 L188 288 L188 103 L528 103 L528 0 L71 0 L71 667 Z " />
<glyph glyph-name="uni1EC2" unicode="&#x1ec2;" horiz-adv-x="577" d="M305 845 Q316 870 342.5 884.5 Q369 899 405 899 Q447 899 475 882 Q503 865 503 830 Q503 816 497.5 804.5 Q492 793 481 780 L419 780 Q446 803 446 829 Q446 845 434.5 853.5 Q423 862 405 862 Q371 862 357 833 L305 845 Z M306 777 L231 705 L165 705 L258 813 L354 813 L450 705 L383 705 L306 777 Z M71 667 L528 667 L528 564 L188 564 L188 391 L521 391 L521 288 L188 288 L188 103 L528 103 L528 0 L71 0 L71 667 Z " />
<glyph glyph-name="uni1EC4" unicode="&#x1ec4;" horiz-adv-x="577" d="M288 859 Q276 871 266.5 877 Q257 883 245 883 Q226 883 214.5 869.5 Q203 856 203 829 L146 829 Q146 876 172.5 903 Q199 930 249 930 Q275 930 291 921 Q307 912 324 895 Q337 883 346.5 877 Q356 871 368 871 Q386 871 397.5 884.5 Q409 898 409 925 L467 925 Q467 879 440.5 852 Q414 825 364 825 Q338 825 321.5 834 Q305 843 288 859 Z M306 777 L231 705 L165 705 L258 813 L354 813 L450 705 L383 705 L306 777 Z M71 667 L528 667 L528 564 L188 564 L188 391 L521 391 L521 288 L188 288 L188 103 L528 103 L528 0 L71 0 L71 667 Z " />
<glyph glyph-name="uni1EC6" unicode="&#x1ec6;" horiz-adv-x="577" d="M71 667 L528 667 L528 564 L188 564 L188 391 L521 391 L521 288 L188 288 L188 103 L528 103 L528 0 L71 0 L71 667 Z M247 -118 Q247 -94 264.5 -76.5 Q282 -59 306 -59 Q330 -59 347 -76.5 Q364 -94 364 -118 Q364 -143 347 -160 Q330 -177 306 -177 Q282 -177 264.5 -160 Q247 -143 247 -118 Z M306 819 L231 723 L165 723 L258 867 L354 867 L450 723 L383 723 L306 819 Z " />
<glyph glyph-name="uni1E1E" unicode="&#x1e1e;" horiz-adv-x="562" d="M71 667 L528 667 L528 564 L188 564 L188 391 L521 391 L521 288 L188 288 L188 0 L71 0 L71 667 Z M245 789 Q245 813 262.5 830.5 Q280 848 304 848 Q328 848 345 830.5 Q362 813 362 789 Q362 764 345 747 Q328 730 304 730 Q280 730 262.5 747 Q245 764 245 789 Z " />
<glyph glyph-name="Gcircumflex" unicode="&#x11c;" horiz-adv-x="717" d="M41 333 Q41 435 87.5 513.5 Q134 592 214 635 Q294 678 391 678 Q482 678 548.5 640 Q615 602 660 539 L564 485 Q536 524 490.5 549 Q445 574 391 574 Q326 574 273.5 543 Q221 512 191 457 Q161 402 161 333 Q161 264 191 209 Q221 154 273.5 122.5 Q326 91 391 91 Q438 91 480.5 109 Q523 127 549 151 L549 255 L350 255 L350 358 L666 358 L666 108 Q614 51 544.5 19 Q475 -13 391 -13 Q294 -13 214 30.5 Q134 74 87.5 152.5 Q41 231 41 333 Z M391 819 L316 723 L250 723 L343 867 L439 867 L535 723 L468 723 L391 819 Z " />
<glyph glyph-name="Gbreve" unicode="&#x11e;" horiz-adv-x="717" d="M41 333 Q41 435 87.5 513.5 Q134 592 214 635 Q294 678 391 678 Q482 678 548.5 640 Q615 602 660 539 L564 485 Q536 524 490.5 549 Q445 574 391 574 Q326 574 273.5 543 Q221 512 191 457 Q161 402 161 333 Q161 264 191 209 Q221 154 273.5 122.5 Q326 91 391 91 Q438 91 480.5 109 Q523 127 549 151 L549 255 L350 255 L350 358 L666 358 L666 108 Q614 51 544.5 19 Q475 -13 391 -13 Q294 -13 214 30.5 Q134 74 87.5 152.5 Q41 231 41 333 Z M391 721 Q338 721 292 744.5 Q246 768 215 809 L263 849 Q285 818 318 800.5 Q351 783 391 783 Q430 783 463 800.5 Q496 818 518 849 L566 809 Q535 768 489.5 744.5 Q444 721 391 721 Z " />
<glyph glyph-name="Gdotaccent" unicode="&#x120;" horiz-adv-x="717" d="M41 333 Q41 435 87.5 513.5 Q134 592 214 635 Q294 678 391 678 Q482 678 548.5 640 Q615 602 660 539 L564 485 Q536 524 490.5 549 Q445 574 391 574 Q326 574 273.5 543 Q221 512 191 457 Q161 402 161 333 Q161 264 191 209 Q221 154 273.5 122.5 Q326 91 391 91 Q438 91 480.5 109 Q523 127 549 151 L549 255 L350 255 L350 358 L666 358 L666 108 Q614 51 544.5 19 Q475 -13 391 -13 Q294 -13 214 30.5 Q134 74 87.5 152.5 Q41 231 41 333 Z M332 -118 Q332 -94 349.5 -76.5 Q367 -59 391 -59 Q415 -59 432 -76.5 Q449 -94 449 -118 Q449 -143 432 -160 Q415 -177 391 -177 Q367 -177 349.5 -160 Q332 -143 332 -118 Z " />
<glyph glyph-name="uni0122" unicode="&#x122;" horiz-adv-x="717" d="M41 333 Q41 435 87.5 513.5 Q134 592 214 635 Q294 678 391 678 Q482 678 548.5 640 Q615 602 660 539 L564 485 Q536 524 490.5 549 Q445 574 391 574 Q326 574 273.5 543 Q221 512 191 457 Q161 402 161 333 Q161 264 191 209 Q221 154 273.5 122.5 Q326 91 391 91 Q438 91 480.5 109 Q523 127 549 151 L549 255 L350 255 L350 358 L666 358 L666 108 Q614 51 544.5 19 Q475 -13 391 -13 Q294 -13 214 30.5 Q134 74 87.5 152.5 Q41 231 41 333 Z M337 -250 Q358 -237 376 -213 Q394 -189 398 -168 Q394 -170 384 -170 Q364 -170 350 -155.5 Q336 -141 336 -119 Q336 -96 352 -79.5 Q368 -63 391 -63 Q417 -63 435.5 -83 Q454 -103 454 -138 Q454 -180 432.5 -218 Q411 -256 376 -281 L337 -250 Z " />
<glyph glyph-name="Hbar" unicode="&#x126;" horiz-adv-x="741" d="M735 496 L661 496 L661 0 L544 0 L544 291 L197 291 L197 0 L80 0 L80 496 L9 496 L9 558 L80 558 L80 667 L197 667 L197 558 L544 558 L544 667 L661 667 L661 558 L735 558 L735 496 Z M544 496 L197 496 L197 394 L544 394 L544 496 Z " />
<glyph glyph-name="Hcircumflex" unicode="&#x124;" horiz-adv-x="723" d="M535 291 L188 291 L188 0 L71 0 L71 667 L188 667 L188 394 L535 394 L535 667 L652 667 L652 0 L535 0 L535 291 Z M362 819 L287 723 L221 723 L314 867 L410 867 L506 723 L439 723 L362 819 Z " />
<glyph glyph-name="uni1E22" unicode="&#x1e22;" horiz-adv-x="723" d="M535 291 L188 291 L188 0 L71 0 L71 667 L188 667 L188 394 L535 394 L535 667 L652 667 L652 0 L535 0 L535 291 Z M303 789 Q303 813 320.5 830.5 Q338 848 362 848 Q386 848 403 830.5 Q420 813 420 789 Q420 764 403 747 Q386 730 362 730 Q338 730 320.5 747 Q303 764 303 789 Z " />
<glyph glyph-name="Iacute" unicode="&#xcd;" horiz-adv-x="259" d="M71 667 L188 667 L188 0 L71 0 L71 667 Z M89 723 L229 867 L329 867 L164 723 L89 723 Z " />
<glyph glyph-name="Ibreve" unicode="&#x12c;" horiz-adv-x="259" d="M71 667 L188 667 L188 0 L71 0 L71 667 Z M130 721 Q77 721 31 744.5 Q-15 768 -46 809 L2 849 Q24 818 57 800.5 Q90 783 130 783 Q169 783 202 800.5 Q235 818 257 849 L305 809 Q274 768 228.5 744.5 Q183 721 130 721 Z " />
<glyph glyph-name="Icircumflex" unicode="&#xce;" horiz-adv-x="259" d="M71 667 L188 667 L188 0 L71 0 L71 667 Z M130 819 L55 723 L-11 723 L82 867 L178 867 L274 723 L207 723 L130 819 Z " />
<glyph glyph-name="Idieresis" unicode="&#xcf;" horiz-adv-x="259" d="M71 667 L188 667 L188 0 L71 0 L71 667 Z M26 731 Q1 731 -16 748 Q-33 765 -33 790 Q-33 814 -16 831 Q1 848 26 848 Q50 848 67 831 Q84 814 84 790 Q84 765 67 748 Q50 731 26 731 Z M235 731 Q211 731 193.5 748 Q176 765 176 790 Q176 814 193.5 831 Q211 848 235 848 Q259 848 276.5 831 Q294 814 294 790 Q294 765 276.5 748 Q259 731 235 731 Z " />
<glyph glyph-name="Idot" unicode="&#x130;" horiz-adv-x="259" d="M71 667 L188 667 L188 0 L71 0 L71 667 Z M71 789 Q71 813 88.5 830.5 Q106 848 130 848 Q154 848 171 830.5 Q188 813 188 789 Q188 764 171 747 Q154 730 130 730 Q106 730 88.5 747 Q71 764 71 789 Z " />
<glyph glyph-name="Igrave" unicode="&#xcc;" horiz-adv-x="259" d="M71 667 L188 667 L188 0 L71 0 L71 667 Z M-73 867 L27 867 L167 723 L92 723 L-73 867 Z " />
<glyph glyph-name="Imacron" unicode="&#x12a;" horiz-adv-x="259" d="M71 667 L188 667 L188 0 L71 0 L71 667 Z M-32 795 L291 795 L291 733 L-32 733 L-32 795 Z " />
<glyph glyph-name="Iogonek" unicode="&#x12e;" horiz-adv-x="259" d="M188 0 Q99 -34 99 -84 Q99 -98 109.5 -106.5 Q120 -115 134 -115 Q150 -115 164 -108 L188 -169 Q160 -186 108 -186 Q64 -186 33 -166 Q2 -146 2 -109 Q2 -76 31.5 -48 Q61 -20 109 0 L71 0 L71 667 L188 667 L188 0 Z " />
<glyph glyph-name="Itilde" unicode="&#x128;" horiz-adv-x="259" d="M71 667 L188 667 L188 0 L71 0 L71 667 Z M112 767 Q100 783 90.5 791 Q81 799 69 799 Q51 799 39 781 Q27 763 27 727 L-30 727 Q-30 789 -3.5 825 Q23 861 73 861 Q99 861 115 849 Q131 837 148 815 Q162 798 171 790.5 Q180 783 192 783 Q210 783 221.5 801 Q233 819 233 855 L291 855 Q291 793 264.5 757 Q238 721 188 721 Q162 721 145.5 733 Q129 745 112 767 Z " />
<glyph glyph-name="uni1EC8" unicode="&#x1ec8;" horiz-adv-x="259" d="M71 667 L188 667 L188 0 L71 0 L71 667 Z M23 811 Q34 845 60.5 864 Q87 883 123 883 Q165 883 193 860 Q221 837 221 791 Q221 772 215.5 757 Q210 742 199 724 L137 724 Q164 754 164 789 Q164 811 152.5 822.5 Q141 834 123 834 Q89 834 75 795 L23 811 Z " />
<glyph glyph-name="uni1ECA" unicode="&#x1eca;" horiz-adv-x="259" d="M71 667 L188 667 L188 0 L71 0 L71 667 Z M71 -118 Q71 -94 88.5 -76.5 Q106 -59 130 -59 Q154 -59 171 -76.5 Q188 -94 188 -118 Q188 -143 171 -160 Q154 -177 130 -177 Q106 -177 88.5 -160 Q71 -143 71 -118 Z " />
<glyph glyph-name="IJ" unicode="&#x132;" horiz-adv-x="740" d="M71 667 L188 667 L188 0 L71 0 L71 667 Z M321 147 Q372 92 435 92 Q489 92 520.5 125 Q552 158 552 213 L552 667 L669 667 L669 211 Q669 101 607 44.5 Q545 -12 444 -12 Q333 -12 267 58 L321 147 Z " />
<glyph glyph-name="Jcircumflex" unicode="&#x134;" horiz-adv-x="481" d="M62 147 Q113 92 176 92 Q230 92 261.5 125 Q293 158 293 213 L293 667 L410 667 L410 211 Q410 101 348 44.5 Q286 -12 185 -12 Q74 -12 8 58 L62 147 Z M354 836 L279 740 L213 740 L306 884 L402 884 L498 740 L431 740 L354 836 Z " />
<glyph glyph-name="uni0136" unicode="&#x136;" horiz-adv-x="621" d="M246 281 L188 213 L188 0 L71 0 L71 667 L188 667 L188 349 L449 667 L594 667 L323 352 L614 0 L470 0 L246 281 Z M260 -250 Q281 -237 299 -213 Q317 -189 321 -168 Q317 -170 307 -170 Q287 -170 273 -155.5 Q259 -141 259 -119 Q259 -96 275 -79.5 Q291 -63 314 -63 Q340 -63 358.5 -83 Q377 -103 377 -138 Q377 -180 355.5 -218 Q334 -256 299 -281 L260 -250 Z " />
<glyph glyph-name="Lacute" unicode="&#x139;" horiz-adv-x="517" d="M71 667 L188 667 L188 103 L482 103 L482 0 L71 0 L71 667 Z M236 723 L376 867 L476 867 L311 723 L236 723 Z " />
<glyph glyph-name="Lcaron" unicode="&#x13d;" horiz-adv-x="517" d="M71 667 L188 667 L188 103 L482 103 L482 0 L71 0 L71 667 Z M275 493 Q296 506 314 530 Q332 554 336 575 Q332 573 322 573 Q302 573 288 587.5 Q274 602 274 624 Q274 647 290 663.5 Q306 680 329 680 Q355 680 373.5 660 Q392 640 392 605 Q392 563 370.5 525 Q349 487 314 462 L275 493 Z " />
<glyph glyph-name="uni013B" unicode="&#x13b;" horiz-adv-x="517" d="M71 667 L188 667 L188 103 L482 103 L482 0 L71 0 L71 667 Z M223 -250 Q244 -237 262 -213 Q280 -189 284 -168 Q280 -170 270 -170 Q250 -170 236 -155.5 Q222 -141 222 -119 Q222 -96 238 -79.5 Q254 -63 277 -63 Q303 -63 321.5 -83 Q340 -103 340 -138 Q340 -180 318.5 -218 Q297 -256 262 -281 L223 -250 Z " />
<glyph glyph-name="Ldot" unicode="&#x13f;" horiz-adv-x="517" d="M71 667 L188 667 L188 103 L482 103 L482 0 L71 0 L71 667 Z M385 272 Q357 272 336 292.5 Q315 313 315 341 Q315 370 336 390.5 Q357 411 385 411 Q414 411 434.5 390.5 Q455 370 455 341 Q455 313 434 292.5 Q413 272 385 272 Z " />
<glyph glyph-name="Lslash" unicode="&#x141;" horiz-adv-x="533" d="M498 103 L498 0 L87 0 L87 249 L9 204 L9 301 L87 346 L87 667 L204 667 L204 414 L289 463 L289 366 L204 317 L204 103 L498 103 Z " />
<glyph glyph-name="Nacute" unicode="&#x143;" horiz-adv-x="720" d="M188 486 L188 0 L71 0 L71 667 L191 667 L532 194 L532 667 L649 667 L649 0 L536 0 L188 486 Z M319 723 L459 867 L559 867 L394 723 L319 723 Z " />
<glyph glyph-name="Ncaron" unicode="&#x147;" horiz-adv-x="720" d="M188 486 L188 0 L71 0 L71 667 L191 667 L532 194 L532 667 L649 667 L649 0 L536 0 L188 486 Z M216 867 L282 867 L360 770 L434 867 L501 867 L408 723 L312 723 L216 867 Z " />
<glyph glyph-name="uni0145" unicode="&#x145;" horiz-adv-x="720" d="M188 486 L188 0 L71 0 L71 667 L191 667 L532 194 L532 667 L649 667 L649 0 L536 0 L188 486 Z M306 -250 Q327 -237 345 -213 Q363 -189 367 -168 Q363 -170 353 -170 Q333 -170 319 -155.5 Q305 -141 305 -119 Q305 -96 321 -79.5 Q337 -63 360 -63 Q386 -63 404.5 -83 Q423 -103 423 -138 Q423 -180 401.5 -218 Q380 -256 345 -281 L306 -250 Z " />
<glyph glyph-name="Ntilde" unicode="&#xd1;" horiz-adv-x="720" d="M188 486 L188 0 L71 0 L71 667 L191 667 L532 194 L532 667 L649 667 L649 0 L536 0 L188 486 Z M342 767 Q330 783 320.5 791 Q311 799 299 799 Q281 799 269 781 Q257 763 257 727 L200 727 Q200 789 226.5 825 Q253 861 303 861 Q329 861 345 849 Q361 837 378 815 Q392 798 401 790.5 Q410 783 422 783 Q440 783 451.5 801 Q463 819 463 855 L521 855 Q521 793 494.5 757 Q468 721 418 721 Q392 721 375.5 733 Q359 745 342 767 Z " />
<glyph glyph-name="Eng" unicode="&#x14a;" horiz-adv-x="720" d="M649 667 L649 26 Q649 -84 587.5 -140 Q526 -196 424 -196 Q313 -196 246 -126 L301 -37 Q350 -92 415 -92 Q463 -92 494 -65 Q525 -38 531 8 L188 486 L188 0 L71 0 L71 667 L191 667 L532 194 L532 667 L649 667 Z " />
<glyph glyph-name="Oacute" unicode="&#xd3;" horiz-adv-x="765" d="M41 333 Q41 431 84.5 510 Q128 589 205.5 633.5 Q283 678 382 678 Q481 678 558.5 633.5 Q636 589 679.5 510 Q723 431 723 333 Q723 235 679.5 156 Q636 77 558.5 32.5 Q481 -12 382 -12 Q283 -12 205.5 32.5 Q128 77 84.5 156 Q41 235 41 333 Z M603 333 Q603 402 575.5 457 Q548 512 498 543 Q448 574 382 574 Q316 574 266 543 Q216 512 188.5 457 Q161 402 161 333 Q161 265 188.5 210 Q216 155 266 123.5 Q316 92 382 92 Q448 92 498 123.5 Q548 155 575.5 210 Q603 265 603 333 Z M340 723 L480 867 L580 867 L415 723 L340 723 Z " />
<glyph glyph-name="Obreve" unicode="&#x14e;" horiz-adv-x="765" d="M41 333 Q41 431 84.5 510 Q128 589 205.5 633.5 Q283 678 382 678 Q481 678 558.5 633.5 Q636 589 679.5 510 Q723 431 723 333 Q723 235 679.5 156 Q636 77 558.5 32.5 Q481 -12 382 -12 Q283 -12 205.5 32.5 Q128 77 84.5 156 Q41 235 41 333 Z M603 333 Q603 402 575.5 457 Q548 512 498 543 Q448 574 382 574 Q316 574 266 543 Q216 512 188.5 457 Q161 402 161 333 Q161 265 188.5 210 Q216 155 266 123.5 Q316 92 382 92 Q448 92 498 123.5 Q548 155 575.5 210 Q603 265 603 333 Z M381 721 Q328 721 282 744.5 Q236 768 205 809 L253 849 Q275 818 308 800.5 Q341 783 381 783 Q420 783 453 800.5 Q486 818 508 849 L556 809 Q525 768 479.5 744.5 Q434 721 381 721 Z " />
<glyph glyph-name="Ocircumflex" unicode="&#xd4;" horiz-adv-x="765" d="M41 333 Q41 431 84.5 510 Q128 589 205.5 633.5 Q283 678 382 678 Q481 678 558.5 633.5 Q636 589 679.5 510 Q723 431 723 333 Q723 235 679.5 156 Q636 77 558.5 32.5 Q481 -12 382 -12 Q283 -12 205.5 32.5 Q128 77 84.5 156 Q41 235 41 333 Z M603 333 Q603 402 575.5 457 Q548 512 498 543 Q448 574 382 574 Q316 574 266 543 Q216 512 188.5 457 Q161 402 161 333 Q161 265 188.5 210 Q216 155 266 123.5 Q316 92 382 92 Q448 92 498 123.5 Q548 155 575.5 210 Q603 265 603 333 Z M381 819 L306 723 L240 723 L333 867 L429 867 L525 723 L458 723 L381 819 Z " />
<glyph glyph-name="Odieresis" unicode="&#xd6;" horiz-adv-x="765" d="M41 333 Q41 431 84.5 510 Q128 589 205.5 633.5 Q283 678 382 678 Q481 678 558.5 633.5 Q636 589 679.5 510 Q723 431 723 333 Q723 235 679.5 156 Q636 77 558.5 32.5 Q481 -12 382 -12 Q283 -12 205.5 32.5 Q128 77 84.5 156 Q41 235 41 333 Z M603 333 Q603 402 575.5 457 Q548 512 498 543 Q448 574 382 574 Q316 574 266 543 Q216 512 188.5 457 Q161 402 161 333 Q161 265 188.5 210 Q216 155 266 123.5 Q316 92 382 92 Q448 92 498 123.5 Q548 155 575.5 210 Q603 265 603 333 Z M277 731 Q252 731 235 748 Q218 765 218 790 Q218 814 235 831 Q252 848 277 848 Q301 848 318 831 Q335 814 335 790 Q335 765 318 748 Q301 731 277 731 Z M486 731 Q462 731 444.5 748 Q427 765 427 790 Q427 814 444.5 831 Q462 848 486 848 Q510 848 527.5 831 Q545 814 545 790 Q545 765 527.5 748 Q510 731 486 731 Z " />
<glyph glyph-name="Ograve" unicode="&#xd2;" horiz-adv-x="765" d="M41 333 Q41 431 84.5 510 Q128 589 205.5 633.5 Q283 678 382 678 Q481 678 558.5 633.5 Q636 589 679.5 510 Q723 431 723 333 Q723 235 679.5 156 Q636 77 558.5 32.5 Q481 -12 382 -12 Q283 -12 205.5 32.5 Q128 77 84.5 156 Q41 235 41 333 Z M603 333 Q603 402 575.5 457 Q548 512 498 543 Q448 574 382 574 Q316 574 266 543 Q216 512 188.5 457 Q161 402 161 333 Q161 265 188.5 210 Q216 155 266 123.5 Q316 92 382 92 Q448 92 498 123.5 Q548 155 575.5 210 Q603 265 603 333 Z M178 867 L278 867 L418 723 L343 723 L178 867 Z " />
<glyph glyph-name="Ohungarumlaut" unicode="&#x150;" horiz-adv-x="765" d="M41 333 Q41 431 84.5 510 Q128 589 205.5 633.5 Q283 678 382 678 Q481 678 558.5 633.5 Q636 589 679.5 510 Q723 431 723 333 Q723 235 679.5 156 Q636 77 558.5 32.5 Q481 -12 382 -12 Q283 -12 205.5 32.5 Q128 77 84.5 156 Q41 235 41 333 Z M603 333 Q603 402 575.5 457 Q548 512 498 543 Q448 574 382 574 Q316 574 266 543 Q216 512 188.5 457 Q161 402 161 333 Q161 265 188.5 210 Q216 155 266 123.5 Q316 92 382 92 Q448 92 498 123.5 Q548 155 575.5 210 Q603 265 603 333 Z M273 723 L363 867 L451 867 L336 723 L273 723 Z M419 723 L509 867 L597 867 L482 723 L419 723 Z " />
<glyph glyph-name="Omacron" unicode="&#x14c;" horiz-adv-x="765" d="M41 333 Q41 431 84.5 510 Q128 589 205.5 633.5 Q283 678 382 678 Q481 678 558.5 633.5 Q636 589 679.5 510 Q723 431 723 333 Q723 235 679.5 156 Q636 77 558.5 32.5 Q481 -12 382 -12 Q283 -12 205.5 32.5 Q128 77 84.5 156 Q41 235 41 333 Z M603 333 Q603 402 575.5 457 Q548 512 498 543 Q448 574 382 574 Q316 574 266 543 Q216 512 188.5 457 Q161 402 161 333 Q161 265 188.5 210 Q216 155 266 123.5 Q316 92 382 92 Q448 92 498 123.5 Q548 155 575.5 210 Q603 265 603 333 Z M219 795 L542 795 L542 733 L219 733 L219 795 Z " />
<glyph glyph-name="Oslash" unicode="&#xd8;" horiz-adv-x="765" d="M610 597 Q664 550 693.5 482 Q723 414 723 333 Q723 235 679.5 156 Q636 77 558.5 32.5 Q481 -12 382 -12 Q284 -12 203 34 L178 0 L91 0 L146 76 Q96 123 68.5 189 Q41 255 41 333 Q41 431 84.5 510 Q128 589 205.5 633.5 Q283 678 382 678 Q475 678 552 637 L574 667 L661 667 L610 597 Z M161 333 Q161 285 174.5 243.5 Q188 202 214 170 L488 548 Q442 574 382 574 Q316 574 266 543 Q216 512 188.5 457 Q161 402 161 333 Z M382 92 Q448 92 498 123.5 Q548 155 575.5 210 Q603 265 603 333 Q603 384 587.5 428 Q572 472 543 505 L267 123 Q317 92 382 92 Z " />
<glyph glyph-name="Oslashacute" unicode="&#x1fe;" horiz-adv-x="765" d="M397 723 L322 723 L462 867 L562 867 L397 723 Z M610 597 Q664 550 693.5 482 Q723 414 723 333 Q723 235 679.5 156 Q636 77 558.5 32.5 Q481 -12 382 -12 Q284 -12 203 34 L178 0 L91 0 L146 76 Q96 123 68.5 189 Q41 255 41 333 Q41 431 84.5 510 Q128 589 205.5 633.5 Q283 678 382 678 Q475 678 552 637 L574 667 L661 667 L610 597 Z M161 333 Q161 285 174.5 243.5 Q188 202 214 170 L488 548 Q442 574 382 574 Q316 574 266 543 Q216 512 188.5 457 Q161 402 161 333 Z M382 92 Q448 92 498 123.5 Q548 155 575.5 210 Q603 265 603 333 Q603 384 587.5 428 Q572 472 543 505 L267 123 Q317 92 382 92 Z " />
<glyph glyph-name="Otilde" unicode="&#xd5;" horiz-adv-x="765" d="M41 333 Q41 431 84.5 510 Q128 589 205.5 633.5 Q283 678 382 678 Q481 678 558.5 633.5 Q636 589 679.5 510 Q723 431 723 333 Q723 235 679.5 156 Q636 77 558.5 32.5 Q481 -12 382 -12 Q283 -12 205.5 32.5 Q128 77 84.5 156 Q41 235 41 333 Z M603 333 Q603 402 575.5 457 Q548 512 498 543 Q448 574 382 574 Q316 574 266 543 Q216 512 188.5 457 Q161 402 161 333 Q161 265 188.5 210 Q216 155 266 123.5 Q316 92 382 92 Q448 92 498 123.5 Q548 155 575.5 210 Q603 265 603 333 Z M363 767 Q351 783 341.5 791 Q332 799 320 799 Q302 799 290 781 Q278 763 278 727 L221 727 Q221 789 247.5 825 Q274 861 324 861 Q350 861 366 849 Q382 837 399 815 Q413 798 422 790.5 Q431 783 443 783 Q461 783 472.5 801 Q484 819 484 855 L542 855 Q542 793 515.5 757 Q489 721 439 721 Q413 721 396.5 733 Q380 745 363 767 Z " />
<glyph glyph-name="uni1ECC" unicode="&#x1ecc;" horiz-adv-x="765" d="M41 333 Q41 431 84.5 510 Q128 589 205.5 633.5 Q283 678 382 678 Q481 678 558.5 633.5 Q636 589 679.5 510 Q723 431 723 333 Q723 235 679.5 156 Q636 77 558.5 32.5 Q481 -12 382 -12 Q283 -12 205.5 32.5 Q128 77 84.5 156 Q41 235 41 333 Z M603 333 Q603 402 575.5 457 Q548 512 498 543 Q448 574 382 574 Q316 574 266 543 Q216 512 188.5 457 Q161 402 161 333 Q161 265 188.5 210 Q216 155 266 123.5 Q316 92 382 92 Q448 92 498 123.5 Q548 155 575.5 210 Q603 265 603 333 Z M322 -118 Q322 -94 339.5 -76.5 Q357 -59 381 -59 Q405 -59 422 -76.5 Q439 -94 439 -118 Q439 -143 422 -160 Q405 -177 381 -177 Q357 -177 339.5 -160 Q322 -143 322 -118 Z " />
<glyph glyph-name="uni1ECE" unicode="&#x1ece;" horiz-adv-x="765" d="M41 333 Q41 431 84.5 510 Q128 589 205.5 633.5 Q283 678 382 678 Q481 678 558.5 633.5 Q636 589 679.5 510 Q723 431 723 333 Q723 235 679.5 156 Q636 77 558.5 32.5 Q481 -12 382 -12 Q283 -12 205.5 32.5 Q128 77 84.5 156 Q41 235 41 333 Z M603 333 Q603 402 575.5 457 Q548 512 498 543 Q448 574 382 574 Q316 574 266 543 Q216 512 188.5 457 Q161 402 161 333 Q161 265 188.5 210 Q216 155 266 123.5 Q316 92 382 92 Q448 92 498 123.5 Q548 155 575.5 210 Q603 265 603 333 Z M274 811 Q285 845 311.5 864 Q338 883 374 883 Q416 883 444 860 Q472 837 472 791 Q472 772 466.5 757 Q461 742 450 724 L388 724 Q415 754 415 789 Q415 811 403.5 822.5 Q392 834 374 834 Q340 834 326 795 L274 811 Z " />
<glyph glyph-name="uni1ED0" unicode="&#x1ed0;" horiz-adv-x="765" d="M494 780 L634 888 L734 888 L569 780 L494 780 Z M381 777 L306 705 L240 705 L333 813 L429 813 L525 705 L458 705 L381 777 Z M41 333 Q41 431 84.5 510 Q128 589 205.5 633.5 Q283 678 382 678 Q481 678 558.5 633.5 Q636 589 679.5 510 Q723 431 723 333 Q723 235 679.5 156 Q636 77 558.5 32.5 Q481 -12 382 -12 Q283 -12 205.5 32.5 Q128 77 84.5 156 Q41 235 41 333 Z M603 333 Q603 402 575.5 457 Q548 512 498 543 Q448 574 382 574 Q316 574 266 543 Q216 512 188.5 457 Q161 402 161 333 Q161 265 188.5 210 Q216 155 266 123.5 Q316 92 382 92 Q448 92 498 123.5 Q548 155 575.5 210 Q603 265 603 333 Z " />
<glyph glyph-name="uni1ED2" unicode="&#x1ed2;" horiz-adv-x="765" d="M33 888 L133 888 L273 780 L198 780 L33 888 Z M381 777 L306 705 L240 705 L333 813 L429 813 L525 705 L458 705 L381 777 Z M41 333 Q41 431 84.5 510 Q128 589 205.5 633.5 Q283 678 382 678 Q481 678 558.5 633.5 Q636 589 679.5 510 Q723 431 723 333 Q723 235 679.5 156 Q636 77 558.5 32.5 Q481 -12 382 -12 Q283 -12 205.5 32.5 Q128 77 84.5 156 Q41 235 41 333 Z M603 333 Q603 402 575.5 457 Q548 512 498 543 Q448 574 382 574 Q316 574 266 543 Q216 512 188.5 457 Q161 402 161 333 Q161 265 188.5 210 Q216 155 266 123.5 Q316 92 382 92 Q448 92 498 123.5 Q548 155 575.5 210 Q603 265 603 333 Z " />
<glyph glyph-name="uni1ED4" unicode="&#x1ed4;" horiz-adv-x="765" d="M380 845 Q391 870 417.5 884.5 Q444 899 480 899 Q522 899 550 882 Q578 865 578 830 Q578 816 572.5 804.5 Q567 793 556 780 L494 780 Q521 803 521 829 Q521 845 509.5 853.5 Q498 862 480 862 Q446 862 432 833 L380 845 Z M381 777 L306 705 L240 705 L333 813 L429 813 L525 705 L458 705 L381 777 Z M41 333 Q41 431 84.5 510 Q128 589 205.5 633.5 Q283 678 382 678 Q481 678 558.5 633.5 Q636 589 679.5 510 Q723 431 723 333 Q723 235 679.5 156 Q636 77 558.5 32.5 Q481 -12 382 -12 Q283 -12 205.5 32.5 Q128 77 84.5 156 Q41 235 41 333 Z M603 333 Q603 402 575.5 457 Q548 512 498 543 Q448 574 382 574 Q316 574 266 543 Q216 512 188.5 457 Q161 402 161 333 Q161 265 188.5 210 Q216 155 266 123.5 Q316 92 382 92 Q448 92 498 123.5 Q548 155 575.5 210 Q603 265 603 333 Z " />
<glyph glyph-name="uni1ED6" unicode="&#x1ed6;" horiz-adv-x="765" d="M363 859 Q351 871 341.5 877 Q332 883 320 883 Q301 883 289.5 869.5 Q278 856 278 829 L221 829 Q221 876 247.5 903 Q274 930 324 930 Q350 930 366 921 Q382 912 399 895 Q412 883 421.5 877 Q431 871 443 871 Q461 871 472.5 884.5 Q484 898 484 925 L542 925 Q542 879 515.5 852 Q489 825 439 825 Q413 825 396.5 834 Q380 843 363 859 Z M381 777 L306 705 L240 705 L333 813 L429 813 L525 705 L458 705 L381 777 Z M41 333 Q41 431 84.5 510 Q128 589 205.5 633.5 Q283 678 382 678 Q481 678 558.5 633.5 Q636 589 679.5 510 Q723 431 723 333 Q723 235 679.5 156 Q636 77 558.5 32.5 Q481 -12 382 -12 Q283 -12 205.5 32.5 Q128 77 84.5 156 Q41 235 41 333 Z M603 333 Q603 402 575.5 457 Q548 512 498 543 Q448 574 382 574 Q316 574 266 543 Q216 512 188.5 457 Q161 402 161 333 Q161 265 188.5 210 Q216 155 266 123.5 Q316 92 382 92 Q448 92 498 123.5 Q548 155 575.5 210 Q603 265 603 333 Z " />
<glyph glyph-name="uni1ED8" unicode="&#x1ed8;" horiz-adv-x="765" d="M41 333 Q41 431 84.5 510 Q128 589 205.5 633.5 Q283 678 382 678 Q481 678 558.5 633.5 Q636 589 679.5 510 Q723 431 723 333 Q723 235 679.5 156 Q636 77 558.5 32.5 Q481 -12 382 -12 Q283 -12 205.5 32.5 Q128 77 84.5 156 Q41 235 41 333 Z M603 333 Q603 402 575.5 457 Q548 512 498 543 Q448 574 382 574 Q316 574 266 543 Q216 512 188.5 457 Q161 402 161 333 Q161 265 188.5 210 Q216 155 266 123.5 Q316 92 382 92 Q448 92 498 123.5 Q548 155 575.5 210 Q603 265 603 333 Z M322 -118 Q322 -94 339.5 -76.5 Q357 -59 381 -59 Q405 -59 422 -76.5 Q439 -94 439 -118 Q439 -143 422 -160 Q405 -177 381 -177 Q357 -177 339.5 -160 Q322 -143 322 -118 Z M381 819 L306 723 L240 723 L333 867 L429 867 L525 723 L458 723 L381 819 Z " />
<glyph glyph-name="Ohorn" unicode="&#x1a0;" horiz-adv-x="765" d="M732 665 Q732 627 713.5 592.5 Q695 558 664 535 Q723 448 723 333 Q723 235 679.5 156 Q636 77 558.5 32.5 Q481 -12 382 -12 Q283 -12 205.5 32.5 Q128 77 84.5 156 Q41 235 41 333 Q41 431 84.5 510 Q128 589 205.5 633.5 Q283 678 382 678 Q460 678 525.5 649.5 Q591 621 637 570 Q654 583 666.5 602 Q679 621 682 638 Q678 636 669 636 Q650 636 637.5 649.5 Q625 663 625 683 Q625 704 639.5 719 Q654 734 675 734 Q699 734 715.5 715.5 Q732 697 732 665 Z M382 92 Q448 92 498 123.5 Q548 155 575.5 210 Q603 265 603 333 Q603 402 575.5 457 Q548 512 498 543 Q448 574 382 574 Q316 574 266 543 Q216 512 188.5 457 Q161 402 161 333 Q161 265 188.5 210 Q216 155 266 123.5 Q316 92 382 92 Z " />
<glyph glyph-name="uni1EDA" unicode="&#x1eda;" horiz-adv-x="765" d="M732 665 Q732 627 713.5 592.5 Q695 558 664 535 Q723 448 723 333 Q723 235 679.5 156 Q636 77 558.5 32.5 Q481 -12 382 -12 Q283 -12 205.5 32.5 Q128 77 84.5 156 Q41 235 41 333 Q41 431 84.5 510 Q128 589 205.5 633.5 Q283 678 382 678 Q460 678 525.5 649.5 Q591 621 637 570 Q654 583 666.5 602 Q679 621 682 638 Q678 636 669 636 Q650 636 637.5 649.5 Q625 663 625 683 Q625 704 639.5 719 Q654 734 675 734 Q699 734 715.5 715.5 Q732 697 732 665 Z M382 92 Q448 92 498 123.5 Q548 155 575.5 210 Q603 265 603 333 Q603 402 575.5 457 Q548 512 498 543 Q448 574 382 574 Q316 574 266 543 Q216 512 188.5 457 Q161 402 161 333 Q161 265 188.5 210 Q216 155 266 123.5 Q316 92 382 92 Z M340 723 L480 867 L580 867 L415 723 L340 723 Z " />
<glyph glyph-name="uni1EDC" unicode="&#x1edc;" horiz-adv-x="765" d="M732 665 Q732 627 713.5 592.5 Q695 558 664 535 Q723 448 723 333 Q723 235 679.5 156 Q636 77 558.5 32.5 Q481 -12 382 -12 Q283 -12 205.5 32.5 Q128 77 84.5 156 Q41 235 41 333 Q41 431 84.5 510 Q128 589 205.5 633.5 Q283 678 382 678 Q460 678 525.5 649.5 Q591 621 637 570 Q654 583 666.5 602 Q679 621 682 638 Q678 636 669 636 Q650 636 637.5 649.5 Q625 663 625 683 Q625 704 639.5 719 Q654 734 675 734 Q699 734 715.5 715.5 Q732 697 732 665 Z M382 92 Q448 92 498 123.5 Q548 155 575.5 210 Q603 265 603 333 Q603 402 575.5 457 Q548 512 498 543 Q448 574 382 574 Q316 574 266 543 Q216 512 188.5 457 Q161 402 161 333 Q161 265 188.5 210 Q216 155 266 123.5 Q316 92 382 92 Z M178 867 L278 867 L418 723 L343 723 L178 867 Z " />
<glyph glyph-name="uni1EDE" unicode="&#x1ede;" horiz-adv-x="765" d="M732 665 Q732 627 713.5 592.5 Q695 558 664 535 Q723 448 723 333 Q723 235 679.5 156 Q636 77 558.5 32.5 Q481 -12 382 -12 Q283 -12 205.5 32.5 Q128 77 84.5 156 Q41 235 41 333 Q41 431 84.5 510 Q128 589 205.5 633.5 Q283 678 382 678 Q460 678 525.5 649.5 Q591 621 637 570 Q654 583 666.5 602 Q679 621 682 638 Q678 636 669 636 Q650 636 637.5 649.5 Q625 663 625 683 Q625 704 639.5 719 Q654 734 675 734 Q699 734 715.5 715.5 Q732 697 732 665 Z M382 92 Q448 92 498 123.5 Q548 155 575.5 210 Q603 265 603 333 Q603 402 575.5 457 Q548 512 498 543 Q448 574 382 574 Q316 574 266 543 Q216 512 188.5 457 Q161 402 161 333 Q161 265 188.5 210 Q216 155 266 123.5 Q316 92 382 92 Z M274 811 Q285 845 311.5 864 Q338 883 374 883 Q416 883 444 860 Q472 837 472 791 Q472 772 466.5 757 Q461 742 450 724 L388 724 Q415 754 415 789 Q415 811 403.5 822.5 Q392 834 374 834 Q340 834 326 795 L274 811 Z " />
<glyph glyph-name="uni1EE0" unicode="&#x1ee0;" horiz-adv-x="765" d="M732 665 Q732 627 713.5 592.5 Q695 558 664 535 Q723 448 723 333 Q723 235 679.5 156 Q636 77 558.5 32.5 Q481 -12 382 -12 Q283 -12 205.5 32.5 Q128 77 84.5 156 Q41 235 41 333 Q41 431 84.5 510 Q128 589 205.5 633.5 Q283 678 382 678 Q460 678 525.5 649.5 Q591 621 637 570 Q654 583 666.5 602 Q679 621 682 638 Q678 636 669 636 Q650 636 637.5 649.5 Q625 663 625 683 Q625 704 639.5 719 Q654 734 675 734 Q699 734 715.5 715.5 Q732 697 732 665 Z M382 92 Q448 92 498 123.5 Q548 155 575.5 210 Q603 265 603 333 Q603 402 575.5 457 Q548 512 498 543 Q448 574 382 574 Q316 574 266 543 Q216 512 188.5 457 Q161 402 161 333 Q161 265 188.5 210 Q216 155 266 123.5 Q316 92 382 92 Z M363 767 Q351 783 341.5 791 Q332 799 320 799 Q302 799 290 781 Q278 763 278 727 L221 727 Q221 789 247.5 825 Q274 861 324 861 Q350 861 366 849 Q382 837 399 815 Q413 798 422 790.5 Q431 783 443 783 Q461 783 472.5 801 Q484 819 484 855 L542 855 Q542 793 515.5 757 Q489 721 439 721 Q413 721 396.5 733 Q380 745 363 767 Z " />
<glyph glyph-name="uni1EE2" unicode="&#x1ee2;" horiz-adv-x="765" d="M732 665 Q732 627 713.5 592.5 Q695 558 664 535 Q723 448 723 333 Q723 235 679.5 156 Q636 77 558.5 32.5 Q481 -12 382 -12 Q283 -12 205.5 32.5 Q128 77 84.5 156 Q41 235 41 333 Q41 431 84.5 510 Q128 589 205.5 633.5 Q283 678 382 678 Q460 678 525.5 649.5 Q591 621 637 570 Q654 583 666.5 602 Q679 621 682 638 Q678 636 669 636 Q650 636 637.5 649.5 Q625 663 625 683 Q625 704 639.5 719 Q654 734 675 734 Q699 734 715.5 715.5 Q732 697 732 665 Z M382 92 Q448 92 498 123.5 Q548 155 575.5 210 Q603 265 603 333 Q603 402 575.5 457 Q548 512 498 543 Q448 574 382 574 Q316 574 266 543 Q216 512 188.5 457 Q161 402 161 333 Q161 265 188.5 210 Q216 155 266 123.5 Q316 92 382 92 Z M322 -118 Q322 -94 339.5 -76.5 Q357 -59 381 -59 Q405 -59 422 -76.5 Q439 -94 439 -118 Q439 -143 422 -160 Q405 -177 381 -177 Q357 -177 339.5 -160 Q322 -143 322 -118 Z " />
<glyph glyph-name="OE" unicode="&#x152;" horiz-adv-x="1093" d="M588 96 Q554 44 494.5 16 Q435 -12 371 -12 Q275 -12 200 32.5 Q125 77 83 155.5 Q41 234 41 333 Q41 432 83 510.5 Q125 589 200 633 Q275 677 371 677 Q435 677 494.5 649 Q554 621 588 570 L588 667 L1045 667 L1045 564 L705 564 L705 391 L1038 391 L1038 288 L705 288 L705 103 L1045 103 L1045 0 L588 0 L588 96 Z M588 439 Q562 504 509 538.5 Q456 573 386 573 Q318 573 267 542 Q216 511 188.5 456.5 Q161 402 161 333 Q161 264 188.5 209 Q216 154 267 123 Q318 92 386 92 Q455 92 508.5 127 Q562 162 588 227 L588 439 Z " />
<glyph glyph-name="uni1E56" unicode="&#x1e56;" horiz-adv-x="608" d="M71 667 L364 667 Q432 667 481 639 Q530 611 556 563 Q582 515 582 458 Q582 401 556 353 Q530 305 480.5 277 Q431 249 364 249 L188 249 L188 0 L71 0 L71 667 Z M462 458 Q462 506 430 535 Q398 564 348 564 L188 564 L188 352 L348 352 Q398 352 430 381 Q462 410 462 458 Z M255 789 Q255 813 272.5 830.5 Q290 848 314 848 Q338 848 355 830.5 Q372 813 372 789 Q372 764 355 747 Q338 730 314 730 Q290 730 272.5 747 Q255 764 255 789 Z " />
<glyph glyph-name="Racute" unicode="&#x154;" horiz-adv-x="628" d="M304 249 L188 249 L188 0 L71 0 L71 667 L364 667 Q429 667 478.5 640.5 Q528 614 555 566.5 Q582 519 582 458 Q582 374 536 323.5 Q490 273 424 262 L587 0 L452 0 L304 249 Z M462 458 Q462 506 430 535 Q398 564 348 564 L188 564 L188 352 L348 352 Q398 352 430 381 Q462 410 462 458 Z M273 723 L413 867 L513 867 L348 723 L273 723 Z " />
<glyph glyph-name="Rcaron" unicode="&#x158;" horiz-adv-x="628" d="M304 249 L188 249 L188 0 L71 0 L71 667 L364 667 Q429 667 478.5 640.5 Q528 614 555 566.5 Q582 519 582 458 Q582 374 536 323.5 Q490 273 424 262 L587 0 L452 0 L304 249 Z M462 458 Q462 506 430 535 Q398 564 348 564 L188 564 L188 352 L348 352 Q398 352 430 381 Q462 410 462 458 Z M170 867 L236 867 L314 770 L388 867 L455 867 L362 723 L266 723 L170 867 Z " />
<glyph glyph-name="uni0156" unicode="&#x156;" horiz-adv-x="628" d="M304 249 L188 249 L188 0 L71 0 L71 667 L364 667 Q429 667 478.5 640.5 Q528 614 555 566.5 Q582 519 582 458 Q582 374 536 323.5 Q490 273 424 262 L587 0 L452 0 L304 249 Z M462 458 Q462 506 430 535 Q398 564 348 564 L188 564 L188 352 L348 352 Q398 352 430 381 Q462 410 462 458 Z M260 -250 Q281 -237 299 -213 Q317 -189 321 -168 Q317 -170 307 -170 Q287 -170 273 -155.5 Q259 -141 259 -119 Q259 -96 275 -79.5 Q291 -63 314 -63 Q340 -63 358.5 -83 Q377 -103 377 -138 Q377 -180 355.5 -218 Q334 -256 299 -281 L260 -250 Z " />
<glyph glyph-name="Sacute" unicode="&#x15a;" horiz-adv-x="594" d="M93 184 Q131 143 185 117.5 Q239 92 304 92 Q371 92 404.5 119 Q438 146 438 183 Q438 211 418.5 229 Q399 247 369 257.5 Q339 268 286 282 Q211 300 164 319 Q117 338 83 377.5 Q49 417 49 482 Q49 537 79.5 581.5 Q110 626 165.5 651.5 Q221 677 292 677 Q446 677 542 584 L475 497 Q437 535 386.5 554 Q336 573 282 573 Q230 573 199.5 550.5 Q169 528 169 490 Q169 466 188 450 Q207 434 235.5 424 Q264 414 316 401 Q391 382 439.5 362 Q488 342 522.5 301.5 Q557 261 557 194 Q557 136 529 89.5 Q501 43 443 15.5 Q385 -12 299 -12 Q210 -12 142.5 16 Q75 44 28 94 L93 184 Z M251 723 L391 867 L491 867 L326 723 L251 723 Z " />
<glyph glyph-name="Scaron" unicode="&#x160;" horiz-adv-x="594" d="M93 184 Q131 143 185 117.5 Q239 92 304 92 Q371 92 404.5 119 Q438 146 438 183 Q438 211 418.5 229 Q399 247 369 257.5 Q339 268 286 282 Q211 300 164 319 Q117 338 83 377.5 Q49 417 49 482 Q49 537 79.5 581.5 Q110 626 165.5 651.5 Q221 677 292 677 Q446 677 542 584 L475 497 Q437 535 386.5 554 Q336 573 282 573 Q230 573 199.5 550.5 Q169 528 169 490 Q169 466 188 450 Q207 434 235.5 424 Q264 414 316 401 Q391 382 439.5 362 Q488 342 522.5 301.5 Q557 261 557 194 Q557 136 529 89.5 Q501 43 443 15.5 Q385 -12 299 -12 Q210 -12 142.5 16 Q75 44 28 94 L93 184 Z M148 867 L214 867 L292 770 L366 867 L433 867 L340 723 L244 723 L148 867 Z " />
<glyph glyph-name="Scircumflex" unicode="&#x15c;" horiz-adv-x="594" d="M93 184 Q131 143 185 117.5 Q239 92 304 92 Q371 92 404.5 119 Q438 146 438 183 Q438 211 418.5 229 Q399 247 369 257.5 Q339 268 286 282 Q211 300 164 319 Q117 338 83 377.5 Q49 417 49 482 Q49 537 79.5 581.5 Q110 626 165.5 651.5 Q221 677 292 677 Q446 677 542 584 L475 497 Q437 535 386.5 554 Q336 573 282 573 Q230 573 199.5 550.5 Q169 528 169 490 Q169 466 188 450 Q207 434 235.5 424 Q264 414 316 401 Q391 382 439.5 362 Q488 342 522.5 301.5 Q557 261 557 194 Q557 136 529 89.5 Q501 43 443 15.5 Q385 -12 299 -12 Q210 -12 142.5 16 Q75 44 28 94 L93 184 Z M292 819 L217 723 L151 723 L244 867 L340 867 L436 723 L369 723 L292 819 Z " />
<glyph glyph-name="uni015E" unicode="&#x15e;" horiz-adv-x="594" d="M557 194 Q557 108 496.5 50.5 Q436 -7 318 -12 L301 -53 Q317 -42 337 -42 Q366 -42 385 -61 Q404 -80 404 -109 Q404 -148 373 -171 Q342 -194 296 -194 Q263 -194 234.5 -185 Q206 -176 190 -163 L212 -117 Q248 -146 293 -146 Q317 -146 333 -136 Q349 -126 349 -108 Q349 -95 340.5 -87.5 Q332 -80 316 -80 Q295 -80 282 -95 L241 -72 L264 -11 Q115 0 28 94 L93 184 Q131 143 185 117.5 Q239 92 304 92 Q371 92 404.5 119 Q438 146 438 183 Q438 211 418.5 229 Q399 247 369 257.5 Q339 268 286 282 Q211 300 164 319 Q117 338 83 377.5 Q49 417 49 482 Q49 537 79.5 581.5 Q110 626 165.5 651.5 Q221 677 292 677 Q446 677 542 584 L475 497 Q437 535 386.5 554 Q336 573 282 573 Q230 573 199.5 550.5 Q169 528 169 490 Q169 466 188 450 Q207 434 235.5 424 Q264 414 316 401 Q391 382 439.5 362 Q488 342 522.5 301.5 Q557 261 557 194 Z " />
<glyph glyph-name="uni0218" unicode="&#x218;" horiz-adv-x="594" d="M93 184 Q131 143 185 117.5 Q239 92 304 92 Q371 92 404.5 119 Q438 146 438 183 Q438 211 418.5 229 Q399 247 369 257.5 Q339 268 286 282 Q211 300 164 319 Q117 338 83 377.5 Q49 417 49 482 Q49 537 79.5 581.5 Q110 626 165.5 651.5 Q221 677 292 677 Q446 677 542 584 L475 497 Q437 535 386.5 554 Q336 573 282 573 Q230 573 199.5 550.5 Q169 528 169 490 Q169 466 188 450 Q207 434 235.5 424 Q264 414 316 401 Q391 382 439.5 362 Q488 342 522.5 301.5 Q557 261 557 194 Q557 136 529 89.5 Q501 43 443 15.5 Q385 -12 299 -12 Q210 -12 142.5 16 Q75 44 28 94 L93 184 Z M238 -250 Q259 -237 277 -213 Q295 -189 299 -168 Q295 -170 285 -170 Q265 -170 251 -155.5 Q237 -141 237 -119 Q237 -96 253 -79.5 Q269 -63 292 -63 Q318 -63 336.5 -83 Q355 -103 355 -138 Q355 -180 333.5 -218 Q312 -256 277 -281 L238 -250 Z " />
<glyph glyph-name="uni1E60" unicode="&#x1e60;" horiz-adv-x="594" d="M93 184 Q131 143 185 117.5 Q239 92 304 92 Q371 92 404.5 119 Q438 146 438 183 Q438 211 418.5 229 Q399 247 369 257.5 Q339 268 286 282 Q211 300 164 319 Q117 338 83 377.5 Q49 417 49 482 Q49 537 79.5 581.5 Q110 626 165.5 651.5 Q221 677 292 677 Q446 677 542 584 L475 497 Q437 535 386.5 554 Q336 573 282 573 Q230 573 199.5 550.5 Q169 528 169 490 Q169 466 188 450 Q207 434 235.5 424 Q264 414 316 401 Q391 382 439.5 362 Q488 342 522.5 301.5 Q557 261 557 194 Q557 136 529 89.5 Q501 43 443 15.5 Q385 -12 299 -12 Q210 -12 142.5 16 Q75 44 28 94 L93 184 Z M233 789 Q233 813 250.5 830.5 Q268 848 292 848 Q316 848 333 830.5 Q350 813 350 789 Q350 764 333 747 Q316 730 292 730 Q268 730 250.5 747 Q233 764 233 789 Z " />
<glyph glyph-name="uni1E9E" unicode="&#x1e9e;" horiz-adv-x="690" d="M441 400 Q541 393 602.5 344.5 Q664 296 664 199 Q664 139 632.5 91 Q601 43 546.5 15.5 Q492 -12 424 -12 Q355 -12 306 7.5 Q257 27 229 59 L298 140 Q324 117 354 104.5 Q384 92 424 92 Q479 92 511.5 120.5 Q544 149 544 199 Q544 257 495 281 Q446 305 352 305 L302 305 L302 404 L446 556 Q410 574 360 574 Q278 574 233.5 527 Q189 480 189 399 L189 0 L71 0 L71 403 Q71 530 144.5 604 Q218 678 360 678 Q440 678 502 652 Q564 626 601 573 L441 400 Z " />
<glyph glyph-name="Tbar" unicode="&#x166;" horiz-adv-x="577" d="M347 564 L347 338 L488 338 L488 276 L347 276 L347 0 L230 0 L230 276 L89 276 L89 338 L230 338 L230 564 L28 564 L28 667 L549 667 L549 564 L347 564 Z " />
<glyph glyph-name="Tcaron" unicode="&#x164;" horiz-adv-x="577" d="M230 564 L28 564 L28 667 L549 667 L549 564 L347 564 L347 0 L230 0 L230 564 Z M145 867 L211 867 L289 770 L363 867 L430 867 L337 723 L241 723 L145 867 Z " />
<glyph glyph-name="uni0162" unicode="&#x162;" horiz-adv-x="577" d="M230 564 L28 564 L28 667 L549 667 L549 564 L347 564 L347 0 L230 0 L230 564 Z M235 -250 Q256 -237 274 -213 Q292 -189 296 -168 Q292 -170 282 -170 Q262 -170 248 -155.5 Q234 -141 234 -119 Q234 -96 250 -79.5 Q266 -63 289 -63 Q315 -63 333.5 -83 Q352 -103 352 -138 Q352 -180 330.5 -218 Q309 -256 274 -281 L235 -250 Z " />
<glyph glyph-name="uni021A" unicode="&#x21a;" horiz-adv-x="577" d="M230 564 L28 564 L28 667 L549 667 L549 564 L347 564 L347 0 L230 0 L230 564 Z M235 -250 Q256 -237 274 -213 Q292 -189 296 -168 Q292 -170 282 -170 Q262 -170 248 -155.5 Q234 -141 234 -119 Q234 -96 250 -79.5 Q266 -63 289 -63 Q315 -63 333.5 -83 Q352 -103 352 -138 Q352 -180 330.5 -218 Q309 -256 274 -281 L235 -250 Z " />
<glyph glyph-name="uni1E6A" unicode="&#x1e6a;" horiz-adv-x="577" d="M230 564 L28 564 L28 667 L549 667 L549 564 L347 564 L347 0 L230 0 L230 564 Z M230 789 Q230 813 247.5 830.5 Q265 848 289 848 Q313 848 330 830.5 Q347 813 347 789 Q347 764 330 747 Q313 730 289 730 Q265 730 247.5 747 Q230 764 230 789 Z " />
<glyph glyph-name="Uacute" unicode="&#xda;" horiz-adv-x="719" d="M71 667 L189 667 L189 267 Q189 186 233.5 139 Q278 92 360 92 Q442 92 486 139 Q530 186 530 267 L530 667 L648 667 L648 264 Q648 136 574.5 62 Q501 -12 360 -12 Q218 -12 144.5 62 Q71 136 71 263 L71 667 Z M319 723 L459 867 L559 867 L394 723 L319 723 Z " />
<glyph glyph-name="Ubreve" unicode="&#x16c;" horiz-adv-x="719" d="M71 667 L189 667 L189 267 Q189 186 233.5 139 Q278 92 360 92 Q442 92 486 139 Q530 186 530 267 L530 667 L648 667 L648 264 Q648 136 574.5 62 Q501 -12 360 -12 Q218 -12 144.5 62 Q71 136 71 263 L71 667 Z M360 721 Q307 721 261 744.5 Q215 768 184 809 L232 849 Q254 818 287 800.5 Q320 783 360 783 Q399 783 432 800.5 Q465 818 487 849 L535 809 Q504 768 458.5 744.5 Q413 721 360 721 Z " />
<glyph glyph-name="Ucircumflex" unicode="&#xdb;" horiz-adv-x="719" d="M71 667 L189 667 L189 267 Q189 186 233.5 139 Q278 92 360 92 Q442 92 486 139 Q530 186 530 267 L530 667 L648 667 L648 264 Q648 136 574.5 62 Q501 -12 360 -12 Q218 -12 144.5 62 Q71 136 71 263 L71 667 Z M360 819 L285 723 L219 723 L312 867 L408 867 L504 723 L437 723 L360 819 Z " />
<glyph glyph-name="Udieresis" unicode="&#xdc;" horiz-adv-x="719" d="M71 667 L189 667 L189 267 Q189 186 233.5 139 Q278 92 360 92 Q442 92 486 139 Q530 186 530 267 L530 667 L648 667 L648 264 Q648 136 574.5 62 Q501 -12 360 -12 Q218 -12 144.5 62 Q71 136 71 263 L71 667 Z M256 731 Q231 731 214 748 Q197 765 197 790 Q197 814 214 831 Q231 848 256 848 Q280 848 297 831 Q314 814 314 790 Q314 765 297 748 Q280 731 256 731 Z M465 731 Q441 731 423.5 748 Q406 765 406 790 Q406 814 423.5 831 Q441 848 465 848 Q489 848 506.5 831 Q524 814 524 790 Q524 765 506.5 748 Q489 731 465 731 Z " />
<glyph glyph-name="Ugrave" unicode="&#xd9;" horiz-adv-x="719" d="M71 667 L189 667 L189 267 Q189 186 233.5 139 Q278 92 360 92 Q442 92 486 139 Q530 186 530 267 L530 667 L648 667 L648 264 Q648 136 574.5 62 Q501 -12 360 -12 Q218 -12 144.5 62 Q71 136 71 263 L71 667 Z M157 867 L257 867 L397 723 L322 723 L157 867 Z " />
<glyph glyph-name="Uhungarumlaut" unicode="&#x170;" horiz-adv-x="719" d="M71 667 L189 667 L189 267 Q189 186 233.5 139 Q278 92 360 92 Q442 92 486 139 Q530 186 530 267 L530 667 L648 667 L648 264 Q648 136 574.5 62 Q501 -12 360 -12 Q218 -12 144.5 62 Q71 136 71 263 L71 667 Z M252 723 L342 867 L430 867 L315 723 L252 723 Z M398 723 L488 867 L576 867 L461 723 L398 723 Z " />
<glyph glyph-name="Umacron" unicode="&#x16a;" horiz-adv-x="719" d="M71 667 L189 667 L189 267 Q189 186 233.5 139 Q278 92 360 92 Q442 92 486 139 Q530 186 530 267 L530 667 L648 667 L648 264 Q648 136 574.5 62 Q501 -12 360 -12 Q218 -12 144.5 62 Q71 136 71 263 L71 667 Z M198 795 L521 795 L521 733 L198 733 L198 795 Z " />
<glyph glyph-name="Uogonek" unicode="&#x172;" horiz-adv-x="719" d="M71 667 L189 667 L189 267 Q189 186 233.5 139 Q278 92 360 92 Q442 92 486 139 Q530 186 530 267 L530 667 L648 667 L648 264 Q648 164 604.5 97.5 Q561 31 478 5 Q427 -11 400 -34.5 Q373 -58 373 -84 Q373 -98 383.5 -106.5 Q394 -115 408 -115 Q424 -115 438 -108 L462 -169 Q434 -186 382 -186 Q338 -186 307 -166 Q276 -146 276 -109 Q276 -80 299.5 -54.5 Q323 -29 363 -12 L360 -12 Q218 -12 144.5 62 Q71 136 71 263 L71 667 Z " />
<glyph glyph-name="Uring" unicode="&#x16e;" horiz-adv-x="719" d="M71 667 L189 667 L189 267 Q189 186 233.5 139 Q278 92 360 92 Q442 92 486 139 Q530 186 530 267 L530 667 L648 667 L648 264 Q648 136 574.5 62 Q501 -12 360 -12 Q218 -12 144.5 62 Q71 136 71 263 L71 667 Z M259 805 Q259 847 289 877.5 Q319 908 361 908 Q403 908 432.5 877.5 Q462 847 462 805 Q462 763 432.5 733 Q403 703 361 703 Q319 703 289 733 Q259 763 259 805 Z M412 805 Q412 827 397.5 842 Q383 857 361 857 Q340 857 324.5 842 Q309 827 309 805 Q309 784 324.5 768.5 Q340 753 361 753 Q382 753 397 768.5 Q412 784 412 805 Z " />
<glyph glyph-name="Utilde" unicode="&#x168;" horiz-adv-x="719" d="M71 667 L189 667 L189 267 Q189 186 233.5 139 Q278 92 360 92 Q442 92 486 139 Q530 186 530 267 L530 667 L648 667 L648 264 Q648 136 574.5 62 Q501 -12 360 -12 Q218 -12 144.5 62 Q71 136 71 263 L71 667 Z M342 767 Q330 783 320.5 791 Q311 799 299 799 Q281 799 269 781 Q257 763 257 727 L200 727 Q200 789 226.5 825 Q253 861 303 861 Q329 861 345 849 Q361 837 378 815 Q392 798 401 790.5 Q410 783 422 783 Q440 783 451.5 801 Q463 819 463 855 L521 855 Q521 793 494.5 757 Q468 721 418 721 Q392 721 375.5 733 Q359 745 342 767 Z " />
<glyph glyph-name="uni1EE4" unicode="&#x1ee4;" horiz-adv-x="719" d="M71 667 L189 667 L189 267 Q189 186 233.5 139 Q278 92 360 92 Q442 92 486 139 Q530 186 530 267 L530 667 L648 667 L648 264 Q648 136 574.5 62 Q501 -12 360 -12 Q218 -12 144.5 62 Q71 136 71 263 L71 667 Z M301 -118 Q301 -94 318.5 -76.5 Q336 -59 360 -59 Q384 -59 401 -76.5 Q418 -94 418 -118 Q418 -143 401 -160 Q384 -177 360 -177 Q336 -177 318.5 -160 Q301 -143 301 -118 Z " />
<glyph glyph-name="Uhorn" unicode="&#x1af;" horiz-adv-x="719" d="M760 727 Q760 680 730.5 637.5 Q701 595 648 572 L648 264 Q648 136 574.5 62 Q501 -12 360 -12 Q218 -12 144.5 62 Q71 136 71 263 L71 667 L189 667 L189 267 Q189 186 233.5 139 Q278 92 360 92 Q442 92 486 139 Q530 186 530 267 L530 667 L648 667 L648 619 Q672 633 689.5 655.5 Q707 678 710 701 Q706 699 697 699 Q678 699 665.5 712 Q653 725 653 746 Q653 766 667.5 781 Q682 796 703 796 Q727 796 743.5 777.5 Q760 759 760 727 Z " />
<glyph glyph-name="uni1EE6" unicode="&#x1ee6;" horiz-adv-x="719" d="M71 667 L189 667 L189 267 Q189 186 233.5 139 Q278 92 360 92 Q442 92 486 139 Q530 186 530 267 L530 667 L648 667 L648 264 Q648 136 574.5 62 Q501 -12 360 -12 Q218 -12 144.5 62 Q71 136 71 263 L71 667 Z M253 811 Q264 845 290.5 864 Q317 883 353 883 Q395 883 423 860 Q451 837 451 791 Q451 772 445.5 757 Q440 742 429 724 L367 724 Q394 754 394 789 Q394 811 382.5 822.5 Q371 834 353 834 Q319 834 305 795 L253 811 Z " />
<glyph glyph-name="uni1EE8" unicode="&#x1ee8;" horiz-adv-x="719" d="M760 727 Q760 680 730.5 637.5 Q701 595 648 572 L648 264 Q648 136 574.5 62 Q501 -12 360 -12 Q218 -12 144.5 62 Q71 136 71 263 L71 667 L189 667 L189 267 Q189 186 233.5 139 Q278 92 360 92 Q442 92 486 139 Q530 186 530 267 L530 667 L648 667 L648 619 Q672 633 689.5 655.5 Q707 678 710 701 Q706 699 697 699 Q678 699 665.5 712 Q653 725 653 746 Q653 766 667.5 781 Q682 796 703 796 Q727 796 743.5 777.5 Q760 759 760 727 Z M319 723 L459 867 L559 867 L394 723 L319 723 Z " />
<glyph glyph-name="uni1EEA" unicode="&#x1eea;" horiz-adv-x="719" d="M760 727 Q760 680 730.5 637.5 Q701 595 648 572 L648 264 Q648 136 574.5 62 Q501 -12 360 -12 Q218 -12 144.5 62 Q71 136 71 263 L71 667 L189 667 L189 267 Q189 186 233.5 139 Q278 92 360 92 Q442 92 486 139 Q530 186 530 267 L530 667 L648 667 L648 619 Q672 633 689.5 655.5 Q707 678 710 701 Q706 699 697 699 Q678 699 665.5 712 Q653 725 653 746 Q653 766 667.5 781 Q682 796 703 796 Q727 796 743.5 777.5 Q760 759 760 727 Z M157 867 L257 867 L397 723 L322 723 L157 867 Z " />
<glyph glyph-name="uni1EEC" unicode="&#x1eec;" horiz-adv-x="719" d="M760 727 Q760 680 730.5 637.5 Q701 595 648 572 L648 264 Q648 136 574.5 62 Q501 -12 360 -12 Q218 -12 144.5 62 Q71 136 71 263 L71 667 L189 667 L189 267 Q189 186 233.5 139 Q278 92 360 92 Q442 92 486 139 Q530 186 530 267 L530 667 L648 667 L648 619 Q672 633 689.5 655.5 Q707 678 710 701 Q706 699 697 699 Q678 699 665.5 712 Q653 725 653 746 Q653 766 667.5 781 Q682 796 703 796 Q727 796 743.5 777.5 Q760 759 760 727 Z M253 811 Q264 845 290.5 864 Q317 883 353 883 Q395 883 423 860 Q451 837 451 791 Q451 772 445.5 757 Q440 742 429 724 L367 724 Q394 754 394 789 Q394 811 382.5 822.5 Q371 834 353 834 Q319 834 305 795 L253 811 Z " />
<glyph glyph-name="uni1EEE" unicode="&#x1eee;" horiz-adv-x="719" d="M760 727 Q760 680 730.5 637.5 Q701 595 648 572 L648 264 Q648 136 574.5 62 Q501 -12 360 -12 Q218 -12 144.5 62 Q71 136 71 263 L71 667 L189 667 L189 267 Q189 186 233.5 139 Q278 92 360 92 Q442 92 486 139 Q530 186 530 267 L530 667 L648 667 L648 619 Q672 633 689.5 655.5 Q707 678 710 701 Q706 699 697 699 Q678 699 665.5 712 Q653 725 653 746 Q653 766 667.5 781 Q682 796 703 796 Q727 796 743.5 777.5 Q760 759 760 727 Z M342 767 Q330 783 320.5 791 Q311 799 299 799 Q281 799 269 781 Q257 763 257 727 L200 727 Q200 789 226.5 825 Q253 861 303 861 Q329 861 345 849 Q361 837 378 815 Q392 798 401 790.5 Q410 783 422 783 Q440 783 451.5 801 Q463 819 463 855 L521 855 Q521 793 494.5 757 Q468 721 418 721 Q392 721 375.5 733 Q359 745 342 767 Z " />
<glyph glyph-name="uni1EF0" unicode="&#x1ef0;" horiz-adv-x="719" d="M760 727 Q760 680 730.5 637.5 Q701 595 648 572 L648 264 Q648 136 574.5 62 Q501 -12 360 -12 Q218 -12 144.5 62 Q71 136 71 263 L71 667 L189 667 L189 267 Q189 186 233.5 139 Q278 92 360 92 Q442 92 486 139 Q530 186 530 267 L530 667 L648 667 L648 619 Q672 633 689.5 655.5 Q707 678 710 701 Q706 699 697 699 Q678 699 665.5 712 Q653 725 653 746 Q653 766 667.5 781 Q682 796 703 796 Q727 796 743.5 777.5 Q760 759 760 727 Z M301 -118 Q301 -94 318.5 -76.5 Q336 -59 360 -59 Q384 -59 401 -76.5 Q418 -94 418 -118 Q418 -143 401 -160 Q384 -177 360 -177 Q336 -177 318.5 -160 Q301 -143 301 -118 Z " />
<glyph glyph-name="Wacute" unicode="&#x1e82;" horiz-adv-x="903" d="M451 492 L322 0 L197 0 L6 667 L137 667 L267 153 L405 667 L498 667 L636 153 L765 667 L896 667 L706 0 L581 0 L451 492 Z M410 723 L550 867 L650 867 L485 723 L410 723 Z " />
<glyph glyph-name="Wcircumflex" unicode="&#x174;" horiz-adv-x="903" d="M451 492 L322 0 L197 0 L6 667 L137 667 L267 153 L405 667 L498 667 L636 153 L765 667 L896 667 L706 0 L581 0 L451 492 Z M451 819 L376 723 L310 723 L403 867 L499 867 L595 723 L528 723 L451 819 Z " />
<glyph glyph-name="Wdieresis" unicode="&#x1e84;" horiz-adv-x="903" d="M451 492 L322 0 L197 0 L6 667 L137 667 L267 153 L405 667 L498 667 L636 153 L765 667 L896 667 L706 0 L581 0 L451 492 Z M347 731 Q322 731 305 748 Q288 765 288 790 Q288 814 305 831 Q322 848 347 848 Q371 848 388 831 Q405 814 405 790 Q405 765 388 748 Q371 731 347 731 Z M556 731 Q532 731 514.5 748 Q497 765 497 790 Q497 814 514.5 831 Q532 848 556 848 Q580 848 597.5 831 Q615 814 615 790 Q615 765 597.5 748 Q580 731 556 731 Z " />
<glyph glyph-name="Wgrave" unicode="&#x1e80;" horiz-adv-x="903" d="M451 492 L322 0 L197 0 L6 667 L137 667 L267 153 L405 667 L498 667 L636 153 L765 667 L896 667 L706 0 L581 0 L451 492 Z M248 867 L348 867 L488 723 L413 723 L248 867 Z " />
<glyph glyph-name="Yacute" unicode="&#xdd;" horiz-adv-x="637" d="M260 277 L1 667 L135 667 L319 381 L501 667 L635 667 L377 277 L377 0 L260 0 L260 277 Z M278 723 L418 867 L518 867 L353 723 L278 723 Z " />
<glyph glyph-name="Ycircumflex" unicode="&#x176;" horiz-adv-x="637" d="M260 277 L1 667 L135 667 L319 381 L501 667 L635 667 L377 277 L377 0 L260 0 L260 277 Z M319 819 L244 723 L178 723 L271 867 L367 867 L463 723 L396 723 L319 819 Z " />
<glyph glyph-name="Ydieresis" unicode="&#x178;" horiz-adv-x="637" d="M260 277 L1 667 L135 667 L319 381 L501 667 L635 667 L377 277 L377 0 L260 0 L260 277 Z M215 731 Q190 731 173 748 Q156 765 156 790 Q156 814 173 831 Q190 848 215 848 Q239 848 256 831 Q273 814 273 790 Q273 765 256 748 Q239 731 215 731 Z M424 731 Q400 731 382.5 748 Q365 765 365 790 Q365 814 382.5 831 Q400 848 424 848 Q448 848 465.5 831 Q483 814 483 790 Q483 765 465.5 748 Q448 731 424 731 Z " />
<glyph glyph-name="Ygrave" unicode="&#x1ef2;" horiz-adv-x="637" d="M260 277 L1 667 L135 667 L319 381 L501 667 L635 667 L377 277 L377 0 L260 0 L260 277 Z M116 867 L216 867 L356 723 L281 723 L116 867 Z " />
<glyph glyph-name="uni1EF4" unicode="&#x1ef4;" horiz-adv-x="637" d="M260 277 L1 667 L135 667 L319 381 L501 667 L635 667 L377 277 L377 0 L260 0 L260 277 Z M260 -118 Q260 -94 277.5 -76.5 Q295 -59 319 -59 Q343 -59 360 -76.5 Q377 -94 377 -118 Q377 -143 360 -160 Q343 -177 319 -177 Q295 -177 277.5 -160 Q260 -143 260 -118 Z " />
<glyph glyph-name="uni1EF6" unicode="&#x1ef6;" horiz-adv-x="637" d="M260 277 L1 667 L135 667 L319 381 L501 667 L635 667 L377 277 L377 0 L260 0 L260 277 Z M212 811 Q223 845 249.5 864 Q276 883 312 883 Q354 883 382 860 Q410 837 410 791 Q410 772 404.5 757 Q399 742 388 724 L326 724 Q353 754 353 789 Q353 811 341.5 822.5 Q330 834 312 834 Q278 834 264 795 L212 811 Z " />
<glyph glyph-name="uni1EF8" unicode="&#x1ef8;" horiz-adv-x="637" d="M260 277 L1 667 L135 667 L319 381 L501 667 L635 667 L377 277 L377 0 L260 0 L260 277 Z M301 767 Q289 783 279.5 791 Q270 799 258 799 Q240 799 228 781 Q216 763 216 727 L159 727 Q159 789 185.5 825 Q212 861 262 861 Q288 861 304 849 Q320 837 337 815 Q351 798 360 790.5 Q369 783 381 783 Q399 783 410.5 801 Q422 819 422 855 L480 855 Q480 793 453.5 757 Q427 721 377 721 Q351 721 334.5 733 Q318 745 301 767 Z " />
<glyph glyph-name="Zacute" unicode="&#x179;" horiz-adv-x="589" d="M44 95 L385 564 L44 564 L44 667 L537 667 L537 572 L196 103 L544 103 L544 0 L44 0 L44 95 Z M254 723 L394 867 L494 867 L329 723 L254 723 Z " />
<glyph glyph-name="Zcaron" unicode="&#x17d;" horiz-adv-x="589" d="M44 95 L385 564 L44 564 L44 667 L537 667 L537 572 L196 103 L544 103 L544 0 L44 0 L44 95 Z M151 867 L217 867 L295 770 L369 867 L436 867 L343 723 L247 723 L151 867 Z " />
<glyph glyph-name="Zdotaccent" unicode="&#x17b;" horiz-adv-x="589" d="M44 95 L385 564 L44 564 L44 667 L537 667 L537 572 L196 103 L544 103 L544 0 L44 0 L44 95 Z M236 789 Q236 813 253.5 830.5 Q271 848 295 848 Q319 848 336 830.5 Q353 813 353 789 Q353 764 336 747 Q319 730 295 730 Q271 730 253.5 747 Q236 764 236 789 Z " />
<glyph glyph-name="Eth" unicode="&#xd0;" horiz-adv-x="736" d="M345 667 Q448 667 527 624.5 Q606 582 650 506 Q694 430 694 333 Q694 236 650 160.5 Q606 85 527 42.5 Q448 0 345 0 L97 0 L97 285 L9 285 L9 371 L97 371 L97 667 L345 667 Z M345 103 Q415 103 467 133.5 Q519 164 546.5 216.5 Q574 269 574 333 Q574 398 547.5 450.5 Q521 503 469 533.5 Q417 564 345 564 L214 564 L214 371 L372 371 L372 285 L214 285 L214 103 L345 103 Z " />
<glyph glyph-name="Thorn" unicode="&#xde;" horiz-adv-x="608" d="M71 667 L188 667 L188 554 L364 554 Q432 554 481 526 Q530 498 556 450 Q582 402 582 344 Q582 287 556 239.5 Q530 192 480.5 164.5 Q431 137 364 137 L188 137 L188 0 L71 0 L71 667 Z M462 345 Q462 392 430 421.5 Q398 451 348 451 L188 451 L188 240 L348 240 Q398 240 430 269 Q462 298 462 345 Z " />
<glyph glyph-name="aacute" unicode="&#xe1;" horiz-adv-x="536" d="M363 52 Q336 21 295.5 4.5 Q255 -12 207 -12 Q166 -12 127 6.5 Q88 25 63.5 61 Q39 97 39 148 Q39 201 63.5 236 Q88 271 126.5 288 Q165 305 207 305 Q256 305 296.5 289 Q337 273 363 243 L363 315 Q363 357 332 381 Q301 405 250 405 Q169 405 107 344 L64 417 Q146 495 267 495 Q356 495 412 453 Q468 411 468 320 L468 0 L363 0 L363 52 Z M363 183 Q345 207 314.5 220 Q284 233 248 233 Q203 233 174 209 Q145 185 145 146 Q145 107 174 83.5 Q203 60 248 60 Q284 60 314.5 73 Q345 86 363 110 L363 183 Z M227 556 L367 700 L467 700 L302 556 L227 556 Z " />
<glyph glyph-name="abreve" unicode="&#x103;" horiz-adv-x="536" d="M363 52 Q336 21 295.5 4.5 Q255 -12 207 -12 Q166 -12 127 6.5 Q88 25 63.5 61 Q39 97 39 148 Q39 201 63.5 236 Q88 271 126.5 288 Q165 305 207 305 Q256 305 296.5 289 Q337 273 363 243 L363 315 Q363 357 332 381 Q301 405 250 405 Q169 405 107 344 L64 417 Q146 495 267 495 Q356 495 412 453 Q468 411 468 320 L468 0 L363 0 L363 52 Z M363 183 Q345 207 314.5 220 Q284 233 248 233 Q203 233 174 209 Q145 185 145 146 Q145 107 174 83.5 Q203 60 248 60 Q284 60 314.5 73 Q345 86 363 110 L363 183 Z M268 554 Q215 554 169 577.5 Q123 601 92 642 L140 682 Q162 651 195 633.5 Q228 616 268 616 Q307 616 340 633.5 Q373 651 395 682 L443 642 Q412 601 366.5 577.5 Q321 554 268 554 Z " />
<glyph glyph-name="acircumflex" unicode="&#xe2;" horiz-adv-x="536" d="M363 52 Q336 21 295.5 4.5 Q255 -12 207 -12 Q166 -12 127 6.5 Q88 25 63.5 61 Q39 97 39 148 Q39 201 63.5 236 Q88 271 126.5 288 Q165 305 207 305 Q256 305 296.5 289 Q337 273 363 243 L363 315 Q363 357 332 381 Q301 405 250 405 Q169 405 107 344 L64 417 Q146 495 267 495 Q356 495 412 453 Q468 411 468 320 L468 0 L363 0 L363 52 Z M363 183 Q345 207 314.5 220 Q284 233 248 233 Q203 233 174 209 Q145 185 145 146 Q145 107 174 83.5 Q203 60 248 60 Q284 60 314.5 73 Q345 86 363 110 L363 183 Z M268 652 L193 556 L127 556 L220 700 L316 700 L412 556 L345 556 L268 652 Z " />
<glyph glyph-name="adieresis" unicode="&#xe4;" horiz-adv-x="536" d="M363 52 Q336 21 295.5 4.5 Q255 -12 207 -12 Q166 -12 127 6.5 Q88 25 63.5 61 Q39 97 39 148 Q39 201 63.5 236 Q88 271 126.5 288 Q165 305 207 305 Q256 305 296.5 289 Q337 273 363 243 L363 315 Q363 357 332 381 Q301 405 250 405 Q169 405 107 344 L64 417 Q146 495 267 495 Q356 495 412 453 Q468 411 468 320 L468 0 L363 0 L363 52 Z M363 183 Q345 207 314.5 220 Q284 233 248 233 Q203 233 174 209 Q145 185 145 146 Q145 107 174 83.5 Q203 60 248 60 Q284 60 314.5 73 Q345 86 363 110 L363 183 Z M164 564 Q139 564 122 581 Q105 598 105 623 Q105 647 122 664 Q139 681 164 681 Q188 681 205 664 Q222 647 222 623 Q222 598 205 581 Q188 564 164 564 Z M373 564 Q349 564 331.5 581 Q314 598 314 623 Q314 647 331.5 664 Q349 681 373 681 Q397 681 414.5 664 Q432 647 432 623 Q432 598 414.5 581 Q397 564 373 564 Z " />
<glyph glyph-name="agrave" unicode="&#xe0;" horiz-adv-x="536" d="M363 52 Q336 21 295.5 4.5 Q255 -12 207 -12 Q166 -12 127 6.5 Q88 25 63.5 61 Q39 97 39 148 Q39 201 63.5 236 Q88 271 126.5 288 Q165 305 207 305 Q256 305 296.5 289 Q337 273 363 243 L363 315 Q363 357 332 381 Q301 405 250 405 Q169 405 107 344 L64 417 Q146 495 267 495 Q356 495 412 453 Q468 411 468 320 L468 0 L363 0 L363 52 Z M363 183 Q345 207 314.5 220 Q284 233 248 233 Q203 233 174 209 Q145 185 145 146 Q145 107 174 83.5 Q203 60 248 60 Q284 60 314.5 73 Q345 86 363 110 L363 183 Z M65 700 L165 700 L305 556 L230 556 L65 700 Z " />
<glyph glyph-name="amacron" unicode="&#x101;" horiz-adv-x="536" d="M363 52 Q336 21 295.5 4.5 Q255 -12 207 -12 Q166 -12 127 6.5 Q88 25 63.5 61 Q39 97 39 148 Q39 201 63.5 236 Q88 271 126.5 288 Q165 305 207 305 Q256 305 296.5 289 Q337 273 363 243 L363 315 Q363 357 332 381 Q301 405 250 405 Q169 405 107 344 L64 417 Q146 495 267 495 Q356 495 412 453 Q468 411 468 320 L468 0 L363 0 L363 52 Z M363 183 Q345 207 314.5 220 Q284 233 248 233 Q203 233 174 209 Q145 185 145 146 Q145 107 174 83.5 Q203 60 248 60 Q284 60 314.5 73 Q345 86 363 110 L363 183 Z M106 628 L429 628 L429 566 L106 566 L106 628 Z " />
<glyph glyph-name="aogonek" unicode="&#x105;" horiz-adv-x="536" d="M468 0 Q379 -34 379 -84 Q379 -98 389.5 -106.5 Q400 -115 414 -115 Q430 -115 444 -108 L468 -169 Q440 -186 388 -186 Q344 -186 313 -166 Q282 -146 282 -109 Q282 -76 311.5 -48 Q341 -20 389 0 L363 0 L363 52 Q336 21 295.5 4.5 Q255 -12 207 -12 Q166 -12 127 6.5 Q88 25 63.5 61 Q39 97 39 148 Q39 201 63.5 236 Q88 271 126.5 288 Q165 305 207 305 Q256 305 296.5 289 Q337 273 363 243 L363 315 Q363 357 332 381 Q301 405 250 405 Q169 405 107 344 L64 417 Q146 495 267 495 Q356 495 412 453 Q468 411 468 320 L468 0 Z M363 183 Q345 207 314.5 220 Q284 233 248 233 Q203 233 174 209 Q145 185 145 146 Q145 107 174 83.5 Q203 60 248 60 Q284 60 314.5 73 Q345 86 363 110 L363 183 Z " />
<glyph glyph-name="aring" unicode="&#xe5;" horiz-adv-x="536" d="M363 52 Q336 21 295.5 4.5 Q255 -12 207 -12 Q166 -12 127 6.5 Q88 25 63.5 61 Q39 97 39 148 Q39 201 63.5 236 Q88 271 126.5 288 Q165 305 207 305 Q256 305 296.5 289 Q337 273 363 243 L363 315 Q363 357 332 381 Q301 405 250 405 Q169 405 107 344 L64 417 Q146 495 267 495 Q356 495 412 453 Q468 411 468 320 L468 0 L363 0 L363 52 Z M363 183 Q345 207 314.5 220 Q284 233 248 233 Q203 233 174 209 Q145 185 145 146 Q145 107 174 83.5 Q203 60 248 60 Q284 60 314.5 73 Q345 86 363 110 L363 183 Z M167 638 Q167 680 197 710.5 Q227 741 269 741 Q311 741 340.5 710.5 Q370 680 370 638 Q370 596 340.5 566 Q311 536 269 536 Q227 536 197 566 Q167 596 167 638 Z M320 638 Q320 660 305.5 675 Q291 690 269 690 Q248 690 232.5 675 Q217 660 217 638 Q217 617 232.5 601.5 Q248 586 269 586 Q290 586 305 601.5 Q320 617 320 638 Z " />
<glyph glyph-name="atilde" unicode="&#xe3;" horiz-adv-x="536" d="M363 52 Q336 21 295.5 4.5 Q255 -12 207 -12 Q166 -12 127 6.5 Q88 25 63.5 61 Q39 97 39 148 Q39 201 63.5 236 Q88 271 126.5 288 Q165 305 207 305 Q256 305 296.5 289 Q337 273 363 243 L363 315 Q363 357 332 381 Q301 405 250 405 Q169 405 107 344 L64 417 Q146 495 267 495 Q356 495 412 453 Q468 411 468 320 L468 0 L363 0 L363 52 Z M363 183 Q345 207 314.5 220 Q284 233 248 233 Q203 233 174 209 Q145 185 145 146 Q145 107 174 83.5 Q203 60 248 60 Q284 60 314.5 73 Q345 86 363 110 L363 183 Z M250 600 Q238 616 228.5 624 Q219 632 207 632 Q189 632 177 614 Q165 596 165 560 L108 560 Q108 622 134.5 658 Q161 694 211 694 Q237 694 253 682 Q269 670 286 648 Q300 631 309 623.5 Q318 616 330 616 Q348 616 359.5 634 Q371 652 371 688 L429 688 Q429 626 402.5 590 Q376 554 326 554 Q300 554 283.5 566 Q267 578 250 600 Z " />
<glyph glyph-name="uni1EA1" unicode="&#x1ea1;" horiz-adv-x="536" d="M363 52 Q336 21 295.5 4.5 Q255 -12 207 -12 Q166 -12 127 6.5 Q88 25 63.5 61 Q39 97 39 148 Q39 201 63.5 236 Q88 271 126.5 288 Q165 305 207 305 Q256 305 296.5 289 Q337 273 363 243 L363 315 Q363 357 332 381 Q301 405 250 405 Q169 405 107 344 L64 417 Q146 495 267 495 Q356 495 412 453 Q468 411 468 320 L468 0 L363 0 L363 52 Z M363 183 Q345 207 314.5 220 Q284 233 248 233 Q203 233 174 209 Q145 185 145 146 Q145 107 174 83.5 Q203 60 248 60 Q284 60 314.5 73 Q345 86 363 110 L363 183 Z M209 -118 Q209 -94 226.5 -76.5 Q244 -59 268 -59 Q292 -59 309 -76.5 Q326 -94 326 -118 Q326 -143 309 -160 Q292 -177 268 -177 Q244 -177 226.5 -160 Q209 -143 209 -118 Z " />
<glyph glyph-name="uni1EA3" unicode="&#x1ea3;" horiz-adv-x="536" d="M363 52 Q336 21 295.5 4.5 Q255 -12 207 -12 Q166 -12 127 6.5 Q88 25 63.5 61 Q39 97 39 148 Q39 201 63.5 236 Q88 271 126.5 288 Q165 305 207 305 Q256 305 296.5 289 Q337 273 363 243 L363 315 Q363 357 332 381 Q301 405 250 405 Q169 405 107 344 L64 417 Q146 495 267 495 Q356 495 412 453 Q468 411 468 320 L468 0 L363 0 L363 52 Z M363 183 Q345 207 314.5 220 Q284 233 248 233 Q203 233 174 209 Q145 185 145 146 Q145 107 174 83.5 Q203 60 248 60 Q284 60 314.5 73 Q345 86 363 110 L363 183 Z M161 644 Q172 678 198.5 697 Q225 716 261 716 Q303 716 331 693 Q359 670 359 624 Q359 605 353.5 590 Q348 575 337 557 L275 557 Q302 587 302 622 Q302 644 290.5 655.5 Q279 667 261 667 Q227 667 213 628 L161 644 Z " />
<glyph glyph-name="uni1EA5" unicode="&#x1ea5;" horiz-adv-x="536" d="M363 52 Q336 21 295.5 4.5 Q255 -12 207 -12 Q166 -12 127 6.5 Q88 25 63.5 61 Q39 97 39 148 Q39 201 63.5 236 Q88 271 126.5 288 Q165 305 207 305 Q256 305 296.5 289 Q337 273 363 243 L363 315 Q363 357 332 381 Q301 405 250 405 Q169 405 107 344 L64 417 Q146 495 267 495 Q356 495 412 453 Q468 411 468 320 L468 0 L363 0 L363 52 Z M363 183 Q345 207 314.5 220 Q284 233 248 233 Q203 233 174 209 Q145 185 145 146 Q145 107 174 83.5 Q203 60 248 60 Q284 60 314.5 73 Q345 86 363 110 L363 183 Z M268 652 L193 556 L127 556 L220 700 L316 700 L412 556 L345 556 L268 652 Z M381 656 L521 800 L621 800 L456 656 L381 656 Z " />
<glyph glyph-name="uni1EAD" unicode="&#x1ead;" horiz-adv-x="536" d="M363 52 Q336 21 295.5 4.5 Q255 -12 207 -12 Q166 -12 127 6.5 Q88 25 63.5 61 Q39 97 39 148 Q39 201 63.5 236 Q88 271 126.5 288 Q165 305 207 305 Q256 305 296.5 289 Q337 273 363 243 L363 315 Q363 357 332 381 Q301 405 250 405 Q169 405 107 344 L64 417 Q146 495 267 495 Q356 495 412 453 Q468 411 468 320 L468 0 L363 0 L363 52 Z M363 183 Q345 207 314.5 220 Q284 233 248 233 Q203 233 174 209 Q145 185 145 146 Q145 107 174 83.5 Q203 60 248 60 Q284 60 314.5 73 Q345 86 363 110 L363 183 Z M209 -118 Q209 -94 226.5 -76.5 Q244 -59 268 -59 Q292 -59 309 -76.5 Q326 -94 326 -118 Q326 -143 309 -160 Q292 -177 268 -177 Q244 -177 226.5 -160 Q209 -143 209 -118 Z M268 652 L193 556 L127 556 L220 700 L316 700 L412 556 L345 556 L268 652 Z " />
<glyph glyph-name="uni1EA7" unicode="&#x1ea7;" horiz-adv-x="536" d="M363 52 Q336 21 295.5 4.5 Q255 -12 207 -12 Q166 -12 127 6.5 Q88 25 63.5 61 Q39 97 39 148 Q39 201 63.5 236 Q88 271 126.5 288 Q165 305 207 305 Q256 305 296.5 289 Q337 273 363 243 L363 315 Q363 357 332 381 Q301 405 250 405 Q169 405 107 344 L64 417 Q146 495 267 495 Q356 495 412 453 Q468 411 468 320 L468 0 L363 0 L363 52 Z M363 183 Q345 207 314.5 220 Q284 233 248 233 Q203 233 174 209 Q145 185 145 146 Q145 107 174 83.5 Q203 60 248 60 Q284 60 314.5 73 Q345 86 363 110 L363 183 Z M268 652 L193 556 L127 556 L220 700 L316 700 L412 556 L345 556 L268 652 Z M-80 800 L20 800 L160 656 L85 656 L-80 800 Z " />
<glyph glyph-name="uni1EA9" unicode="&#x1ea9;" horiz-adv-x="536" d="M363 52 Q336 21 295.5 4.5 Q255 -12 207 -12 Q166 -12 127 6.5 Q88 25 63.5 61 Q39 97 39 148 Q39 201 63.5 236 Q88 271 126.5 288 Q165 305 207 305 Q256 305 296.5 289 Q337 273 363 243 L363 315 Q363 357 332 381 Q301 405 250 405 Q169 405 107 344 L64 417 Q146 495 267 495 Q356 495 412 453 Q468 411 468 320 L468 0 L363 0 L363 52 Z M363 183 Q345 207 314.5 220 Q284 233 248 233 Q203 233 174 209 Q145 185 145 146 Q145 107 174 83.5 Q203 60 248 60 Q284 60 314.5 73 Q345 86 363 110 L363 183 Z M268 652 L193 556 L127 556 L220 700 L316 700 L412 556 L345 556 L268 652 Z M267 743 Q278 777 304.5 796 Q331 815 367 815 Q409 815 437 792 Q465 769 465 723 Q465 704 459.5 689 Q454 674 443 656 L381 656 Q408 686 408 721 Q408 743 396.5 754.5 Q385 766 367 766 Q333 766 319 727 L267 743 Z " />
<glyph glyph-name="uni1EAF" unicode="&#x1eaf;" horiz-adv-x="536" d="M363 52 Q336 21 295.5 4.5 Q255 -12 207 -12 Q166 -12 127 6.5 Q88 25 63.5 61 Q39 97 39 148 Q39 201 63.5 236 Q88 271 126.5 288 Q165 305 207 305 Q256 305 296.5 289 Q337 273 363 243 L363 315 Q363 357 332 381 Q301 405 250 405 Q169 405 107 344 L64 417 Q146 495 267 495 Q356 495 412 453 Q468 411 468 320 L468 0 L363 0 L363 52 Z M363 183 Q345 207 314.5 220 Q284 233 248 233 Q203 233 174 209 Q145 185 145 146 Q145 107 174 83.5 Q203 60 248 60 Q284 60 314.5 73 Q345 86 363 110 L363 183 Z M268 554 Q215 554 169 577.5 Q123 601 92 642 L140 682 Q162 651 195 633.5 Q228 616 268 616 Q307 616 340 633.5 Q373 651 395 682 L443 642 Q412 601 366.5 577.5 Q321 554 268 554 Z M227 688 L367 832 L467 832 L302 688 L227 688 Z " />
<glyph glyph-name="uni1EAB" unicode="&#x1eab;" horiz-adv-x="536" d="M363 52 Q336 21 295.5 4.5 Q255 -12 207 -12 Q166 -12 127 6.5 Q88 25 63.5 61 Q39 97 39 148 Q39 201 63.5 236 Q88 271 126.5 288 Q165 305 207 305 Q256 305 296.5 289 Q337 273 363 243 L363 315 Q363 357 332 381 Q301 405 250 405 Q169 405 107 344 L64 417 Q146 495 267 495 Q356 495 412 453 Q468 411 468 320 L468 0 L363 0 L363 52 Z M363 183 Q345 207 314.5 220 Q284 233 248 233 Q203 233 174 209 Q145 185 145 146 Q145 107 174 83.5 Q203 60 248 60 Q284 60 314.5 73 Q345 86 363 110 L363 183 Z M268 652 L193 556 L127 556 L220 700 L316 700 L412 556 L345 556 L268 652 Z M250 762 Q238 778 228.5 786 Q219 794 207 794 Q189 794 177 776 Q165 758 165 722 L108 722 Q108 784 134.5 820 Q161 856 211 856 Q237 856 253 844 Q269 832 286 810 Q300 793 309 785.5 Q318 778 330 778 Q348 778 359.5 796 Q371 814 371 850 L429 850 Q429 788 402.5 752 Q376 716 326 716 Q300 716 283.5 728 Q267 740 250 762 Z " />
<glyph glyph-name="uni1EB1" unicode="&#x1eb1;" horiz-adv-x="536" d="M363 52 Q336 21 295.5 4.5 Q255 -12 207 -12 Q166 -12 127 6.5 Q88 25 63.5 61 Q39 97 39 148 Q39 201 63.5 236 Q88 271 126.5 288 Q165 305 207 305 Q256 305 296.5 289 Q337 273 363 243 L363 315 Q363 357 332 381 Q301 405 250 405 Q169 405 107 344 L64 417 Q146 495 267 495 Q356 495 412 453 Q468 411 468 320 L468 0 L363 0 L363 52 Z M363 183 Q345 207 314.5 220 Q284 233 248 233 Q203 233 174 209 Q145 185 145 146 Q145 107 174 83.5 Q203 60 248 60 Q284 60 314.5 73 Q345 86 363 110 L363 183 Z M268 554 Q215 554 169 577.5 Q123 601 92 642 L140 682 Q162 651 195 633.5 Q228 616 268 616 Q307 616 340 633.5 Q373 651 395 682 L443 642 Q412 601 366.5 577.5 Q321 554 268 554 Z M65 832 L165 832 L305 688 L230 688 L65 832 Z " />
<glyph glyph-name="uni1EB3" unicode="&#x1eb3;" horiz-adv-x="536" d="M363 52 Q336 21 295.5 4.5 Q255 -12 207 -12 Q166 -12 127 6.5 Q88 25 63.5 61 Q39 97 39 148 Q39 201 63.5 236 Q88 271 126.5 288 Q165 305 207 305 Q256 305 296.5 289 Q337 273 363 243 L363 315 Q363 357 332 381 Q301 405 250 405 Q169 405 107 344 L64 417 Q146 495 267 495 Q356 495 412 453 Q468 411 468 320 L468 0 L363 0 L363 52 Z M363 183 Q345 207 314.5 220 Q284 233 248 233 Q203 233 174 209 Q145 185 145 146 Q145 107 174 83.5 Q203 60 248 60 Q284 60 314.5 73 Q345 86 363 110 L363 183 Z M268 554 Q215 554 169 577.5 Q123 601 92 642 L140 682 Q162 651 195 633.5 Q228 616 268 616 Q307 616 340 633.5 Q373 651 395 682 L443 642 Q412 601 366.5 577.5 Q321 554 268 554 Z M161 776 Q172 810 198.5 829 Q225 848 261 848 Q303 848 331 825 Q359 802 359 756 Q359 737 353.5 722 Q348 707 337 689 L275 689 Q302 719 302 754 Q302 776 290.5 787.5 Q279 799 261 799 Q227 799 213 760 L161 776 Z " />
<glyph glyph-name="uni1EB5" unicode="&#x1eb5;" horiz-adv-x="536" d="M363 52 Q336 21 295.5 4.5 Q255 -12 207 -12 Q166 -12 127 6.5 Q88 25 63.5 61 Q39 97 39 148 Q39 201 63.5 236 Q88 271 126.5 288 Q165 305 207 305 Q256 305 296.5 289 Q337 273 363 243 L363 315 Q363 357 332 381 Q301 405 250 405 Q169 405 107 344 L64 417 Q146 495 267 495 Q356 495 412 453 Q468 411 468 320 L468 0 L363 0 L363 52 Z M363 183 Q345 207 314.5 220 Q284 233 248 233 Q203 233 174 209 Q145 185 145 146 Q145 107 174 83.5 Q203 60 248 60 Q284 60 314.5 73 Q345 86 363 110 L363 183 Z M268 554 Q215 554 169 577.5 Q123 601 92 642 L140 682 Q162 651 195 633.5 Q228 616 268 616 Q307 616 340 633.5 Q373 651 395 682 L443 642 Q412 601 366.5 577.5 Q321 554 268 554 Z M250 732 Q238 748 228.5 756 Q219 764 207 764 Q189 764 177 746 Q165 728 165 692 L108 692 Q108 754 134.5 790 Q161 826 211 826 Q237 826 253 814 Q269 802 286 780 Q300 763 309 755.5 Q318 748 330 748 Q348 748 359.5 766 Q371 784 371 820 L429 820 Q429 758 402.5 722 Q376 686 326 686 Q300 686 283.5 698 Q267 710 250 732 Z " />
<glyph glyph-name="uni1EB7" unicode="&#x1eb7;" horiz-adv-x="536" d="M363 52 Q336 21 295.5 4.5 Q255 -12 207 -12 Q166 -12 127 6.5 Q88 25 63.5 61 Q39 97 39 148 Q39 201 63.5 236 Q88 271 126.5 288 Q165 305 207 305 Q256 305 296.5 289 Q337 273 363 243 L363 315 Q363 357 332 381 Q301 405 250 405 Q169 405 107 344 L64 417 Q146 495 267 495 Q356 495 412 453 Q468 411 468 320 L468 0 L363 0 L363 52 Z M363 183 Q345 207 314.5 220 Q284 233 248 233 Q203 233 174 209 Q145 185 145 146 Q145 107 174 83.5 Q203 60 248 60 Q284 60 314.5 73 Q345 86 363 110 L363 183 Z M268 554 Q215 554 169 577.5 Q123 601 92 642 L140 682 Q162 651 195 633.5 Q228 616 268 616 Q307 616 340 633.5 Q373 651 395 682 L443 642 Q412 601 366.5 577.5 Q321 554 268 554 Z M209 -118 Q209 -94 226.5 -76.5 Q244 -59 268 -59 Q292 -59 309 -76.5 Q326 -94 326 -118 Q326 -143 309 -160 Q292 -177 268 -177 Q244 -177 226.5 -160 Q209 -143 209 -118 Z " />
<glyph glyph-name="ae" unicode="&#xe6;" horiz-adv-x="878" d="M491 207 Q497 150 534.5 113 Q572 76 633 76 Q667 76 702 90 Q737 104 760 129 L808 58 Q773 25 724 6.5 Q675 -12 628 -12 Q496 -12 438 86 Q409 42 354.5 15 Q300 -12 235 -12 Q183 -12 138 6 Q93 24 66 60 Q39 96 39 147 Q39 222 90 263.5 Q141 305 216 305 Q268 305 312.5 289.5 Q357 274 386 245 L386 316 Q386 357 352 381 Q318 405 263 405 Q174 405 107 344 L64 417 Q148 495 272 495 Q338 495 383 471 Q428 447 446 402 Q476 446 517.5 470.5 Q559 495 623 495 Q689 495 738.5 461 Q788 427 815 367.5 Q842 308 842 232 L842 207 L491 207 Z M740 281 Q738 331 706.5 370 Q675 409 615 409 Q558 409 525.5 370 Q493 331 490 281 L740 281 Z M386 182 Q365 206 330.5 219.5 Q296 233 258 233 Q208 233 176.5 212.5 Q145 192 145 154 Q145 116 176 96 Q207 76 258 76 Q292 76 321.5 91 Q351 106 368.5 129 Q386 152 386 175 L386 182 Z " />
<glyph glyph-name="aeacute" unicode="&#x1fd;" horiz-adv-x="878" d="M491 207 Q497 150 534.5 113 Q572 76 633 76 Q667 76 702 90 Q737 104 760 129 L808 58 Q773 25 724 6.5 Q675 -12 628 -12 Q496 -12 438 86 Q409 42 354.5 15 Q300 -12 235 -12 Q183 -12 138 6 Q93 24 66 60 Q39 96 39 147 Q39 222 90 263.5 Q141 305 216 305 Q268 305 312.5 289.5 Q357 274 386 245 L386 316 Q386 357 352 381 Q318 405 263 405 Q174 405 107 344 L64 417 Q148 495 272 495 Q338 495 383 471 Q428 447 446 402 Q476 446 517.5 470.5 Q559 495 623 495 Q689 495 738.5 461 Q788 427 815 367.5 Q842 308 842 232 L842 207 L491 207 Z M740 281 Q738 331 706.5 370 Q675 409 615 409 Q558 409 525.5 370 Q493 331 490 281 L740 281 Z M386 182 Q365 206 330.5 219.5 Q296 233 258 233 Q208 233 176.5 212.5 Q145 192 145 154 Q145 116 176 96 Q207 76 258 76 Q292 76 321.5 91 Q351 106 368.5 129 Q386 152 386 175 L386 182 Z M400 556 L540 700 L640 700 L475 556 L400 556 Z " />
<glyph glyph-name="uni1E03" unicode="&#x1e03;" horiz-adv-x="581" d="M68 667 L173 667 L173 416 Q201 454 241.5 474.5 Q282 495 328 495 Q390 495 438.5 464 Q487 433 514.5 375.5 Q542 318 542 241 Q542 163 514.5 106 Q487 49 438.5 18.5 Q390 -12 328 -12 Q282 -12 241.5 8.5 Q201 29 173 66 L173 0 L68 0 L68 667 Z M173 145 Q190 118 225.5 99.5 Q261 81 297 81 Q359 81 396.5 125.5 Q434 170 434 241 Q434 312 396.5 357 Q359 402 297 402 Q261 402 226 383 Q191 364 173 336 L173 145 Z M238 789 Q238 813 255.5 830.5 Q273 848 297 848 Q321 848 338 830.5 Q355 813 355 789 Q355 764 338 747 Q321 730 297 730 Q273 730 255.5 747 Q238 764 238 789 Z " />
<glyph glyph-name="cacute" unicode="&#x107;" horiz-adv-x="497" d="M38 242 Q38 314 70 372 Q102 430 159 462.5 Q216 495 288 495 Q409 495 473 409 L404 345 Q364 402 293 402 Q227 402 187 357.5 Q147 313 147 242 Q147 171 187 126 Q227 81 293 81 Q362 81 404 138 L473 74 Q409 -12 288 -12 Q216 -12 159 20.5 Q102 53 70 111 Q38 169 38 242 Z M245 556 L385 700 L485 700 L320 556 L245 556 Z " />
<glyph glyph-name="ccedilla" unicode="&#xe7;" horiz-adv-x="497" d="M293 81 Q362 81 404 138 L473 74 Q416 -3 312 -11 L295 -53 Q311 -42 331 -42 Q360 -42 379 -61 Q398 -80 398 -109 Q398 -148 367 -171 Q336 -194 290 -194 Q257 -194 228.5 -185 Q200 -176 184 -163 L206 -117 Q242 -146 287 -146 Q311 -146 327 -136 Q343 -126 343 -108 Q343 -95 334.5 -87.5 Q326 -80 310 -80 Q289 -80 276 -95 L235 -72 L258 -10 Q193 -4 143 30 Q93 64 65.5 119 Q38 174 38 242 Q38 314 70 372 Q102 430 159 462.5 Q216 495 288 495 Q409 495 473 409 L404 345 Q364 402 293 402 Q227 402 187 357.5 Q147 313 147 242 Q147 171 187 126 Q227 81 293 81 Z " />
<glyph glyph-name="ccircumflex" unicode="&#x109;" horiz-adv-x="497" d="M38 242 Q38 314 70 372 Q102 430 159 462.5 Q216 495 288 495 Q409 495 473 409 L404 345 Q364 402 293 402 Q227 402 187 357.5 Q147 313 147 242 Q147 171 187 126 Q227 81 293 81 Q362 81 404 138 L473 74 Q409 -12 288 -12 Q216 -12 159 20.5 Q102 53 70 111 Q38 169 38 242 Z M286 652 L211 556 L145 556 L238 700 L334 700 L430 556 L363 556 L286 652 Z " />
<glyph glyph-name="cdotaccent" unicode="&#x10b;" horiz-adv-x="497" d="M38 242 Q38 314 70 372 Q102 430 159 462.5 Q216 495 288 495 Q409 495 473 409 L404 345 Q364 402 293 402 Q227 402 187 357.5 Q147 313 147 242 Q147 171 187 126 Q227 81 293 81 Q362 81 404 138 L473 74 Q409 -12 288 -12 Q216 -12 159 20.5 Q102 53 70 111 Q38 169 38 242 Z M227 622 Q227 646 244.5 663.5 Q262 681 286 681 Q310 681 327 663.5 Q344 646 344 622 Q344 597 327 580 Q310 563 286 563 Q262 563 244.5 580 Q227 597 227 622 Z " />
<glyph glyph-name="ccaron" unicode="&#x10d;" horiz-adv-x="497" d="M38 242 Q38 314 70 372 Q102 430 159 462.5 Q216 495 288 495 Q409 495 473 409 L404 345 Q364 402 293 402 Q227 402 187 357.5 Q147 313 147 242 Q147 171 187 126 Q227 81 293 81 Q362 81 404 138 L473 74 Q409 -12 288 -12 Q216 -12 159 20.5 Q102 53 70 111 Q38 169 38 242 Z M142 700 L208 700 L286 603 L360 700 L427 700 L334 556 L238 556 L142 700 Z " />
<glyph glyph-name="dcaron" unicode="&#x10f;" horiz-adv-x="670" d="M408 66 Q380 29 339.5 8.5 Q299 -12 253 -12 Q191 -12 142 18.5 Q93 49 65.5 106 Q38 163 38 241 Q38 318 65.5 375.5 Q93 433 142 464 Q191 495 253 495 Q298 495 338.5 474.5 Q379 454 408 416 L408 667 L513 667 L513 0 L408 0 L408 66 Z M408 337 Q390 365 355 383.5 Q320 402 283 402 Q221 402 184 357 Q147 312 147 241 Q147 170 184 125.5 Q221 81 283 81 Q320 81 355 99 Q390 117 408 145 L408 337 Z M558 492 Q579 505 597 529 Q615 553 619 574 Q615 572 605 572 Q585 572 571 586.5 Q557 601 557 623 Q557 646 573 662.5 Q589 679 612 679 Q638 679 656.5 659 Q675 639 675 604 Q675 562 653.5 524 Q632 486 597 461 L558 492 Z " />
<glyph glyph-name="dslash" unicode="&#x111;" horiz-adv-x="585" d="M576 531 L513 531 L513 0 L408 0 L408 66 Q380 29 339.5 8.5 Q299 -12 253 -12 Q191 -12 142 18.5 Q93 49 65.5 106 Q38 163 38 241 Q38 318 65.5 375.5 Q93 433 142 464 Q191 495 253 495 Q298 495 338.5 474.5 Q379 454 408 416 L408 531 L258 531 L258 593 L408 593 L408 667 L513 667 L513 593 L576 593 L576 531 Z M408 337 Q390 365 355 383.5 Q320 402 283 402 Q221 402 184 357 Q147 312 147 241 Q147 170 184 125.5 Q221 81 283 81 Q320 81 355 99 Q390 117 408 145 L408 337 Z " />
<glyph glyph-name="uni1E0B" unicode="&#x1e0b;" horiz-adv-x="581" d="M408 66 Q380 29 339.5 8.5 Q299 -12 253 -12 Q191 -12 142 18.5 Q93 49 65.5 106 Q38 163 38 241 Q38 318 65.5 375.5 Q93 433 142 464 Q191 495 253 495 Q298 495 338.5 474.5 Q379 454 408 416 L408 667 L513 667 L513 0 L408 0 L408 66 Z M408 337 Q390 365 355 383.5 Q320 402 283 402 Q221 402 184 357 Q147 312 147 241 Q147 170 184 125.5 Q221 81 283 81 Q320 81 355 99 Q390 117 408 145 L408 337 Z M234 789 Q234 813 251.5 830.5 Q269 848 293 848 Q317 848 334 830.5 Q351 813 351 789 Q351 764 334 747 Q317 730 293 730 Q269 730 251.5 747 Q234 764 234 789 Z " />
<glyph glyph-name="eacute" unicode="&#xe9;" horiz-adv-x="557" d="M38 242 Q38 312 69.5 369.5 Q101 427 157 461 Q213 495 283 495 Q354 495 408 461 Q462 427 491.5 367.5 Q521 308 521 232 L521 207 L148 207 Q154 150 195 112 Q236 74 302 74 Q339 74 376.5 88 Q414 102 439 127 L487 58 Q451 24 400 6 Q349 -12 291 -12 Q219 -12 161.5 19.5 Q104 51 71 109 Q38 167 38 242 Z M283 409 Q221 409 186 370.5 Q151 332 147 281 L419 281 Q418 312 403 341.5 Q388 371 358 390 Q328 409 283 409 Z M242 556 L382 700 L482 700 L317 556 L242 556 Z " />
<glyph glyph-name="ebreve" unicode="&#x115;" horiz-adv-x="557" d="M38 242 Q38 312 69.5 369.5 Q101 427 157 461 Q213 495 283 495 Q354 495 408 461 Q462 427 491.5 367.5 Q521 308 521 232 L521 207 L148 207 Q154 150 195 112 Q236 74 302 74 Q339 74 376.5 88 Q414 102 439 127 L487 58 Q451 24 400 6 Q349 -12 291 -12 Q219 -12 161.5 19.5 Q104 51 71 109 Q38 167 38 242 Z M283 409 Q221 409 186 370.5 Q151 332 147 281 L419 281 Q418 312 403 341.5 Q388 371 358 390 Q328 409 283 409 Z M283 554 Q230 554 184 577.5 Q138 601 107 642 L155 682 Q177 651 210 633.5 Q243 616 283 616 Q322 616 355 633.5 Q388 651 410 682 L458 642 Q427 601 381.5 577.5 Q336 554 283 554 Z " />
<glyph glyph-name="ecircumflex" unicode="&#xea;" horiz-adv-x="557" d="M38 242 Q38 312 69.5 369.5 Q101 427 157 461 Q213 495 283 495 Q354 495 408 461 Q462 427 491.5 367.5 Q521 308 521 232 L521 207 L148 207 Q154 150 195 112 Q236 74 302 74 Q339 74 376.5 88 Q414 102 439 127 L487 58 Q451 24 400 6 Q349 -12 291 -12 Q219 -12 161.5 19.5 Q104 51 71 109 Q38 167 38 242 Z M283 409 Q221 409 186 370.5 Q151 332 147 281 L419 281 Q418 312 403 341.5 Q388 371 358 390 Q328 409 283 409 Z M283 652 L208 556 L142 556 L235 700 L331 700 L427 556 L360 556 L283 652 Z " />
<glyph glyph-name="edieresis" unicode="&#xeb;" horiz-adv-x="557" d="M38 242 Q38 312 69.5 369.5 Q101 427 157 461 Q213 495 283 495 Q354 495 408 461 Q462 427 491.5 367.5 Q521 308 521 232 L521 207 L148 207 Q154 150 195 112 Q236 74 302 74 Q339 74 376.5 88 Q414 102 439 127 L487 58 Q451 24 400 6 Q349 -12 291 -12 Q219 -12 161.5 19.5 Q104 51 71 109 Q38 167 38 242 Z M283 409 Q221 409 186 370.5 Q151 332 147 281 L419 281 Q418 312 403 341.5 Q388 371 358 390 Q328 409 283 409 Z M179 564 Q154 564 137 581 Q120 598 120 623 Q120 647 137 664 Q154 681 179 681 Q203 681 220 664 Q237 647 237 623 Q237 598 220 581 Q203 564 179 564 Z M388 564 Q364 564 346.5 581 Q329 598 329 623 Q329 647 346.5 664 Q364 681 388 681 Q412 681 429.5 664 Q447 647 447 623 Q447 598 429.5 581 Q412 564 388 564 Z " />
<glyph glyph-name="edotaccent" unicode="&#x117;" horiz-adv-x="557" d="M38 242 Q38 312 69.5 369.5 Q101 427 157 461 Q213 495 283 495 Q354 495 408 461 Q462 427 491.5 367.5 Q521 308 521 232 L521 207 L148 207 Q154 150 195 112 Q236 74 302 74 Q339 74 376.5 88 Q414 102 439 127 L487 58 Q451 24 400 6 Q349 -12 291 -12 Q219 -12 161.5 19.5 Q104 51 71 109 Q38 167 38 242 Z M283 409 Q221 409 186 370.5 Q151 332 147 281 L419 281 Q418 312 403 341.5 Q388 371 358 390 Q328 409 283 409 Z M224 622 Q224 646 241.5 663.5 Q259 681 283 681 Q307 681 324 663.5 Q341 646 341 622 Q341 597 324 580 Q307 563 283 563 Q259 563 241.5 580 Q224 597 224 622 Z " />
<glyph glyph-name="egrave" unicode="&#xe8;" horiz-adv-x="557" d="M38 242 Q38 312 69.5 369.5 Q101 427 157 461 Q213 495 283 495 Q354 495 408 461 Q462 427 491.5 367.5 Q521 308 521 232 L521 207 L148 207 Q154 150 195 112 Q236 74 302 74 Q339 74 376.5 88 Q414 102 439 127 L487 58 Q451 24 400 6 Q349 -12 291 -12 Q219 -12 161.5 19.5 Q104 51 71 109 Q38 167 38 242 Z M283 409 Q221 409 186 370.5 Q151 332 147 281 L419 281 Q418 312 403 341.5 Q388 371 358 390 Q328 409 283 409 Z M80 700 L180 700 L320 556 L245 556 L80 700 Z " />
<glyph glyph-name="emacron" unicode="&#x113;" horiz-adv-x="557" d="M38 242 Q38 312 69.5 369.5 Q101 427 157 461 Q213 495 283 495 Q354 495 408 461 Q462 427 491.5 367.5 Q521 308 521 232 L521 207 L148 207 Q154 150 195 112 Q236 74 302 74 Q339 74 376.5 88 Q414 102 439 127 L487 58 Q451 24 400 6 Q349 -12 291 -12 Q219 -12 161.5 19.5 Q104 51 71 109 Q38 167 38 242 Z M283 409 Q221 409 186 370.5 Q151 332 147 281 L419 281 Q418 312 403 341.5 Q388 371 358 390 Q328 409 283 409 Z M121 628 L444 628 L444 566 L121 566 L121 628 Z " />
<glyph glyph-name="eogonek" unicode="&#x119;" horiz-adv-x="557" d="M291 -12 Q219 -12 161.5 19.5 Q104 51 71 109 Q38 167 38 242 Q38 312 69.5 369.5 Q101 427 157 461 Q213 495 283 495 Q354 495 408 461 Q462 427 491.5 367.5 Q521 308 521 232 L521 207 L148 207 Q154 150 195 112 Q236 74 302 74 Q339 74 376.5 88 Q414 102 439 127 L487 58 Q386 -21 386 -75 Q386 -95 397 -105 Q408 -115 423 -115 Q439 -115 453 -108 L477 -169 Q449 -186 397 -186 Q353 -186 322 -166 Q291 -146 291 -109 Q291 -57 371 -3 Q331 -12 291 -12 Z M283 409 Q221 409 186 370.5 Q151 332 147 281 L419 281 Q418 312 403 341.5 Q388 371 358 390 Q328 409 283 409 Z " />
<glyph glyph-name="ecaron" unicode="&#x11b;" horiz-adv-x="557" d="M38 242 Q38 312 69.5 369.5 Q101 427 157 461 Q213 495 283 495 Q354 495 408 461 Q462 427 491.5 367.5 Q521 308 521 232 L521 207 L148 207 Q154 150 195 112 Q236 74 302 74 Q339 74 376.5 88 Q414 102 439 127 L487 58 Q451 24 400 6 Q349 -12 291 -12 Q219 -12 161.5 19.5 Q104 51 71 109 Q38 167 38 242 Z M283 409 Q221 409 186 370.5 Q151 332 147 281 L419 281 Q418 312 403 341.5 Q388 371 358 390 Q328 409 283 409 Z M139 700 L205 700 L283 603 L357 700 L424 700 L331 556 L235 556 L139 700 Z " />
<glyph glyph-name="uni1EB9" unicode="&#x1eb9;" horiz-adv-x="557" d="M38 242 Q38 312 69.5 369.5 Q101 427 157 461 Q213 495 283 495 Q354 495 408 461 Q462 427 491.5 367.5 Q521 308 521 232 L521 207 L148 207 Q154 150 195 112 Q236 74 302 74 Q339 74 376.5 88 Q414 102 439 127 L487 58 Q451 24 400 6 Q349 -12 291 -12 Q219 -12 161.5 19.5 Q104 51 71 109 Q38 167 38 242 Z M283 409 Q221 409 186 370.5 Q151 332 147 281 L419 281 Q418 312 403 341.5 Q388 371 358 390 Q328 409 283 409 Z M224 -118 Q224 -94 241.5 -76.5 Q259 -59 283 -59 Q307 -59 324 -76.5 Q341 -94 341 -118 Q341 -143 324 -160 Q307 -177 283 -177 Q259 -177 241.5 -160 Q224 -143 224 -118 Z " />
<glyph glyph-name="uni1EBB" unicode="&#x1ebb;" horiz-adv-x="557" d="M38 242 Q38 312 69.5 369.5 Q101 427 157 461 Q213 495 283 495 Q354 495 408 461 Q462 427 491.5 367.5 Q521 308 521 232 L521 207 L148 207 Q154 150 195 112 Q236 74 302 74 Q339 74 376.5 88 Q414 102 439 127 L487 58 Q451 24 400 6 Q349 -12 291 -12 Q219 -12 161.5 19.5 Q104 51 71 109 Q38 167 38 242 Z M283 409 Q221 409 186 370.5 Q151 332 147 281 L419 281 Q418 312 403 341.5 Q388 371 358 390 Q328 409 283 409 Z M176 644 Q187 678 213.5 697 Q240 716 276 716 Q318 716 346 693 Q374 670 374 624 Q374 605 368.5 590 Q363 575 352 557 L290 557 Q317 587 317 622 Q317 644 305.5 655.5 Q294 667 276 667 Q242 667 228 628 L176 644 Z " />
<glyph glyph-name="uni1EBD" unicode="&#x1ebd;" horiz-adv-x="557" d="M38 242 Q38 312 69.5 369.5 Q101 427 157 461 Q213 495 283 495 Q354 495 408 461 Q462 427 491.5 367.5 Q521 308 521 232 L521 207 L148 207 Q154 150 195 112 Q236 74 302 74 Q339 74 376.5 88 Q414 102 439 127 L487 58 Q451 24 400 6 Q349 -12 291 -12 Q219 -12 161.5 19.5 Q104 51 71 109 Q38 167 38 242 Z M283 409 Q221 409 186 370.5 Q151 332 147 281 L419 281 Q418 312 403 341.5 Q388 371 358 390 Q328 409 283 409 Z M265 600 Q253 616 243.5 624 Q234 632 222 632 Q204 632 192 614 Q180 596 180 560 L123 560 Q123 622 149.5 658 Q176 694 226 694 Q252 694 268 682 Q284 670 301 648 Q315 631 324 623.5 Q333 616 345 616 Q363 616 374.5 634 Q386 652 386 688 L444 688 Q444 626 417.5 590 Q391 554 341 554 Q315 554 298.5 566 Q282 578 265 600 Z " />
<glyph glyph-name="uni1EBF" unicode="&#x1ebf;" horiz-adv-x="557" d="M38 242 Q38 312 69.5 369.5 Q101 427 157 461 Q213 495 283 495 Q354 495 408 461 Q462 427 491.5 367.5 Q521 308 521 232 L521 207 L148 207 Q154 150 195 112 Q236 74 302 74 Q339 74 376.5 88 Q414 102 439 127 L487 58 Q451 24 400 6 Q349 -12 291 -12 Q219 -12 161.5 19.5 Q104 51 71 109 Q38 167 38 242 Z M283 409 Q221 409 186 370.5 Q151 332 147 281 L419 281 Q418 312 403 341.5 Q388 371 358 390 Q328 409 283 409 Z M283 652 L208 556 L142 556 L235 700 L331 700 L427 556 L360 556 L283 652 Z M396 656 L536 800 L636 800 L471 656 L396 656 Z " />
<glyph glyph-name="uni1EC1" unicode="&#x1ec1;" horiz-adv-x="557" d="M38 242 Q38 312 69.5 369.5 Q101 427 157 461 Q213 495 283 495 Q354 495 408 461 Q462 427 491.5 367.5 Q521 308 521 232 L521 207 L148 207 Q154 150 195 112 Q236 74 302 74 Q339 74 376.5 88 Q414 102 439 127 L487 58 Q451 24 400 6 Q349 -12 291 -12 Q219 -12 161.5 19.5 Q104 51 71 109 Q38 167 38 242 Z M283 409 Q221 409 186 370.5 Q151 332 147 281 L419 281 Q418 312 403 341.5 Q388 371 358 390 Q328 409 283 409 Z M283 652 L208 556 L142 556 L235 700 L331 700 L427 556 L360 556 L283 652 Z M-65 800 L35 800 L175 656 L100 656 L-65 800 Z " />
<glyph glyph-name="uni1EC3" unicode="&#x1ec3;" horiz-adv-x="557" d="M38 242 Q38 312 69.5 369.5 Q101 427 157 461 Q213 495 283 495 Q354 495 408 461 Q462 427 491.5 367.5 Q521 308 521 232 L521 207 L148 207 Q154 150 195 112 Q236 74 302 74 Q339 74 376.5 88 Q414 102 439 127 L487 58 Q451 24 400 6 Q349 -12 291 -12 Q219 -12 161.5 19.5 Q104 51 71 109 Q38 167 38 242 Z M283 409 Q221 409 186 370.5 Q151 332 147 281 L419 281 Q418 312 403 341.5 Q388 371 358 390 Q328 409 283 409 Z M283 652 L208 556 L142 556 L235 700 L331 700 L427 556 L360 556 L283 652 Z M282 743 Q293 777 319.5 796 Q346 815 382 815 Q424 815 452 792 Q480 769 480 723 Q480 704 474.5 689 Q469 674 458 656 L396 656 Q423 686 423 721 Q423 743 411.5 754.5 Q400 766 382 766 Q348 766 334 727 L282 743 Z " />
<glyph glyph-name="uni1EC5" unicode="&#x1ec5;" horiz-adv-x="557" d="M38 242 Q38 312 69.5 369.5 Q101 427 157 461 Q213 495 283 495 Q354 495 408 461 Q462 427 491.5 367.5 Q521 308 521 232 L521 207 L148 207 Q154 150 195 112 Q236 74 302 74 Q339 74 376.5 88 Q414 102 439 127 L487 58 Q451 24 400 6 Q349 -12 291 -12 Q219 -12 161.5 19.5 Q104 51 71 109 Q38 167 38 242 Z M283 409 Q221 409 186 370.5 Q151 332 147 281 L419 281 Q418 312 403 341.5 Q388 371 358 390 Q328 409 283 409 Z M283 652 L208 556 L142 556 L235 700 L331 700 L427 556 L360 556 L283 652 Z M265 762 Q253 778 243.5 786 Q234 794 222 794 Q204 794 192 776 Q180 758 180 722 L123 722 Q123 784 149.5 820 Q176 856 226 856 Q252 856 268 844 Q284 832 301 810 Q315 793 324 785.5 Q333 778 345 778 Q363 778 374.5 796 Q386 814 386 850 L444 850 Q444 788 417.5 752 Q391 716 341 716 Q315 716 298.5 728 Q282 740 265 762 Z " />
<glyph glyph-name="uni1EC7" unicode="&#x1ec7;" horiz-adv-x="557" d="M38 242 Q38 312 69.5 369.5 Q101 427 157 461 Q213 495 283 495 Q354 495 408 461 Q462 427 491.5 367.5 Q521 308 521 232 L521 207 L148 207 Q154 150 195 112 Q236 74 302 74 Q339 74 376.5 88 Q414 102 439 127 L487 58 Q451 24 400 6 Q349 -12 291 -12 Q219 -12 161.5 19.5 Q104 51 71 109 Q38 167 38 242 Z M283 409 Q221 409 186 370.5 Q151 332 147 281 L419 281 Q418 312 403 341.5 Q388 371 358 390 Q328 409 283 409 Z M224 -118 Q224 -94 241.5 -76.5 Q259 -59 283 -59 Q307 -59 324 -76.5 Q341 -94 341 -118 Q341 -143 324 -160 Q307 -177 283 -177 Q259 -177 241.5 -160 Q224 -143 224 -118 Z M283 652 L208 556 L142 556 L235 700 L331 700 L427 556 L360 556 L283 652 Z " />
<glyph glyph-name="f_f" unicode="&#xfb00;" horiz-adv-x="616" d="M93 391 L13 391 L13 483 L93 483 L93 510 Q93 589 135 633 Q177 677 246 677 Q297 677 330 658 L307 581 Q290 591 265 591 Q234 591 216 570.5 Q198 550 198 510 L198 483 L296 483 L296 391 L198 391 L198 0 L93 0 L93 391 Z M401 391 L321 391 L321 483 L401 483 L401 510 Q401 589 443 633 Q485 677 554 677 Q605 677 638 658 L615 581 Q598 591 573 591 Q542 591 524 570.5 Q506 550 506 510 L506 483 L604 483 L604 391 L506 391 L506 0 L401 0 L401 391 Z " />
<glyph glyph-name="fi" unicode="&#xfb01;" horiz-adv-x="549" d="M93 391 L13 391 L13 483 L93 483 L93 510 Q93 589 135 633 Q177 677 246 677 Q297 677 330 658 L307 580 Q291 591 265 591 Q234 591 216 570.5 Q198 550 198 510 L198 483 L296 483 L296 391 L198 391 L198 0 L93 0 L93 391 Z M428 557 Q402 557 382.5 576 Q363 595 363 622 Q363 649 382.5 668 Q402 687 428 687 Q455 687 474 668 Q493 649 493 622 Q493 595 474 576 Q455 557 428 557 Z M376 483 L481 483 L481 0 L376 0 L376 483 Z " />
<glyph glyph-name="f_j" unicode="&#xe005;" horiz-adv-x="549" d="M93 391 L13 391 L13 483 L93 483 L93 510 Q93 589 135 633 Q177 677 246 677 Q297 677 330 658 L307 580 Q291 591 265 591 Q234 591 216 570.5 Q198 550 198 510 L198 483 L296 483 L296 391 L198 391 L198 0 L93 0 L93 391 Z M428 557 Q402 557 382.5 576 Q363 595 363 622 Q363 649 382.5 668 Q402 687 428 687 Q455 687 474 668 Q493 649 493 622 Q493 595 474 576 Q455 557 428 557 Z M481 -28 Q481 -107 440 -151.5 Q399 -196 321 -196 Q292 -196 267 -191 L278 -104 Q290 -107 308 -107 Q339 -107 357.5 -88 Q376 -69 376 -28 L376 483 L481 483 L481 -28 Z " />
<glyph glyph-name="fl" unicode="&#xfb02;" horiz-adv-x="549" d="M93 391 L13 391 L13 483 L93 483 L93 510 Q93 589 135 633 Q177 677 246 677 Q297 677 330 658 L307 580 Q291 591 265 591 Q234 591 216 570.5 Q198 550 198 510 L198 483 L296 483 L296 391 L198 391 L198 0 L93 0 L93 391 Z M376 667 L481 667 L481 0 L376 0 L376 667 Z " />
<glyph glyph-name="f_f_i" unicode="&#xfb03;" horiz-adv-x="857" d="M93 391 L13 391 L13 483 L93 483 L93 510 Q93 589 135 633 Q177 677 246 677 Q297 677 330 658 L307 581 Q290 591 265 591 Q234 591 216 570.5 Q198 550 198 510 L198 483 L296 483 L296 391 L198 391 L198 0 L93 0 L93 391 Z M401 391 L321 391 L321 483 L401 483 L401 510 Q401 589 443 633 Q485 677 554 677 Q605 677 638 658 L615 580 Q599 591 573 591 Q542 591 524 570.5 Q506 550 506 510 L506 483 L604 483 L604 391 L506 391 L506 0 L401 0 L401 391 Z M736 557 Q710 557 690.5 576 Q671 595 671 622 Q671 649 690.5 668 Q710 687 736 687 Q763 687 782 668 Q801 649 801 622 Q801 595 782 576 Q763 557 736 557 Z M684 483 L789 483 L789 0 L684 0 L684 483 Z " />
<glyph glyph-name="f_f_j" unicode="&#xe004;" horiz-adv-x="857" d="M93 391 L13 391 L13 483 L93 483 L93 510 Q93 589 135 633 Q177 677 246 677 Q297 677 330 658 L307 581 Q290 591 265 591 Q234 591 216 570.5 Q198 550 198 510 L198 483 L296 483 L296 391 L198 391 L198 0 L93 0 L93 391 Z M401 391 L321 391 L321 483 L401 483 L401 510 Q401 589 443 633 Q485 677 554 677 Q605 677 638 658 L615 580 Q599 591 573 591 Q542 591 524 570.5 Q506 550 506 510 L506 483 L604 483 L604 391 L506 391 L506 0 L401 0 L401 391 Z M736 557 Q710 557 690.5 576 Q671 595 671 622 Q671 649 690.5 668 Q710 687 736 687 Q763 687 782 668 Q801 649 801 622 Q801 595 782 576 Q763 557 736 557 Z M789 -28 Q789 -107 748 -151.5 Q707 -196 629 -196 Q600 -196 575 -191 L586 -104 Q598 -107 616 -107 Q647 -107 665.5 -88 Q684 -69 684 -28 L684 483 L789 483 L789 -28 Z " />
<glyph glyph-name="f_f_l" unicode="&#xfb04;" horiz-adv-x="857" d="M93 391 L13 391 L13 483 L93 483 L93 510 Q93 589 135 633 Q177 677 246 677 Q297 677 330 658 L307 581 Q290 591 265 591 Q234 591 216 570.5 Q198 550 198 510 L198 483 L296 483 L296 391 L198 391 L198 0 L93 0 L93 391 Z M401 391 L321 391 L321 483 L401 483 L401 510 Q401 589 443 633 Q485 677 554 677 Q605 677 638 658 L615 580 Q599 591 573 591 Q542 591 524 570.5 Q506 550 506 510 L506 483 L604 483 L604 391 L506 391 L506 0 L401 0 L401 391 Z M684 667 L789 667 L789 0 L684 0 L684 667 Z " />
<glyph glyph-name="uni1E1F" unicode="&#x1e1f;" horiz-adv-x="308" d="M93 391 L13 391 L13 483 L93 483 L93 510 Q93 589 135 633 Q177 677 246 677 Q297 677 330 658 L307 581 Q290 591 265 591 Q234 591 216 570.5 Q198 550 198 510 L198 483 L296 483 L296 391 L198 391 L198 0 L93 0 L93 391 Z M168 789 Q168 813 185.5 830.5 Q203 848 227 848 Q251 848 268 830.5 Q285 813 285 789 Q285 764 268 747 Q251 730 227 730 Q203 730 185.5 747 Q168 764 168 789 Z " />
<glyph glyph-name="gcircumflex" unicode="&#x11d;" horiz-adv-x="580" d="M111 -48 Q139 -81 176.5 -95.5 Q214 -110 264 -110 Q324 -110 365.5 -78.5 Q407 -47 407 21 L407 79 Q378 42 338 20.5 Q298 -1 252 -1 Q190 -1 141.5 28 Q93 57 65.5 113 Q38 169 38 247 Q38 323 65.5 379.5 Q93 436 141.5 465.5 Q190 495 252 495 Q298 495 338 474.5 Q378 454 407 416 L407 483 L512 483 L512 25 Q512 -94 440.5 -145 Q369 -196 264 -196 Q200 -196 152.5 -179.5 Q105 -163 62 -124 L111 -48 Z M407 337 Q389 364 354 383 Q319 402 283 402 Q221 402 184 359.5 Q147 317 147 247 Q147 177 184 134.5 Q221 92 283 92 Q319 92 354 111 Q389 130 407 157 L407 337 Z M293 652 L218 556 L152 556 L245 700 L341 700 L437 556 L370 556 L293 652 Z " />
<glyph glyph-name="gbreve" unicode="&#x11f;" horiz-adv-x="580" d="M111 -48 Q139 -81 176.5 -95.5 Q214 -110 264 -110 Q324 -110 365.5 -78.5 Q407 -47 407 21 L407 79 Q378 42 338 20.5 Q298 -1 252 -1 Q190 -1 141.5 28 Q93 57 65.5 113 Q38 169 38 247 Q38 323 65.5 379.5 Q93 436 141.5 465.5 Q190 495 252 495 Q298 495 338 474.5 Q378 454 407 416 L407 483 L512 483 L512 25 Q512 -94 440.5 -145 Q369 -196 264 -196 Q200 -196 152.5 -179.5 Q105 -163 62 -124 L111 -48 Z M407 337 Q389 364 354 383 Q319 402 283 402 Q221 402 184 359.5 Q147 317 147 247 Q147 177 184 134.5 Q221 92 283 92 Q319 92 354 111 Q389 130 407 157 L407 337 Z M293 554 Q240 554 194 577.5 Q148 601 117 642 L165 682 Q187 651 220 633.5 Q253 616 293 616 Q332 616 365 633.5 Q398 651 420 682 L468 642 Q437 601 391.5 577.5 Q346 554 293 554 Z " />
<glyph glyph-name="gdotaccent" unicode="&#x121;" horiz-adv-x="580" d="M111 -48 Q139 -81 176.5 -95.5 Q214 -110 264 -110 Q324 -110 365.5 -78.5 Q407 -47 407 21 L407 79 Q378 42 338 20.5 Q298 -1 252 -1 Q190 -1 141.5 28 Q93 57 65.5 113 Q38 169 38 247 Q38 323 65.5 379.5 Q93 436 141.5 465.5 Q190 495 252 495 Q298 495 338 474.5 Q378 454 407 416 L407 483 L512 483 L512 25 Q512 -94 440.5 -145 Q369 -196 264 -196 Q200 -196 152.5 -179.5 Q105 -163 62 -124 L111 -48 Z M407 337 Q389 364 354 383 Q319 402 283 402 Q221 402 184 359.5 Q147 317 147 247 Q147 177 184 134.5 Q221 92 283 92 Q319 92 354 111 Q389 130 407 157 L407 337 Z M234 622 Q234 646 251.5 663.5 Q269 681 293 681 Q317 681 334 663.5 Q351 646 351 622 Q351 597 334 580 Q317 563 293 563 Q269 563 251.5 580 Q234 597 234 622 Z " />
<glyph glyph-name="uni0123" unicode="&#x123;" horiz-adv-x="580" d="M350 744 Q329 731 310.5 708 Q292 685 290 665 L296 666 Q316 666 333 650.5 Q350 635 350 613 Q350 590 333.5 573.5 Q317 557 293 557 Q271 557 253.5 574 Q236 591 236 626 Q236 672 256.5 711.5 Q277 751 311 775 L350 744 Z M111 -48 Q139 -81 176.5 -95.5 Q214 -110 264 -110 Q324 -110 365.5 -78.5 Q407 -47 407 21 L407 79 Q378 42 338 20.5 Q298 -1 252 -1 Q190 -1 141.5 28 Q93 57 65.5 113 Q38 169 38 247 Q38 323 65.5 379.5 Q93 436 141.5 465.5 Q190 495 252 495 Q298 495 338 474.5 Q378 454 407 416 L407 483 L512 483 L512 25 Q512 -94 440.5 -145 Q369 -196 264 -196 Q200 -196 152.5 -179.5 Q105 -163 62 -124 L111 -48 Z M407 337 Q389 364 354 383 Q319 402 283 402 Q221 402 184 359.5 Q147 317 147 247 Q147 177 184 134.5 Q221 92 283 92 Q319 92 354 111 Q389 130 407 157 L407 337 Z " />
<glyph glyph-name="hbar" unicode="&#x127;" horiz-adv-x="571" d="M347 495 Q424 495 463.5 456 Q503 417 503 342 L503 0 L398 0 L398 304 Q398 357 372.5 379.5 Q347 402 300 402 Q263 402 230 383 Q197 364 176 337 L176 0 L71 0 L71 531 L9 531 L9 593 L71 593 L71 667 L176 667 L176 593 L327 593 L327 531 L176 531 L176 417 Q203 449 248.5 472 Q294 495 347 495 Z " />
<glyph glyph-name="hcircumflex" unicode="&#x125;" horiz-adv-x="568" d="M395 304 Q395 357 369.5 379.5 Q344 402 297 402 Q260 402 227 383 Q194 364 173 337 L173 0 L68 0 L68 667 L173 667 L173 417 Q200 449 245.5 472 Q291 495 344 495 Q421 495 460.5 456 Q500 417 500 342 L500 0 L395 0 L395 304 Z M284 819 L209 723 L143 723 L236 867 L332 867 L428 723 L361 723 L284 819 Z " />
<glyph glyph-name="uni1E23" unicode="&#x1e23;" horiz-adv-x="568" d="M395 304 Q395 357 369.5 379.5 Q344 402 297 402 Q260 402 227 383 Q194 364 173 337 L173 0 L68 0 L68 667 L173 667 L173 417 Q200 449 245.5 472 Q291 495 344 495 Q421 495 460.5 456 Q500 417 500 342 L500 0 L395 0 L395 304 Z M225 789 Q225 813 242.5 830.5 Q260 848 284 848 Q308 848 325 830.5 Q342 813 342 789 Q342 764 325 747 Q308 730 284 730 Q260 730 242.5 747 Q225 764 225 789 Z " />
<glyph glyph-name="dotlessi" unicode="&#x131;" horiz-adv-x="241" d="M68 483 L173 483 L173 0 L68 0 L68 483 Z " />
<glyph glyph-name="iacute" unicode="&#xed;" horiz-adv-x="241" d="M68 483 L173 483 L173 0 L68 0 L68 483 Z M79 556 L219 700 L319 700 L154 556 L79 556 Z " />
<glyph glyph-name="ibreve" unicode="&#x12d;" horiz-adv-x="241" d="M68 483 L173 483 L173 0 L68 0 L68 483 Z M120 554 Q67 554 21 577.5 Q-25 601 -56 642 L-8 682 Q14 651 47 633.5 Q80 616 120 616 Q159 616 192 633.5 Q225 651 247 682 L295 642 Q264 601 218.5 577.5 Q173 554 120 554 Z " />
<glyph glyph-name="icircumflex" unicode="&#xee;" horiz-adv-x="241" d="M68 483 L173 483 L173 0 L68 0 L68 483 Z M120 652 L45 556 L-21 556 L72 700 L168 700 L264 556 L197 556 L120 652 Z " />
<glyph glyph-name="idieresis" unicode="&#xef;" horiz-adv-x="241" d="M68 483 L173 483 L173 0 L68 0 L68 483 Z M16 564 Q-9 564 -26 581 Q-43 598 -43 623 Q-43 647 -26 664 Q-9 681 16 681 Q40 681 57 664 Q74 647 74 623 Q74 598 57 581 Q40 564 16 564 Z M225 564 Q201 564 183.5 581 Q166 598 166 623 Q166 647 183.5 664 Q201 681 225 681 Q249 681 266.5 664 Q284 647 284 623 Q284 598 266.5 581 Q249 564 225 564 Z " />
<glyph glyph-name="igrave" unicode="&#xec;" horiz-adv-x="241" d="M68 483 L173 483 L173 0 L68 0 L68 483 Z M-83 700 L17 700 L157 556 L82 556 L-83 700 Z " />
<glyph glyph-name="imacron" unicode="&#x12b;" horiz-adv-x="241" d="M68 483 L173 483 L173 0 L68 0 L68 483 Z M-42 628 L281 628 L281 566 L-42 566 L-42 628 Z " />
<glyph glyph-name="iogonek" unicode="&#x12f;" horiz-adv-x="241" d="M120 557 Q94 557 74.5 576 Q55 595 55 622 Q55 649 74.5 668 Q94 687 120 687 Q147 687 166 668 Q185 649 185 622 Q185 595 166 576 Q147 557 120 557 Z M68 483 L173 483 L173 0 Q84 -34 84 -84 Q84 -98 94.5 -106.5 Q105 -115 119 -115 Q135 -115 149 -108 L173 -169 Q145 -186 93 -186 Q49 -186 18 -166 Q-13 -146 -13 -109 Q-13 -76 16.5 -48 Q46 -20 94 0 L68 0 L68 483 Z " />
<glyph glyph-name="itilde" unicode="&#x129;" horiz-adv-x="241" d="M68 483 L173 483 L173 0 L68 0 L68 483 Z M102 600 Q90 616 80.5 624 Q71 632 59 632 Q41 632 29 614 Q17 596 17 560 L-40 560 Q-40 622 -13.5 658 Q13 694 63 694 Q89 694 105 682 Q121 670 138 648 Q152 631 161 623.5 Q170 616 182 616 Q200 616 211.5 634 Q223 652 223 688 L281 688 Q281 626 254.5 590 Q228 554 178 554 Q152 554 135.5 566 Q119 578 102 600 Z " />
<glyph glyph-name="uni1EC9" unicode="&#x1ec9;" horiz-adv-x="241" d="M68 483 L173 483 L173 0 L68 0 L68 483 Z M13 644 Q24 678 50.5 697 Q77 716 113 716 Q155 716 183 693 Q211 670 211 624 Q211 605 205.5 590 Q200 575 189 557 L127 557 Q154 587 154 622 Q154 644 142.5 655.5 Q131 667 113 667 Q79 667 65 628 L13 644 Z " />
<glyph glyph-name="uni1ECB" unicode="&#x1ecb;" horiz-adv-x="241" d="M120 557 Q94 557 74.5 576 Q55 595 55 622 Q55 649 74.5 668 Q94 687 120 687 Q147 687 166 668 Q185 649 185 622 Q185 595 166 576 Q147 557 120 557 Z M68 483 L173 483 L173 0 L68 0 L68 483 Z M61 -118 Q61 -94 78.5 -76.5 Q96 -59 120 -59 Q144 -59 161 -76.5 Q178 -94 178 -118 Q178 -143 161 -160 Q144 -177 120 -177 Q96 -177 78.5 -160 Q61 -143 61 -118 Z " />
<glyph glyph-name="ij" unicode="&#x133;" horiz-adv-x="482" d="M120 557 Q94 557 74.5 576 Q55 595 55 622 Q55 649 74.5 668 Q94 687 120 687 Q147 687 166 668 Q185 649 185 622 Q185 595 166 576 Q147 557 120 557 Z M68 483 L173 483 L173 0 L68 0 L68 483 Z M361 557 Q335 557 315.5 576 Q296 595 296 622 Q296 649 315.5 668 Q335 687 361 687 Q388 687 407 668 Q426 649 426 622 Q426 595 407 576 Q388 557 361 557 Z M414 -28 Q414 -107 373 -151.5 Q332 -196 254 -196 Q225 -196 200 -191 L211 -104 Q223 -107 241 -107 Q272 -107 290.5 -88 Q309 -69 309 -28 L309 483 L414 483 L414 -28 Z " />
<glyph glyph-name="uni0237" unicode="&#x237;" horiz-adv-x="241" d="M-30 -104 Q-18 -107 0 -107 Q31 -107 49.5 -88 Q68 -69 68 -28 L68 483 L173 483 L173 -28 Q173 -107 132 -151.5 Q91 -196 13 -196 Q-16 -196 -41 -191 L-30 -104 Z " />
<glyph glyph-name="jcircumflex" unicode="&#x135;" horiz-adv-x="241" d="M-30 -104 Q-18 -107 0 -107 Q31 -107 49.5 -88 Q68 -69 68 -28 L68 483 L173 483 L173 -28 Q173 -107 132 -151.5 Q91 -196 13 -196 Q-16 -196 -41 -191 L-30 -104 Z M120 652 L45 556 L-21 556 L72 700 L168 700 L264 556 L197 556 L120 652 Z " />
<glyph glyph-name="uni0137" unicode="&#x137;" horiz-adv-x="526" d="M240 199 L173 130 L173 0 L68 0 L68 667 L173 667 L173 250 L386 483 L516 483 L315 264 L520 0 L388 0 L240 199 Z M211 -250 Q232 -237 250 -213 Q268 -189 272 -168 Q268 -170 258 -170 Q238 -170 224 -155.5 Q210 -141 210 -119 Q210 -96 226 -79.5 Q242 -63 265 -63 Q291 -63 309.5 -83 Q328 -103 328 -138 Q328 -180 306.5 -218 Q285 -256 250 -281 L211 -250 Z " />
<glyph glyph-name="kgreenlandic" unicode="&#x138;" horiz-adv-x="526" d="M240 199 L173 130 L173 0 L68 0 L68 483 L173 483 L173 250 L386 483 L516 483 L315 264 L520 0 L388 0 L240 199 Z " />
<glyph glyph-name="lacute" unicode="&#x13a;" horiz-adv-x="241" d="M68 667 L173 667 L173 0 L68 0 L68 667 Z M79 723 L219 867 L319 867 L154 723 L79 723 Z " />
<glyph glyph-name="uni013C" unicode="&#x13c;" horiz-adv-x="241" d="M68 667 L173 667 L173 0 L68 0 L68 667 Z M66 -250 Q87 -237 105 -213 Q123 -189 127 -168 Q123 -170 113 -170 Q93 -170 79 -155.5 Q65 -141 65 -119 Q65 -96 81 -79.5 Q97 -63 120 -63 Q146 -63 164.5 -83 Q183 -103 183 -138 Q183 -180 161.5 -218 Q140 -256 105 -281 L66 -250 Z " />
<glyph glyph-name="lcaron" unicode="&#x13e;" horiz-adv-x="327" d="M68 667 L173 667 L173 0 L68 0 L68 667 Z M218 492 Q239 505 257 529 Q275 553 279 574 Q275 572 265 572 Q245 572 231 586.5 Q217 601 217 623 Q217 646 233 662.5 Q249 679 272 679 Q298 679 316.5 659 Q335 639 335 604 Q335 562 313.5 524 Q292 486 257 461 L218 492 Z " />
<glyph glyph-name="ldot" unicode="&#x140;" horiz-adv-x="351" d="M68 667 L173 667 L173 0 L68 0 L68 667 Z M295 175 Q267 175 246 195.5 Q225 216 225 244 Q225 273 246 293.5 Q267 314 295 314 Q324 314 344.5 293.5 Q365 273 365 244 Q365 216 344 195.5 Q323 175 295 175 Z " />
<glyph glyph-name="lslash" unicode="&#x142;" horiz-adv-x="299" d="M289 375 L202 325 L202 0 L97 0 L97 265 L9 214 L9 293 L97 344 L97 667 L202 667 L202 404 L289 454 L289 375 Z " />
<glyph glyph-name="nacute" unicode="&#x144;" horiz-adv-x="567" d="M394 302 Q394 356 369 379 Q344 402 297 402 Q259 402 226 383 Q193 364 173 337 L173 0 L68 0 L68 483 L173 483 L173 417 Q200 449 245 472 Q290 495 343 495 Q420 495 459.5 455 Q499 415 499 340 L499 0 L394 0 L394 302 Z M243 556 L383 700 L483 700 L318 556 L243 556 Z " />
<glyph glyph-name="napostrophe" unicode="&#x149;" horiz-adv-x="567" d="M394 302 Q394 356 369 379 Q344 402 297 402 Q259 402 226 383 Q193 364 173 337 L173 0 L68 0 L68 483 L173 483 L173 417 Q200 449 245 472 Q290 495 343 495 Q420 495 459.5 455 Q499 415 499 340 L499 0 L394 0 L394 302 Z M52 568 Q73 581 91 605 Q109 629 113 650 Q109 648 99 648 Q79 648 65 662.5 Q51 677 51 699 Q51 722 67 738.5 Q83 755 106 755 Q132 755 150.5 735 Q169 715 169 680 Q169 638 147.5 600 Q126 562 91 537 L52 568 Z " />
<glyph glyph-name="ncaron" unicode="&#x148;" horiz-adv-x="567" d="M394 302 Q394 356 369 379 Q344 402 297 402 Q259 402 226 383 Q193 364 173 337 L173 0 L68 0 L68 483 L173 483 L173 417 Q200 449 245 472 Q290 495 343 495 Q420 495 459.5 455 Q499 415 499 340 L499 0 L394 0 L394 302 Z M140 700 L206 700 L284 603 L358 700 L425 700 L332 556 L236 556 L140 700 Z " />
<glyph glyph-name="uni0146" unicode="&#x146;" horiz-adv-x="567" d="M394 302 Q394 356 369 379 Q344 402 297 402 Q259 402 226 383 Q193 364 173 337 L173 0 L68 0 L68 483 L173 483 L173 417 Q200 449 245 472 Q290 495 343 495 Q420 495 459.5 455 Q499 415 499 340 L499 0 L394 0 L394 302 Z M230 -250 Q251 -237 269 -213 Q287 -189 291 -168 Q287 -170 277 -170 Q257 -170 243 -155.5 Q229 -141 229 -119 Q229 -96 245 -79.5 Q261 -63 284 -63 Q310 -63 328.5 -83 Q347 -103 347 -138 Q347 -180 325.5 -218 Q304 -256 269 -281 L230 -250 Z " />
<glyph glyph-name="ntilde" unicode="&#xf1;" horiz-adv-x="567" d="M394 302 Q394 356 369 379 Q344 402 297 402 Q259 402 226 383 Q193 364 173 337 L173 0 L68 0 L68 483 L173 483 L173 417 Q200 449 245 472 Q290 495 343 495 Q420 495 459.5 455 Q499 415 499 340 L499 0 L394 0 L394 302 Z M266 600 Q254 616 244.5 624 Q235 632 223 632 Q205 632 193 614 Q181 596 181 560 L124 560 Q124 622 150.5 658 Q177 694 227 694 Q253 694 269 682 Q285 670 302 648 Q316 631 325 623.5 Q334 616 346 616 Q364 616 375.5 634 Q387 652 387 688 L445 688 Q445 626 418.5 590 Q392 554 342 554 Q316 554 299.5 566 Q283 578 266 600 Z " />
<glyph glyph-name="eng" unicode="&#x14b;" horiz-adv-x="567" d="M499 -28 Q499 -107 458 -151.5 Q417 -196 339 -196 Q310 -196 285 -191 L296 -104 Q308 -107 326 -107 Q357 -107 375.5 -88 Q394 -69 394 -28 L394 302 Q394 356 369 379 Q344 402 297 402 Q259 402 226 383 Q193 364 173 337 L173 0 L68 0 L68 483 L173 483 L173 417 Q200 449 245 472 Q290 495 343 495 Q420 495 459.5 455 Q499 415 499 340 L499 -28 Z " />
<glyph glyph-name="oacute" unicode="&#xf3;" horiz-adv-x="573" d="M286 -12 Q212 -12 155.5 22 Q99 56 68.5 114 Q38 172 38 242 Q38 311 68.5 369 Q99 427 155.5 461 Q212 495 286 495 Q361 495 417.5 461 Q474 427 504.5 369.5 Q535 312 535 242 Q535 172 504.5 114 Q474 56 417.5 22 Q361 -12 286 -12 Z M286 81 Q351 81 388.5 127.5 Q426 174 426 242 Q426 309 388.5 355.5 Q351 402 286 402 Q222 402 184.5 355.5 Q147 309 147 242 Q147 174 184.5 127.5 Q222 81 286 81 Z M245 556 L385 700 L485 700 L320 556 L245 556 Z " />
<glyph glyph-name="obreve" unicode="&#x14f;" horiz-adv-x="573" d="M286 -12 Q212 -12 155.5 22 Q99 56 68.5 114 Q38 172 38 242 Q38 311 68.5 369 Q99 427 155.5 461 Q212 495 286 495 Q361 495 417.5 461 Q474 427 504.5 369.5 Q535 312 535 242 Q535 172 504.5 114 Q474 56 417.5 22 Q361 -12 286 -12 Z M286 81 Q351 81 388.5 127.5 Q426 174 426 242 Q426 309 388.5 355.5 Q351 402 286 402 Q222 402 184.5 355.5 Q147 309 147 242 Q147 174 184.5 127.5 Q222 81 286 81 Z M286 554 Q233 554 187 577.5 Q141 601 110 642 L158 682 Q180 651 213 633.5 Q246 616 286 616 Q325 616 358 633.5 Q391 651 413 682 L461 642 Q430 601 384.5 577.5 Q339 554 286 554 Z " />
<glyph glyph-name="ocircumflex" unicode="&#xf4;" horiz-adv-x="573" d="M286 -12 Q212 -12 155.5 22 Q99 56 68.5 114 Q38 172 38 242 Q38 311 68.5 369 Q99 427 155.5 461 Q212 495 286 495 Q361 495 417.5 461 Q474 427 504.5 369.5 Q535 312 535 242 Q535 172 504.5 114 Q474 56 417.5 22 Q361 -12 286 -12 Z M286 81 Q351 81 388.5 127.5 Q426 174 426 242 Q426 309 388.5 355.5 Q351 402 286 402 Q222 402 184.5 355.5 Q147 309 147 242 Q147 174 184.5 127.5 Q222 81 286 81 Z M286 652 L211 556 L145 556 L238 700 L334 700 L430 556 L363 556 L286 652 Z " />
<glyph glyph-name="odieresis" unicode="&#xf6;" horiz-adv-x="573" d="M286 -12 Q212 -12 155.5 22 Q99 56 68.5 114 Q38 172 38 242 Q38 311 68.5 369 Q99 427 155.5 461 Q212 495 286 495 Q361 495 417.5 461 Q474 427 504.5 369.5 Q535 312 535 242 Q535 172 504.5 114 Q474 56 417.5 22 Q361 -12 286 -12 Z M286 81 Q351 81 388.5 127.5 Q426 174 426 242 Q426 309 388.5 355.5 Q351 402 286 402 Q222 402 184.5 355.5 Q147 309 147 242 Q147 174 184.5 127.5 Q222 81 286 81 Z M182 564 Q157 564 140 581 Q123 598 123 623 Q123 647 140 664 Q157 681 182 681 Q206 681 223 664 Q240 647 240 623 Q240 598 223 581 Q206 564 182 564 Z M391 564 Q367 564 349.5 581 Q332 598 332 623 Q332 647 349.5 664 Q367 681 391 681 Q415 681 432.5 664 Q450 647 450 623 Q450 598 432.5 581 Q415 564 391 564 Z " />
<glyph glyph-name="ograve" unicode="&#xf2;" horiz-adv-x="573" d="M286 -12 Q212 -12 155.5 22 Q99 56 68.5 114 Q38 172 38 242 Q38 311 68.5 369 Q99 427 155.5 461 Q212 495 286 495 Q361 495 417.5 461 Q474 427 504.5 369.5 Q535 312 535 242 Q535 172 504.5 114 Q474 56 417.5 22 Q361 -12 286 -12 Z M286 81 Q351 81 388.5 127.5 Q426 174 426 242 Q426 309 388.5 355.5 Q351 402 286 402 Q222 402 184.5 355.5 Q147 309 147 242 Q147 174 184.5 127.5 Q222 81 286 81 Z M83 700 L183 700 L323 556 L248 556 L83 700 Z " />
<glyph glyph-name="ohungarumlaut" unicode="&#x151;" horiz-adv-x="573" d="M286 -12 Q212 -12 155.5 22 Q99 56 68.5 114 Q38 172 38 242 Q38 311 68.5 369 Q99 427 155.5 461 Q212 495 286 495 Q361 495 417.5 461 Q474 427 504.5 369.5 Q535 312 535 242 Q535 172 504.5 114 Q474 56 417.5 22 Q361 -12 286 -12 Z M286 81 Q351 81 388.5 127.5 Q426 174 426 242 Q426 309 388.5 355.5 Q351 402 286 402 Q222 402 184.5 355.5 Q147 309 147 242 Q147 174 184.5 127.5 Q222 81 286 81 Z M178 556 L268 700 L356 700 L241 556 L178 556 Z M324 556 L414 700 L502 700 L387 556 L324 556 Z " />
<glyph glyph-name="omacron" unicode="&#x14d;" horiz-adv-x="573" d="M286 -12 Q212 -12 155.5 22 Q99 56 68.5 114 Q38 172 38 242 Q38 311 68.5 369 Q99 427 155.5 461 Q212 495 286 495 Q361 495 417.5 461 Q474 427 504.5 369.5 Q535 312 535 242 Q535 172 504.5 114 Q474 56 417.5 22 Q361 -12 286 -12 Z M286 81 Q351 81 388.5 127.5 Q426 174 426 242 Q426 309 388.5 355.5 Q351 402 286 402 Q222 402 184.5 355.5 Q147 309 147 242 Q147 174 184.5 127.5 Q222 81 286 81 Z M124 628 L447 628 L447 566 L124 566 L124 628 Z " />
<glyph glyph-name="oslash" unicode="&#xf8;" horiz-adv-x="573" d="M467 422 Q500 388 517.5 341.5 Q535 295 535 242 Q535 172 504.5 114 Q474 56 417.5 22 Q361 -12 286 -12 Q202 -12 143 30 L118 0 L50 0 L103 64 Q72 98 55 144 Q38 190 38 242 Q38 311 68.5 369 Q99 427 155.5 461 Q212 495 286 495 Q367 495 426 456 L448 483 L517 483 L467 422 Z M147 242 Q147 188 171 147 L363 379 Q331 402 286 402 Q222 402 184.5 355.5 Q147 309 147 242 Z M286 81 Q351 81 388.5 127.5 Q426 174 426 242 Q426 299 399 341 L206 107 Q240 81 286 81 Z " />
<glyph glyph-name="oslashacute" unicode="&#x1ff;" horiz-adv-x="573" d="M467 422 Q500 388 517.5 341.5 Q535 295 535 242 Q535 172 504.5 114 Q474 56 417.5 22 Q361 -12 286 -12 Q202 -12 143 30 L118 0 L50 0 L103 64 Q72 98 55 144 Q38 190 38 242 Q38 311 68.5 369 Q99 427 155.5 461 Q212 495 286 495 Q367 495 426 456 L448 483 L517 483 L467 422 Z M147 242 Q147 188 171 147 L363 379 Q331 402 286 402 Q222 402 184.5 355.5 Q147 309 147 242 Z M286 81 Q351 81 388.5 127.5 Q426 174 426 242 Q426 299 399 341 L206 107 Q240 81 286 81 Z M245 556 L385 700 L485 700 L320 556 L245 556 Z " />
<glyph glyph-name="otilde" unicode="&#xf5;" horiz-adv-x="573" d="M286 -12 Q212 -12 155.5 22 Q99 56 68.5 114 Q38 172 38 242 Q38 311 68.5 369 Q99 427 155.5 461 Q212 495 286 495 Q361 495 417.5 461 Q474 427 504.5 369.5 Q535 312 535 242 Q535 172 504.5 114 Q474 56 417.5 22 Q361 -12 286 -12 Z M286 81 Q351 81 388.5 127.5 Q426 174 426 242 Q426 309 388.5 355.5 Q351 402 286 402 Q222 402 184.5 355.5 Q147 309 147 242 Q147 174 184.5 127.5 Q222 81 286 81 Z M268 600 Q256 616 246.5 624 Q237 632 225 632 Q207 632 195 614 Q183 596 183 560 L126 560 Q126 622 152.5 658 Q179 694 229 694 Q255 694 271 682 Q287 670 304 648 Q318 631 327 623.5 Q336 616 348 616 Q366 616 377.5 634 Q389 652 389 688 L447 688 Q447 626 420.5 590 Q394 554 344 554 Q318 554 301.5 566 Q285 578 268 600 Z " />
<glyph glyph-name="uni1ECD" unicode="&#x1ecd;" horiz-adv-x="573" d="M286 -12 Q212 -12 155.5 22 Q99 56 68.5 114 Q38 172 38 242 Q38 311 68.5 369 Q99 427 155.5 461 Q212 495 286 495 Q361 495 417.5 461 Q474 427 504.5 369.5 Q535 312 535 242 Q535 172 504.5 114 Q474 56 417.5 22 Q361 -12 286 -12 Z M286 81 Q351 81 388.5 127.5 Q426 174 426 242 Q426 309 388.5 355.5 Q351 402 286 402 Q222 402 184.5 355.5 Q147 309 147 242 Q147 174 184.5 127.5 Q222 81 286 81 Z M228 -118 Q228 -94 245.5 -76.5 Q263 -59 287 -59 Q311 -59 328 -76.5 Q345 -94 345 -118 Q345 -143 328 -160 Q311 -177 287 -177 Q263 -177 245.5 -160 Q228 -143 228 -118 Z " />
<glyph glyph-name="uni1ECF" unicode="&#x1ecf;" horiz-adv-x="573" d="M286 -12 Q212 -12 155.5 22 Q99 56 68.5 114 Q38 172 38 242 Q38 311 68.5 369 Q99 427 155.5 461 Q212 495 286 495 Q361 495 417.5 461 Q474 427 504.5 369.5 Q535 312 535 242 Q535 172 504.5 114 Q474 56 417.5 22 Q361 -12 286 -12 Z M286 81 Q351 81 388.5 127.5 Q426 174 426 242 Q426 309 388.5 355.5 Q351 402 286 402 Q222 402 184.5 355.5 Q147 309 147 242 Q147 174 184.5 127.5 Q222 81 286 81 Z M179 644 Q190 678 216.5 697 Q243 716 279 716 Q321 716 349 693 Q377 670 377 624 Q377 605 371.5 590 Q366 575 355 557 L293 557 Q320 587 320 622 Q320 644 308.5 655.5 Q297 667 279 667 Q245 667 231 628 L179 644 Z " />
<glyph glyph-name="uni1ED1" unicode="&#x1ed1;" horiz-adv-x="573" d="M286 -12 Q212 -12 155.5 22 Q99 56 68.5 114 Q38 172 38 242 Q38 311 68.5 369 Q99 427 155.5 461 Q212 495 286 495 Q361 495 417.5 461 Q474 427 504.5 369.5 Q535 312 535 242 Q535 172 504.5 114 Q474 56 417.5 22 Q361 -12 286 -12 Z M286 81 Q351 81 388.5 127.5 Q426 174 426 242 Q426 309 388.5 355.5 Q351 402 286 402 Q222 402 184.5 355.5 Q147 309 147 242 Q147 174 184.5 127.5 Q222 81 286 81 Z M286 652 L211 556 L145 556 L238 700 L334 700 L430 556 L363 556 L286 652 Z M399 656 L539 800 L639 800 L474 656 L399 656 Z " />
<glyph glyph-name="uni1ED3" unicode="&#x1ed3;" horiz-adv-x="573" d="M286 -12 Q212 -12 155.5 22 Q99 56 68.5 114 Q38 172 38 242 Q38 311 68.5 369 Q99 427 155.5 461 Q212 495 286 495 Q361 495 417.5 461 Q474 427 504.5 369.5 Q535 312 535 242 Q535 172 504.5 114 Q474 56 417.5 22 Q361 -12 286 -12 Z M286 81 Q351 81 388.5 127.5 Q426 174 426 242 Q426 309 388.5 355.5 Q351 402 286 402 Q222 402 184.5 355.5 Q147 309 147 242 Q147 174 184.5 127.5 Q222 81 286 81 Z M286 652 L211 556 L145 556 L238 700 L334 700 L430 556 L363 556 L286 652 Z M-62 800 L38 800 L178 656 L103 656 L-62 800 Z " />
<glyph glyph-name="uni1ED5" unicode="&#x1ed5;" horiz-adv-x="573" d="M286 -12 Q212 -12 155.5 22 Q99 56 68.5 114 Q38 172 38 242 Q38 311 68.5 369 Q99 427 155.5 461 Q212 495 286 495 Q361 495 417.5 461 Q474 427 504.5 369.5 Q535 312 535 242 Q535 172 504.5 114 Q474 56 417.5 22 Q361 -12 286 -12 Z M286 81 Q351 81 388.5 127.5 Q426 174 426 242 Q426 309 388.5 355.5 Q351 402 286 402 Q222 402 184.5 355.5 Q147 309 147 242 Q147 174 184.5 127.5 Q222 81 286 81 Z M286 652 L211 556 L145 556 L238 700 L334 700 L430 556 L363 556 L286 652 Z M285 743 Q296 777 322.5 796 Q349 815 385 815 Q427 815 455 792 Q483 769 483 723 Q483 704 477.5 689 Q472 674 461 656 L399 656 Q426 686 426 721 Q426 743 414.5 754.5 Q403 766 385 766 Q351 766 337 727 L285 743 Z " />
<glyph glyph-name="uni1ED7" unicode="&#x1ed7;" horiz-adv-x="573" d="M286 -12 Q212 -12 155.5 22 Q99 56 68.5 114 Q38 172 38 242 Q38 311 68.5 369 Q99 427 155.5 461 Q212 495 286 495 Q361 495 417.5 461 Q474 427 504.5 369.5 Q535 312 535 242 Q535 172 504.5 114 Q474 56 417.5 22 Q361 -12 286 -12 Z M286 81 Q351 81 388.5 127.5 Q426 174 426 242 Q426 309 388.5 355.5 Q351 402 286 402 Q222 402 184.5 355.5 Q147 309 147 242 Q147 174 184.5 127.5 Q222 81 286 81 Z M286 652 L211 556 L145 556 L238 700 L334 700 L430 556 L363 556 L286 652 Z M268 762 Q256 778 246.5 786 Q237 794 225 794 Q207 794 195 776 Q183 758 183 722 L126 722 Q126 784 152.5 820 Q179 856 229 856 Q255 856 271 844 Q287 832 304 810 Q318 793 327 785.5 Q336 778 348 778 Q366 778 377.5 796 Q389 814 389 850 L447 850 Q447 788 420.5 752 Q394 716 344 716 Q318 716 301.5 728 Q285 740 268 762 Z " />
<glyph glyph-name="uni1ED9" unicode="&#x1ed9;" horiz-adv-x="573" d="M286 -12 Q212 -12 155.5 22 Q99 56 68.5 114 Q38 172 38 242 Q38 311 68.5 369 Q99 427 155.5 461 Q212 495 286 495 Q361 495 417.5 461 Q474 427 504.5 369.5 Q535 312 535 242 Q535 172 504.5 114 Q474 56 417.5 22 Q361 -12 286 -12 Z M286 81 Q351 81 388.5 127.5 Q426 174 426 242 Q426 309 388.5 355.5 Q351 402 286 402 Q222 402 184.5 355.5 Q147 309 147 242 Q147 174 184.5 127.5 Q222 81 286 81 Z M228 -118 Q228 -94 245.5 -76.5 Q263 -59 287 -59 Q311 -59 328 -76.5 Q345 -94 345 -118 Q345 -143 328 -160 Q311 -177 287 -177 Q263 -177 245.5 -160 Q228 -143 228 -118 Z M286 652 L211 556 L145 556 L238 700 L334 700 L430 556 L363 556 L286 652 Z " />
<glyph glyph-name="ohorn" unicode="&#x1a1;" horiz-adv-x="573" d="M541 531 Q541 496 524.5 463 Q508 430 480 407 Q507 374 521 331.5 Q535 289 535 242 Q535 172 504.5 114 Q474 56 417.5 22 Q361 -12 286 -12 Q212 -12 155.5 22 Q99 56 68.5 114 Q38 172 38 242 Q38 311 68.5 369 Q99 427 155.5 461 Q212 495 286 495 Q383 495 449 439 Q465 453 476.5 470.5 Q488 488 491 505 Q487 503 478 503 Q459 503 446.5 516 Q434 529 434 550 Q434 570 448.5 585 Q463 600 484 600 Q508 600 524.5 581.5 Q541 563 541 531 Z M286 81 Q351 81 388.5 127.5 Q426 174 426 242 Q426 309 388.5 355.5 Q351 402 286 402 Q222 402 184.5 355.5 Q147 309 147 242 Q147 174 184.5 127.5 Q222 81 286 81 Z " />
<glyph glyph-name="uni1EDB" unicode="&#x1edb;" horiz-adv-x="573" d="M541 531 Q541 496 524.5 463 Q508 430 480 407 Q507 374 521 331.5 Q535 289 535 242 Q535 172 504.5 114 Q474 56 417.5 22 Q361 -12 286 -12 Q212 -12 155.5 22 Q99 56 68.5 114 Q38 172 38 242 Q38 311 68.5 369 Q99 427 155.5 461 Q212 495 286 495 Q383 495 449 439 Q465 453 476.5 470.5 Q488 488 491 505 Q487 503 478 503 Q459 503 446.5 516 Q434 529 434 550 Q434 570 448.5 585 Q463 600 484 600 Q508 600 524.5 581.5 Q541 563 541 531 Z M286 81 Q351 81 388.5 127.5 Q426 174 426 242 Q426 309 388.5 355.5 Q351 402 286 402 Q222 402 184.5 355.5 Q147 309 147 242 Q147 174 184.5 127.5 Q222 81 286 81 Z M245 556 L385 700 L485 700 L320 556 L245 556 Z " />
<glyph glyph-name="uni1EDD" unicode="&#x1edd;" horiz-adv-x="573" d="M541 531 Q541 496 524.5 463 Q508 430 480 407 Q507 374 521 331.5 Q535 289 535 242 Q535 172 504.5 114 Q474 56 417.5 22 Q361 -12 286 -12 Q212 -12 155.5 22 Q99 56 68.5 114 Q38 172 38 242 Q38 311 68.5 369 Q99 427 155.5 461 Q212 495 286 495 Q383 495 449 439 Q465 453 476.5 470.5 Q488 488 491 505 Q487 503 478 503 Q459 503 446.5 516 Q434 529 434 550 Q434 570 448.5 585 Q463 600 484 600 Q508 600 524.5 581.5 Q541 563 541 531 Z M286 81 Q351 81 388.5 127.5 Q426 174 426 242 Q426 309 388.5 355.5 Q351 402 286 402 Q222 402 184.5 355.5 Q147 309 147 242 Q147 174 184.5 127.5 Q222 81 286 81 Z M83 700 L183 700 L323 556 L248 556 L83 700 Z " />
<glyph glyph-name="uni1EDF" unicode="&#x1edf;" horiz-adv-x="573" d="M541 531 Q541 496 524.5 463 Q508 430 480 407 Q507 374 521 331.5 Q535 289 535 242 Q535 172 504.5 114 Q474 56 417.5 22 Q361 -12 286 -12 Q212 -12 155.5 22 Q99 56 68.5 114 Q38 172 38 242 Q38 311 68.5 369 Q99 427 155.5 461 Q212 495 286 495 Q383 495 449 439 Q465 453 476.5 470.5 Q488 488 491 505 Q487 503 478 503 Q459 503 446.5 516 Q434 529 434 550 Q434 570 448.5 585 Q463 600 484 600 Q508 600 524.5 581.5 Q541 563 541 531 Z M286 81 Q351 81 388.5 127.5 Q426 174 426 242 Q426 309 388.5 355.5 Q351 402 286 402 Q222 402 184.5 355.5 Q147 309 147 242 Q147 174 184.5 127.5 Q222 81 286 81 Z M179 644 Q190 678 216.5 697 Q243 716 279 716 Q321 716 349 693 Q377 670 377 624 Q377 605 371.5 590 Q366 575 355 557 L293 557 Q320 587 320 622 Q320 644 308.5 655.5 Q297 667 279 667 Q245 667 231 628 L179 644 Z " />
<glyph glyph-name="uni1EE1" unicode="&#x1ee1;" horiz-adv-x="573" d="M541 531 Q541 496 524.5 463 Q508 430 480 407 Q507 374 521 331.5 Q535 289 535 242 Q535 172 504.5 114 Q474 56 417.5 22 Q361 -12 286 -12 Q212 -12 155.5 22 Q99 56 68.5 114 Q38 172 38 242 Q38 311 68.5 369 Q99 427 155.5 461 Q212 495 286 495 Q383 495 449 439 Q465 453 476.5 470.5 Q488 488 491 505 Q487 503 478 503 Q459 503 446.5 516 Q434 529 434 550 Q434 570 448.5 585 Q463 600 484 600 Q508 600 524.5 581.5 Q541 563 541 531 Z M286 81 Q351 81 388.5 127.5 Q426 174 426 242 Q426 309 388.5 355.5 Q351 402 286 402 Q222 402 184.5 355.5 Q147 309 147 242 Q147 174 184.5 127.5 Q222 81 286 81 Z M268 600 Q256 616 246.5 624 Q237 632 225 632 Q207 632 195 614 Q183 596 183 560 L126 560 Q126 622 152.5 658 Q179 694 229 694 Q255 694 271 682 Q287 670 304 648 Q318 631 327 623.5 Q336 616 348 616 Q366 616 377.5 634 Q389 652 389 688 L447 688 Q447 626 420.5 590 Q394 554 344 554 Q318 554 301.5 566 Q285 578 268 600 Z " />
<glyph glyph-name="uni1EE3" unicode="&#x1ee3;" horiz-adv-x="573" d="M541 531 Q541 496 524.5 463 Q508 430 480 407 Q507 374 521 331.5 Q535 289 535 242 Q535 172 504.5 114 Q474 56 417.5 22 Q361 -12 286 -12 Q212 -12 155.5 22 Q99 56 68.5 114 Q38 172 38 242 Q38 311 68.5 369 Q99 427 155.5 461 Q212 495 286 495 Q383 495 449 439 Q465 453 476.5 470.5 Q488 488 491 505 Q487 503 478 503 Q459 503 446.5 516 Q434 529 434 550 Q434 570 448.5 585 Q463 600 484 600 Q508 600 524.5 581.5 Q541 563 541 531 Z M286 81 Q351 81 388.5 127.5 Q426 174 426 242 Q426 309 388.5 355.5 Q351 402 286 402 Q222 402 184.5 355.5 Q147 309 147 242 Q147 174 184.5 127.5 Q222 81 286 81 Z M227 -118 Q227 -94 244.5 -76.5 Q262 -59 286 -59 Q310 -59 327 -76.5 Q344 -94 344 -118 Q344 -143 327 -160 Q310 -177 286 -177 Q262 -177 244.5 -160 Q227 -143 227 -118 Z " />
<glyph glyph-name="oe" unicode="&#x153;" horiz-adv-x="944" d="M536 207 Q542 150 582.5 112 Q623 74 689 74 Q726 74 763.5 88 Q801 102 827 127 L875 58 Q839 24 788 6 Q737 -12 679 -12 Q550 -12 479 108 Q410 -12 286 -12 Q212 -12 155.5 22 Q99 56 68.5 114 Q38 172 38 242 Q38 311 68.5 369 Q99 427 155.5 461 Q212 495 286 495 Q409 495 480 374 Q507 423 553.5 459 Q600 495 671 495 Q742 495 796 461 Q850 427 879 367.5 Q908 308 908 232 L908 207 L536 207 Z M807 281 Q804 331 769.5 370 Q735 409 670 409 Q608 409 573 370 Q538 331 535 281 L807 281 Z M286 402 Q223 402 185 356.5 Q147 311 147 242 Q147 172 185 126 Q223 80 286 80 Q350 80 388 126 Q426 172 426 242 Q426 311 388 356.5 Q350 402 286 402 Z " />
<glyph glyph-name="uni1E57" unicode="&#x1e57;" horiz-adv-x="580" d="M68 -184 L68 483 L173 483 L173 417 Q200 454 240.5 474.5 Q281 495 328 495 Q391 495 439.5 464.5 Q488 434 515 377 Q542 320 542 242 Q542 164 515 106.5 Q488 49 439.5 18.5 Q391 -12 328 -12 Q282 -12 242 8 Q202 28 173 67 L173 -184 L68 -184 Z M433 242 Q433 313 396 357.5 Q359 402 297 402 Q261 402 226 383 Q191 364 173 337 L173 146 Q191 119 226 100 Q261 81 297 81 Q359 81 396 126 Q433 171 433 242 Z M260 622 Q260 646 277.5 663.5 Q295 681 319 681 Q343 681 360 663.5 Q377 646 377 622 Q377 597 360 580 Q343 563 319 563 Q295 563 277.5 580 Q260 597 260 622 Z " />
<glyph glyph-name="racute" unicode="&#x155;" horiz-adv-x="347" d="M68 483 L173 483 L173 412 Q201 448 243 471 Q285 494 330 494 L330 390 Q316 393 297 393 Q264 393 226.5 373.5 Q189 354 173 329 L173 0 L68 0 L68 483 Z M154 556 L294 700 L394 700 L229 556 L154 556 Z " />
<glyph glyph-name="rcaron" unicode="&#x159;" horiz-adv-x="347" d="M68 483 L173 483 L173 412 Q201 448 243 471 Q285 494 330 494 L330 390 Q316 393 297 393 Q264 393 226.5 373.5 Q189 354 173 329 L173 0 L68 0 L68 483 Z M51 700 L117 700 L195 603 L269 700 L336 700 L243 556 L147 556 L51 700 Z " />
<glyph glyph-name="uni0157" unicode="&#x157;" horiz-adv-x="347" d="M68 483 L173 483 L173 412 Q201 448 243 471 Q285 494 330 494 L330 390 Q316 393 297 393 Q264 393 226.5 373.5 Q189 354 173 329 L173 0 L68 0 L68 483 Z M69 -250 Q90 -237 108 -213 Q126 -189 130 -168 Q126 -170 116 -170 Q96 -170 82 -155.5 Q68 -141 68 -119 Q68 -96 84 -79.5 Q100 -63 123 -63 Q149 -63 167.5 -83 Q186 -103 186 -138 Q186 -180 164.5 -218 Q143 -256 108 -281 L69 -250 Z " />
<glyph glyph-name="sacute" unicode="&#x15b;" horiz-adv-x="472" d="M74 139 Q101 111 147 91 Q193 71 238 71 Q284 71 308.5 86.5 Q333 102 333 130 Q333 159 305 173.5 Q277 188 223 200 Q166 212 129.5 225.5 Q93 239 67 268.5 Q41 298 41 348 Q41 388 63.5 421.5 Q86 455 129 475 Q172 495 231 495 Q342 495 419 427 L375 353 Q352 379 314 395 Q276 411 232 411 Q190 411 166 396.5 Q142 382 142 357 Q142 332 168 319 Q194 306 247 294 Q304 282 342 267.5 Q380 253 407 222 Q434 191 434 138 Q434 72 381 30 Q328 -12 233 -12 Q171 -12 117 7.5 Q63 27 26 63 L74 139 Z M190 556 L330 700 L430 700 L265 556 L190 556 Z " />
<glyph glyph-name="scaron" unicode="&#x161;" horiz-adv-x="472" d="M74 139 Q101 111 147 91 Q193 71 238 71 Q284 71 308.5 86.5 Q333 102 333 130 Q333 159 305 173.5 Q277 188 223 200 Q166 212 129.5 225.5 Q93 239 67 268.5 Q41 298 41 348 Q41 388 63.5 421.5 Q86 455 129 475 Q172 495 231 495 Q342 495 419 427 L375 353 Q352 379 314 395 Q276 411 232 411 Q190 411 166 396.5 Q142 382 142 357 Q142 332 168 319 Q194 306 247 294 Q304 282 342 267.5 Q380 253 407 222 Q434 191 434 138 Q434 72 381 30 Q328 -12 233 -12 Q171 -12 117 7.5 Q63 27 26 63 L74 139 Z M87 700 L153 700 L231 603 L305 700 L372 700 L279 556 L183 556 L87 700 Z " />
<glyph glyph-name="scircumflex" unicode="&#x15d;" horiz-adv-x="472" d="M74 139 Q101 111 147 91 Q193 71 238 71 Q284 71 308.5 86.5 Q333 102 333 130 Q333 159 305 173.5 Q277 188 223 200 Q166 212 129.5 225.5 Q93 239 67 268.5 Q41 298 41 348 Q41 388 63.5 421.5 Q86 455 129 475 Q172 495 231 495 Q342 495 419 427 L375 353 Q352 379 314 395 Q276 411 232 411 Q190 411 166 396.5 Q142 382 142 357 Q142 332 168 319 Q194 306 247 294 Q304 282 342 267.5 Q380 253 407 222 Q434 191 434 138 Q434 72 381 30 Q328 -12 233 -12 Q171 -12 117 7.5 Q63 27 26 63 L74 139 Z M231 652 L156 556 L90 556 L183 700 L279 700 L375 556 L308 556 L231 652 Z " />
<glyph glyph-name="uni015F" unicode="&#x15f;" horiz-adv-x="472" d="M434 138 Q434 76 387.5 35 Q341 -6 257 -11 L240 -53 Q256 -42 276 -42 Q305 -42 324 -61 Q343 -80 343 -109 Q343 -148 312 -171 Q281 -194 235 -194 Q202 -194 173.5 -185 Q145 -176 129 -163 L151 -117 Q187 -146 232 -146 Q256 -146 272 -136 Q288 -126 288 -108 Q288 -95 279.5 -87.5 Q271 -80 255 -80 Q234 -80 221 -95 L180 -72 L203 -11 Q150 -6 104.5 12.5 Q59 31 26 63 L74 139 Q101 111 147 91 Q193 71 238 71 Q284 71 308.5 86.5 Q333 102 333 130 Q333 159 305 173.5 Q277 188 223 200 Q166 212 129.5 225.5 Q93 239 67 268.5 Q41 298 41 348 Q41 388 63.5 421.5 Q86 455 129 475 Q172 495 231 495 Q342 495 419 427 L375 353 Q352 379 314 395 Q276 411 232 411 Q190 411 166 396.5 Q142 382 142 357 Q142 332 168 319 Q194 306 247 294 Q304 282 342 267.5 Q380 253 407 222 Q434 191 434 138 Z " />
<glyph glyph-name="uni0219" unicode="&#x219;" horiz-adv-x="472" d="M74 139 Q101 111 147 91 Q193 71 238 71 Q284 71 308.5 86.5 Q333 102 333 130 Q333 159 305 173.5 Q277 188 223 200 Q166 212 129.5 225.5 Q93 239 67 268.5 Q41 298 41 348 Q41 388 63.5 421.5 Q86 455 129 475 Q172 495 231 495 Q342 495 419 427 L375 353 Q352 379 314 395 Q276 411 232 411 Q190 411 166 396.5 Q142 382 142 357 Q142 332 168 319 Q194 306 247 294 Q304 282 342 267.5 Q380 253 407 222 Q434 191 434 138 Q434 72 381 30 Q328 -12 233 -12 Q171 -12 117 7.5 Q63 27 26 63 L74 139 Z M177 -250 Q198 -237 216 -213 Q234 -189 238 -168 Q234 -170 224 -170 Q204 -170 190 -155.5 Q176 -141 176 -119 Q176 -96 192 -79.5 Q208 -63 231 -63 Q257 -63 275.5 -83 Q294 -103 294 -138 Q294 -180 272.5 -218 Q251 -256 216 -281 L177 -250 Z " />
<glyph glyph-name="uni1E61" unicode="&#x1e61;" horiz-adv-x="472" d="M74 139 Q101 111 147 91 Q193 71 238 71 Q284 71 308.5 86.5 Q333 102 333 130 Q333 159 305 173.5 Q277 188 223 200 Q166 212 129.5 225.5 Q93 239 67 268.5 Q41 298 41 348 Q41 388 63.5 421.5 Q86 455 129 475 Q172 495 231 495 Q342 495 419 427 L375 353 Q352 379 314 395 Q276 411 232 411 Q190 411 166 396.5 Q142 382 142 357 Q142 332 168 319 Q194 306 247 294 Q304 282 342 267.5 Q380 253 407 222 Q434 191 434 138 Q434 72 381 30 Q328 -12 233 -12 Q171 -12 117 7.5 Q63 27 26 63 L74 139 Z M172 622 Q172 646 189.5 663.5 Q207 681 231 681 Q255 681 272 663.5 Q289 646 289 622 Q289 597 272 580 Q255 563 231 563 Q207 563 189.5 580 Q172 597 172 622 Z " />
<glyph glyph-name="germandbls" unicode="&#xdf;" horiz-adv-x="623" d="M411 -12 Q344 -12 301.5 8 Q259 28 219 66 L266 139 Q288 110 327.5 91 Q367 72 411 72 Q456 72 480.5 91 Q505 110 505 137 Q505 163 480 176.5 Q455 190 402 203 Q349 216 315.5 229.5 Q282 243 257.5 272 Q233 301 233 349 Q233 390 255 416 Q277 442 316 469 Q342 487 354 499 Q366 511 366 526 Q366 553 339.5 568.5 Q313 584 279 584 Q233 584 203 557 Q173 530 173 485 L173 0 L68 0 L68 485 Q68 538 94 582 Q120 626 168 651.5 Q216 677 281 677 Q332 677 376 660 Q420 643 446.5 612 Q473 581 473 540 Q473 499 452 474 Q431 449 391 422 Q362 402 348 387 Q334 372 334 352 Q334 329 357 318.5 Q380 308 430 296 Q484 284 519.5 270 Q555 256 580.5 224.5 Q606 193 606 140 Q606 97 583 62.5 Q560 28 515.5 8 Q471 -12 411 -12 Z " />
<glyph glyph-name="longs" unicode="&#x17f;" horiz-adv-x="308" d="M93 391 L13 391 L13 483 L93 483 L93 510 Q93 589 135 633 Q177 677 246 677 Q297 677 330 658 L307 581 Q290 591 265 591 Q234 591 216 570.5 Q198 550 198 510 L198 0 L93 0 L93 391 Z " />
<glyph glyph-name="tbar" unicode="&#x167;" horiz-adv-x="319" d="M312 19 Q279 -12 213 -12 Q152 -12 120.5 20 Q89 52 89 112 L89 216 L9 216 L9 278 L89 278 L89 391 L9 391 L9 483 L89 483 L89 615 L194 615 L194 483 L292 483 L292 391 L194 391 L194 278 L263 278 L263 216 L194 216 L194 138 Q194 112 206 96.5 Q218 81 240 81 Q254 81 267.5 86 Q281 91 287 98 L312 19 Z " />
<glyph glyph-name="tcaron" unicode="&#x165;" horiz-adv-x="351" d="M213 -12 Q152 -12 120.5 20 Q89 52 89 112 L89 391 L9 391 L9 483 L89 483 L89 615 L194 615 L194 483 L292 483 L292 391 L194 391 L194 138 Q194 112 206 96.5 Q218 81 240 81 Q254 81 267.5 86 Q281 91 287 98 L312 19 Q279 -12 213 -12 Z M252 568 Q273 581 291 605 Q309 629 313 650 Q309 648 299 648 Q279 648 265 662.5 Q251 677 251 699 Q251 722 267 738.5 Q283 755 306 755 Q332 755 350.5 735 Q369 715 369 680 Q369 638 347.5 600 Q326 562 291 537 L252 568 Z " />
<glyph glyph-name="uni0163" unicode="&#x163;" horiz-adv-x="319" d="M213 -12 Q152 -12 120.5 20 Q89 52 89 112 L89 391 L9 391 L9 483 L89 483 L89 615 L194 615 L194 483 L292 483 L292 391 L194 391 L194 138 Q194 112 206 96.5 Q218 81 240 81 Q254 81 267.5 86 Q281 91 287 98 L312 19 Q279 -12 213 -12 Z M107 -250 Q128 -237 146 -213 Q164 -189 168 -168 Q164 -170 154 -170 Q134 -170 120 -155.5 Q106 -141 106 -119 Q106 -96 122 -79.5 Q138 -63 161 -63 Q187 -63 205.5 -83 Q224 -103 224 -138 Q224 -180 202.5 -218 Q181 -256 146 -281 L107 -250 Z " />
<glyph glyph-name="uni021B" unicode="&#x21b;" horiz-adv-x="319" d="M213 -12 Q152 -12 120.5 20 Q89 52 89 112 L89 391 L9 391 L9 483 L89 483 L89 615 L194 615 L194 483 L292 483 L292 391 L194 391 L194 138 Q194 112 206 96.5 Q218 81 240 81 Q254 81 267.5 86 Q281 91 287 98 L312 19 Q279 -12 213 -12 Z M107 -250 Q128 -237 146 -213 Q164 -189 168 -168 Q164 -170 154 -170 Q134 -170 120 -155.5 Q106 -141 106 -119 Q106 -96 122 -79.5 Q138 -63 161 -63 Q187 -63 205.5 -83 Q224 -103 224 -138 Q224 -180 202.5 -218 Q181 -256 146 -281 L107 -250 Z " />
<glyph glyph-name="uni1E6B" unicode="&#x1e6b;" horiz-adv-x="319" d="M213 -12 Q152 -12 120.5 20 Q89 52 89 112 L89 391 L9 391 L9 483 L89 483 L89 615 L194 615 L194 483 L292 483 L292 391 L194 391 L194 138 Q194 112 206 96.5 Q218 81 240 81 Q254 81 267.5 86 Q281 91 287 98 L312 19 Q279 -12 213 -12 Z M83 789 Q83 813 100.5 830.5 Q118 848 142 848 Q166 848 183 830.5 Q200 813 200 789 Q200 764 183 747 Q166 730 142 730 Q118 730 100.5 747 Q83 764 83 789 Z " />
<glyph glyph-name="uacute" unicode="&#xfa;" horiz-adv-x="567" d="M394 64 Q365 31 320.5 9.5 Q276 -12 223 -12 Q146 -12 107 27 Q68 66 68 141 L68 483 L173 483 L173 179 Q173 126 198 103.5 Q223 81 270 81 Q308 81 341 99 Q374 117 394 144 L394 483 L499 483 L499 0 L394 0 L394 64 Z M242 556 L382 700 L482 700 L317 556 L242 556 Z " />
<glyph glyph-name="ubreve" unicode="&#x16d;" horiz-adv-x="567" d="M394 64 Q365 31 320.5 9.5 Q276 -12 223 -12 Q146 -12 107 27 Q68 66 68 141 L68 483 L173 483 L173 179 Q173 126 198 103.5 Q223 81 270 81 Q308 81 341 99 Q374 117 394 144 L394 483 L499 483 L499 0 L394 0 L394 64 Z M283 554 Q230 554 184 577.5 Q138 601 107 642 L155 682 Q177 651 210 633.5 Q243 616 283 616 Q322 616 355 633.5 Q388 651 410 682 L458 642 Q427 601 381.5 577.5 Q336 554 283 554 Z " />
<glyph glyph-name="ucircumflex" unicode="&#xfb;" horiz-adv-x="567" d="M394 64 Q365 31 320.5 9.5 Q276 -12 223 -12 Q146 -12 107 27 Q68 66 68 141 L68 483 L173 483 L173 179 Q173 126 198 103.5 Q223 81 270 81 Q308 81 341 99 Q374 117 394 144 L394 483 L499 483 L499 0 L394 0 L394 64 Z M283 652 L208 556 L142 556 L235 700 L331 700 L427 556 L360 556 L283 652 Z " />
<glyph glyph-name="udieresis" unicode="&#xfc;" horiz-adv-x="567" d="M394 64 Q365 31 320.5 9.5 Q276 -12 223 -12 Q146 -12 107 27 Q68 66 68 141 L68 483 L173 483 L173 179 Q173 126 198 103.5 Q223 81 270 81 Q308 81 341 99 Q374 117 394 144 L394 483 L499 483 L499 0 L394 0 L394 64 Z M179 564 Q154 564 137 581 Q120 598 120 623 Q120 647 137 664 Q154 681 179 681 Q203 681 220 664 Q237 647 237 623 Q237 598 220 581 Q203 564 179 564 Z M388 564 Q364 564 346.5 581 Q329 598 329 623 Q329 647 346.5 664 Q364 681 388 681 Q412 681 429.5 664 Q447 647 447 623 Q447 598 429.5 581 Q412 564 388 564 Z " />
<glyph glyph-name="ugrave" unicode="&#xf9;" horiz-adv-x="567" d="M394 64 Q365 31 320.5 9.5 Q276 -12 223 -12 Q146 -12 107 27 Q68 66 68 141 L68 483 L173 483 L173 179 Q173 126 198 103.5 Q223 81 270 81 Q308 81 341 99 Q374 117 394 144 L394 483 L499 483 L499 0 L394 0 L394 64 Z M80 700 L180 700 L320 556 L245 556 L80 700 Z " />
<glyph glyph-name="uhungarumlaut" unicode="&#x171;" horiz-adv-x="567" d="M394 64 Q365 31 320.5 9.5 Q276 -12 223 -12 Q146 -12 107 27 Q68 66 68 141 L68 483 L173 483 L173 179 Q173 126 198 103.5 Q223 81 270 81 Q308 81 341 99 Q374 117 394 144 L394 483 L499 483 L499 0 L394 0 L394 64 Z M175 556 L265 700 L353 700 L238 556 L175 556 Z M321 556 L411 700 L499 700 L384 556 L321 556 Z " />
<glyph glyph-name="umacron" unicode="&#x16b;" horiz-adv-x="567" d="M394 64 Q365 31 320.5 9.5 Q276 -12 223 -12 Q146 -12 107 27 Q68 66 68 141 L68 483 L173 483 L173 179 Q173 126 198 103.5 Q223 81 270 81 Q308 81 341 99 Q374 117 394 144 L394 483 L499 483 L499 0 L394 0 L394 64 Z M121 628 L444 628 L444 566 L121 566 L121 628 Z " />
<glyph glyph-name="uogonek" unicode="&#x173;" horiz-adv-x="567" d="M499 0 Q410 -34 410 -84 Q410 -98 420.5 -106.5 Q431 -115 445 -115 Q461 -115 475 -108 L499 -169 Q471 -186 419 -186 Q375 -186 344 -166 Q313 -146 313 -109 Q313 -76 342.5 -48 Q372 -20 420 0 L394 0 L394 64 Q365 31 320.5 9.5 Q276 -12 223 -12 Q146 -12 107 27 Q68 66 68 141 L68 483 L173 483 L173 179 Q173 126 198 103.5 Q223 81 270 81 Q308 81 341 99 Q374 117 394 144 L394 483 L499 483 L499 0 Z " />
<glyph glyph-name="uring" unicode="&#x16f;" horiz-adv-x="567" d="M394 64 Q365 31 320.5 9.5 Q276 -12 223 -12 Q146 -12 107 27 Q68 66 68 141 L68 483 L173 483 L173 179 Q173 126 198 103.5 Q223 81 270 81 Q308 81 341 99 Q374 117 394 144 L394 483 L499 483 L499 0 L394 0 L394 64 Z M182 638 Q182 680 212 710.5 Q242 741 284 741 Q326 741 355.5 710.5 Q385 680 385 638 Q385 596 355.5 566 Q326 536 284 536 Q242 536 212 566 Q182 596 182 638 Z M335 638 Q335 660 320.5 675 Q306 690 284 690 Q263 690 247.5 675 Q232 660 232 638 Q232 617 247.5 601.5 Q263 586 284 586 Q305 586 320 601.5 Q335 617 335 638 Z " />
<glyph glyph-name="utilde" unicode="&#x169;" horiz-adv-x="567" d="M394 64 Q365 31 320.5 9.5 Q276 -12 223 -12 Q146 -12 107 27 Q68 66 68 141 L68 483 L173 483 L173 179 Q173 126 198 103.5 Q223 81 270 81 Q308 81 341 99 Q374 117 394 144 L394 483 L499 483 L499 0 L394 0 L394 64 Z M265 600 Q253 616 243.5 624 Q234 632 222 632 Q204 632 192 614 Q180 596 180 560 L123 560 Q123 622 149.5 658 Q176 694 226 694 Q252 694 268 682 Q284 670 301 648 Q315 631 324 623.5 Q333 616 345 616 Q363 616 374.5 634 Q386 652 386 688 L444 688 Q444 626 417.5 590 Q391 554 341 554 Q315 554 298.5 566 Q282 578 265 600 Z " />
<glyph glyph-name="uni1EE5" unicode="&#x1ee5;" horiz-adv-x="567" d="M394 64 Q365 31 320.5 9.5 Q276 -12 223 -12 Q146 -12 107 27 Q68 66 68 141 L68 483 L173 483 L173 179 Q173 126 198 103.5 Q223 81 270 81 Q308 81 341 99 Q374 117 394 144 L394 483 L499 483 L499 0 L394 0 L394 64 Z M224 -118 Q224 -94 241.5 -76.5 Q259 -59 283 -59 Q307 -59 324 -76.5 Q341 -94 341 -118 Q341 -143 324 -160 Q307 -177 283 -177 Q259 -177 241.5 -160 Q224 -143 224 -118 Z " />
<glyph glyph-name="uhorn" unicode="&#x1b0;" horiz-adv-x="567" d="M586 541 Q586 501 563 463 Q540 425 499 400 L499 0 L394 0 L394 64 Q365 31 320.5 9.5 Q276 -12 223 -12 Q146 -12 107 27 Q68 66 68 141 L68 483 L173 483 L173 179 Q173 126 198 103.5 Q223 81 270 81 Q308 81 341 99 Q374 117 394 144 L394 483 L499 483 L499 452 Q532 483 535 515 Q533 513 523 513 Q503 513 490.5 526 Q478 539 478 560 Q478 580 492.5 595 Q507 610 528 610 Q552 610 569 591.5 Q586 573 586 541 Z " />
<glyph glyph-name="uni1EE7" unicode="&#x1ee7;" horiz-adv-x="567" d="M394 64 Q365 31 320.5 9.5 Q276 -12 223 -12 Q146 -12 107 27 Q68 66 68 141 L68 483 L173 483 L173 179 Q173 126 198 103.5 Q223 81 270 81 Q308 81 341 99 Q374 117 394 144 L394 483 L499 483 L499 0 L394 0 L394 64 Z M176 644 Q187 678 213.5 697 Q240 716 276 716 Q318 716 346 693 Q374 670 374 624 Q374 605 368.5 590 Q363 575 352 557 L290 557 Q317 587 317 622 Q317 644 305.5 655.5 Q294 667 276 667 Q242 667 228 628 L176 644 Z " />
<glyph glyph-name="uni1EE9" unicode="&#x1ee9;" horiz-adv-x="567" d="M586 541 Q586 501 563 463 Q540 425 499 400 L499 0 L394 0 L394 64 Q365 31 320.5 9.5 Q276 -12 223 -12 Q146 -12 107 27 Q68 66 68 141 L68 483 L173 483 L173 179 Q173 126 198 103.5 Q223 81 270 81 Q308 81 341 99 Q374 117 394 144 L394 483 L499 483 L499 452 Q532 483 535 515 Q533 513 523 513 Q503 513 490.5 526 Q478 539 478 560 Q478 580 492.5 595 Q507 610 528 610 Q552 610 569 591.5 Q586 573 586 541 Z M242 556 L382 700 L482 700 L317 556 L242 556 Z " />
<glyph glyph-name="uni1EEB" unicode="&#x1eeb;" horiz-adv-x="567" d="M586 541 Q586 501 563 463 Q540 425 499 400 L499 0 L394 0 L394 64 Q365 31 320.5 9.5 Q276 -12 223 -12 Q146 -12 107 27 Q68 66 68 141 L68 483 L173 483 L173 179 Q173 126 198 103.5 Q223 81 270 81 Q308 81 341 99 Q374 117 394 144 L394 483 L499 483 L499 452 Q532 483 535 515 Q533 513 523 513 Q503 513 490.5 526 Q478 539 478 560 Q478 580 492.5 595 Q507 610 528 610 Q552 610 569 591.5 Q586 573 586 541 Z M80 700 L180 700 L320 556 L245 556 L80 700 Z " />
<glyph glyph-name="uni1EED" unicode="&#x1eed;" horiz-adv-x="567" d="M586 541 Q586 501 563 463 Q540 425 499 400 L499 0 L394 0 L394 64 Q365 31 320.5 9.5 Q276 -12 223 -12 Q146 -12 107 27 Q68 66 68 141 L68 483 L173 483 L173 179 Q173 126 198 103.5 Q223 81 270 81 Q308 81 341 99 Q374 117 394 144 L394 483 L499 483 L499 452 Q532 483 535 515 Q533 513 523 513 Q503 513 490.5 526 Q478 539 478 560 Q478 580 492.5 595 Q507 610 528 610 Q552 610 569 591.5 Q586 573 586 541 Z M176 644 Q187 678 213.5 697 Q240 716 276 716 Q318 716 346 693 Q374 670 374 624 Q374 605 368.5 590 Q363 575 352 557 L290 557 Q317 587 317 622 Q317 644 305.5 655.5 Q294 667 276 667 Q242 667 228 628 L176 644 Z " />
<glyph glyph-name="uni1EEF" unicode="&#x1eef;" horiz-adv-x="567" d="M586 541 Q586 501 563 463 Q540 425 499 400 L499 0 L394 0 L394 64 Q365 31 320.5 9.5 Q276 -12 223 -12 Q146 -12 107 27 Q68 66 68 141 L68 483 L173 483 L173 179 Q173 126 198 103.5 Q223 81 270 81 Q308 81 341 99 Q374 117 394 144 L394 483 L499 483 L499 452 Q532 483 535 515 Q533 513 523 513 Q503 513 490.5 526 Q478 539 478 560 Q478 580 492.5 595 Q507 610 528 610 Q552 610 569 591.5 Q586 573 586 541 Z M265 600 Q253 616 243.5 624 Q234 632 222 632 Q204 632 192 614 Q180 596 180 560 L123 560 Q123 622 149.5 658 Q176 694 226 694 Q252 694 268 682 Q284 670 301 648 Q315 631 324 623.5 Q333 616 345 616 Q363 616 374.5 634 Q386 652 386 688 L444 688 Q444 626 417.5 590 Q391 554 341 554 Q315 554 298.5 566 Q282 578 265 600 Z " />
<glyph glyph-name="uni1EF1" unicode="&#x1ef1;" horiz-adv-x="567" d="M586 541 Q586 501 563 463 Q540 425 499 400 L499 0 L394 0 L394 64 Q365 31 320.5 9.5 Q276 -12 223 -12 Q146 -12 107 27 Q68 66 68 141 L68 483 L173 483 L173 179 Q173 126 198 103.5 Q223 81 270 81 Q308 81 341 99 Q374 117 394 144 L394 483 L499 483 L499 452 Q532 483 535 515 Q533 513 523 513 Q503 513 490.5 526 Q478 539 478 560 Q478 580 492.5 595 Q507 610 528 610 Q552 610 569 591.5 Q586 573 586 541 Z M224 622 Q224 646 241.5 663.5 Q259 681 283 681 Q307 681 324 663.5 Q341 646 341 622 Q341 597 324 580 Q307 563 283 563 Q259 563 241.5 580 Q224 597 224 622 Z " />
<glyph glyph-name="wacute" unicode="&#x1e83;" horiz-adv-x="754" d="M377 354 L265 0 L155 0 L5 483 L114 483 L216 132 L331 483 L423 483 L538 132 L640 483 L749 483 L599 0 L489 0 L377 354 Z M336 556 L476 700 L576 700 L411 556 L336 556 Z " />
<glyph glyph-name="wcircumflex" unicode="&#x175;" horiz-adv-x="754" d="M377 354 L265 0 L155 0 L5 483 L114 483 L216 132 L331 483 L423 483 L538 132 L640 483 L749 483 L599 0 L489 0 L377 354 Z M377 652 L302 556 L236 556 L329 700 L425 700 L521 556 L454 556 L377 652 Z " />
<glyph glyph-name="wdieresis" unicode="&#x1e85;" horiz-adv-x="754" d="M377 354 L265 0 L155 0 L5 483 L114 483 L216 132 L331 483 L423 483 L538 132 L640 483 L749 483 L599 0 L489 0 L377 354 Z M273 564 Q248 564 231 581 Q214 598 214 623 Q214 647 231 664 Q248 681 273 681 Q297 681 314 664 Q331 647 331 623 Q331 598 314 581 Q297 564 273 564 Z M482 564 Q458 564 440.5 581 Q423 598 423 623 Q423 647 440.5 664 Q458 681 482 681 Q506 681 523.5 664 Q541 647 541 623 Q541 598 523.5 581 Q506 564 482 564 Z " />
<glyph glyph-name="wgrave" unicode="&#x1e81;" horiz-adv-x="754" d="M377 354 L265 0 L155 0 L5 483 L114 483 L216 132 L331 483 L423 483 L538 132 L640 483 L749 483 L599 0 L489 0 L377 354 Z M174 700 L274 700 L414 556 L339 556 L174 700 Z " />
<glyph glyph-name="yacute" unicode="&#xfd;" horiz-adv-x="503" d="M63 -95 Q81 -103 103 -103 Q129 -103 145.5 -93.5 Q162 -84 172 -61 L196 -6 L-2 483 L110 483 L251 121 L392 483 L505 483 L272 -87 Q248 -146 207 -170.5 Q166 -195 106 -196 Q93 -196 75.5 -194 Q58 -192 47 -189 L63 -95 Z M210 556 L350 700 L450 700 L285 556 L210 556 Z " />
<glyph glyph-name="ycircumflex" unicode="&#x177;" horiz-adv-x="503" d="M63 -95 Q81 -103 103 -103 Q129 -103 145.5 -93.5 Q162 -84 172 -61 L196 -6 L-2 483 L110 483 L251 121 L392 483 L505 483 L272 -87 Q248 -146 207 -170.5 Q166 -195 106 -196 Q93 -196 75.5 -194 Q58 -192 47 -189 L63 -95 Z M251 652 L176 556 L110 556 L203 700 L299 700 L395 556 L328 556 L251 652 Z " />
<glyph glyph-name="ydieresis" unicode="&#xff;" horiz-adv-x="503" d="M63 -95 Q81 -103 103 -103 Q129 -103 145.5 -93.5 Q162 -84 172 -61 L196 -6 L-2 483 L110 483 L251 121 L392 483 L505 483 L272 -87 Q248 -146 207 -170.5 Q166 -195 106 -196 Q93 -196 75.5 -194 Q58 -192 47 -189 L63 -95 Z M147 564 Q122 564 105 581 Q88 598 88 623 Q88 647 105 664 Q122 681 147 681 Q171 681 188 664 Q205 647 205 623 Q205 598 188 581 Q171 564 147 564 Z M356 564 Q332 564 314.5 581 Q297 598 297 623 Q297 647 314.5 664 Q332 681 356 681 Q380 681 397.5 664 Q415 647 415 623 Q415 598 397.5 581 Q380 564 356 564 Z " />
<glyph glyph-name="ygrave" unicode="&#x1ef3;" horiz-adv-x="503" d="M63 -95 Q81 -103 103 -103 Q129 -103 145.5 -93.5 Q162 -84 172 -61 L196 -6 L-2 483 L110 483 L251 121 L392 483 L505 483 L272 -87 Q248 -146 207 -170.5 Q166 -195 106 -196 Q93 -196 75.5 -194 Q58 -192 47 -189 L63 -95 Z M48 700 L148 700 L288 556 L213 556 L48 700 Z " />
<glyph glyph-name="uni1EF5" unicode="&#x1ef5;" horiz-adv-x="503" d="M63 -95 Q81 -103 103 -103 Q129 -103 145.5 -93.5 Q162 -84 172 -61 L196 -6 L-2 483 L110 483 L251 121 L392 483 L505 483 L272 -87 Q248 -146 207 -170.5 Q166 -195 106 -196 Q93 -196 75.5 -194 Q58 -192 47 -189 L63 -95 Z M192 -248 Q192 -224 209.5 -206.5 Q227 -189 251 -189 Q275 -189 292 -206.5 Q309 -224 309 -248 Q309 -273 292 -290 Q275 -307 251 -307 Q227 -307 209.5 -290 Q192 -273 192 -248 Z " />
<glyph glyph-name="uni1EF7" unicode="&#x1ef7;" horiz-adv-x="503" d="M63 -95 Q81 -103 103 -103 Q129 -103 145.5 -93.5 Q162 -84 172 -61 L196 -6 L-2 483 L110 483 L251 121 L392 483 L505 483 L272 -87 Q248 -146 207 -170.5 Q166 -195 106 -196 Q93 -196 75.5 -194 Q58 -192 47 -189 L63 -95 Z M144 644 Q155 678 181.5 697 Q208 716 244 716 Q286 716 314 693 Q342 670 342 624 Q342 605 336.5 590 Q331 575 320 557 L258 557 Q285 587 285 622 Q285 644 273.5 655.5 Q262 667 244 667 Q210 667 196 628 L144 644 Z " />
<glyph glyph-name="uni1EF9" unicode="&#x1ef9;" horiz-adv-x="503" d="M63 -95 Q81 -103 103 -103 Q129 -103 145.5 -93.5 Q162 -84 172 -61 L196 -6 L-2 483 L110 483 L251 121 L392 483 L505 483 L272 -87 Q248 -146 207 -170.5 Q166 -195 106 -196 Q93 -196 75.5 -194 Q58 -192 47 -189 L63 -95 Z M233 600 Q221 616 211.5 624 Q202 632 190 632 Q172 632 160 614 Q148 596 148 560 L91 560 Q91 622 117.5 658 Q144 694 194 694 Q220 694 236 682 Q252 670 269 648 Q283 631 292 623.5 Q301 616 313 616 Q331 616 342.5 634 Q354 652 354 688 L412 688 Q412 626 385.5 590 Q359 554 309 554 Q283 554 266.5 566 Q250 578 233 600 Z " />
<glyph glyph-name="zacute" unicode="&#x17a;" horiz-adv-x="476" d="M46 79 L285 391 L46 391 L46 483 L425 483 L425 406 L184 91 L429 91 L429 0 L46 0 L46 79 Z M197 556 L337 700 L437 700 L272 556 L197 556 Z " />
<glyph glyph-name="zcaron" unicode="&#x17e;" horiz-adv-x="476" d="M46 79 L285 391 L46 391 L46 483 L425 483 L425 406 L184 91 L429 91 L429 0 L46 0 L46 79 Z M94 700 L160 700 L238 603 L312 700 L379 700 L286 556 L190 556 L94 700 Z " />
<glyph glyph-name="zdotaccent" unicode="&#x17c;" horiz-adv-x="476" d="M46 79 L285 391 L46 391 L46 483 L425 483 L425 406 L184 91 L429 91 L429 0 L46 0 L46 79 Z M179 622 Q179 646 196.5 663.5 Q214 681 238 681 Q262 681 279 663.5 Q296 646 296 622 Q296 597 279 580 Q262 563 238 563 Q214 563 196.5 580 Q179 597 179 622 Z " />
<glyph glyph-name="eth" unicode="&#xf0;" horiz-adv-x="573" d="M358 590 Q535 436 535 250 Q535 174 505 114.5 Q475 55 418.5 21.5 Q362 -12 286 -12 Q213 -12 156.5 19 Q100 50 69 104.5 Q38 159 38 228 Q38 297 66 351.5 Q94 406 143.5 437 Q193 468 255 468 Q354 468 414 377 Q373 461 256 545 L111 481 L89 533 L201 582 Q174 600 134 624 L191 709 Q261 667 309 630 L414 676 L436 625 L358 590 Z M286 81 Q351 81 388.5 123.5 Q426 166 426 228 Q426 290 388.5 332.5 Q351 375 286 375 Q222 375 184.5 332.5 Q147 290 147 228 Q147 166 184.5 123.5 Q222 81 286 81 Z " />
<glyph glyph-name="thorn" unicode="&#xfe;" horiz-adv-x="580" d="M173 -184 L68 -184 L68 667 L173 667 L173 417 Q200 454 240.5 474.5 Q281 495 328 495 Q391 495 439.5 464.5 Q488 434 515 377 Q542 320 542 242 Q542 164 515 106.5 Q488 49 439.5 18.5 Q391 -12 328 -12 Q282 -12 242 8 Q202 28 173 67 L173 -184 Z M433 242 Q433 313 396 357.5 Q359 402 297 402 Q261 402 226 383 Q191 364 173 337 L173 146 Q191 119 226 100 Q261 81 297 81 Q359 81 396 126 Q433 171 433 242 Z " />
<glyph glyph-name="acute" unicode="&#xb4;" horiz-adv-x="240" d="M0 556 L140 700 L240 700 L75 556 L0 556 Z " />
<glyph glyph-name="dieresis" unicode="&#xa8;" horiz-adv-x="419" d="M105 564 Q80 564 63 581 Q46 598 46 623 Q46 647 63 664 Q80 681 105 681 Q129 681 146 664 Q163 647 163 623 Q163 598 146 581 Q129 564 105 564 Z M314 564 Q290 564 272.5 581 Q255 598 255 623 Q255 647 272.5 664 Q290 681 314 681 Q338 681 355.5 664 Q373 647 373 623 Q373 598 355.5 581 Q338 564 314 564 Z " />
<glyph glyph-name="grave" unicode="&#x60;" horiz-adv-x="240" d="M0 700 L100 700 L240 556 L165 556 L0 700 Z " />
<glyph glyph-name="uni02CB" unicode="&#x2cb;" horiz-adv-x="240" d="M0 700 L100 700 L240 556 L165 556 L0 700 Z " />
<glyph glyph-name="circumflex" unicode="&#x2c6;" horiz-adv-x="285" d="M141 652 L66 556 L0 556 L93 700 L189 700 L285 556 L218 556 L141 652 Z " />
<glyph glyph-name="tilde" unicode="&#x2dc;" horiz-adv-x="321" d="M142 600 Q130 616 120.5 624 Q111 632 99 632 Q81 632 69 614 Q57 596 57 560 L0 560 Q0 622 26.5 658 Q53 694 103 694 Q129 694 145 682 Q161 670 178 648 Q192 631 201 623.5 Q210 616 222 616 Q240 616 251.5 634 Q263 652 263 688 L321 688 Q321 626 294.5 590 Q268 554 218 554 Q192 554 175.5 566 Q159 578 142 600 Z " />
<glyph glyph-name="overscore" unicode="&#xaf;" horiz-adv-x="363" d="M20 628 L343 628 L343 566 L20 566 L20 628 Z " />
<glyph glyph-name="uni203E" unicode="&#x203e;" horiz-adv-x="363" d="M20 628 L343 628 L343 566 L20 566 L20 628 Z " />
<glyph glyph-name="breve" unicode="&#x2d8;" horiz-adv-x="351" d="M176 554 Q123 554 77 577.5 Q31 601 0 642 L48 682 Q70 651 103 633.5 Q136 616 176 616 Q215 616 248 633.5 Q281 651 303 682 L351 642 Q320 601 274.5 577.5 Q229 554 176 554 Z " />
<glyph glyph-name="dotaccent" unicode="&#x2d9;" horiz-adv-x="147" d="M15 622 Q15 646 32.5 663.5 Q50 681 74 681 Q98 681 115 663.5 Q132 646 132 622 Q132 597 115 580 Q98 563 74 563 Q50 563 32.5 580 Q15 597 15 622 Z " />
<glyph glyph-name="ring" unicode="&#x2da;" horiz-adv-x="243" d="M20 638 Q20 680 50 710.5 Q80 741 122 741 Q164 741 193.5 710.5 Q223 680 223 638 Q223 596 193.5 566 Q164 536 122 536 Q80 536 50 566 Q20 596 20 638 Z M173 638 Q173 660 158.5 675 Q144 690 122 690 Q101 690 85.5 675 Q70 660 70 638 Q70 617 85.5 601.5 Q101 586 122 586 Q143 586 158 601.5 Q173 617 173 638 Z " />
<glyph glyph-name="cedilla" unicode="&#xb8;" horiz-adv-x="214" d="M22 -117 Q58 -146 103 -146 Q127 -146 143 -136 Q159 -126 159 -108 Q159 -95 150.5 -87.5 Q142 -80 126 -80 Q105 -80 92 -95 L51 -72 L82 11 L137 11 L111 -53 Q127 -42 147 -42 Q176 -42 195 -61 Q214 -80 214 -109 Q214 -148 183 -171 Q152 -194 106 -194 Q73 -194 44.5 -185 Q16 -176 0 -163 L22 -117 Z " />
<glyph glyph-name="hungarumlaut" unicode="&#x2dd;" horiz-adv-x="324" d="M0 556 L90 700 L178 700 L63 556 L0 556 Z M146 556 L236 700 L324 700 L209 556 L146 556 Z " />
<glyph glyph-name="ogonek" unicode="&#x2db;" horiz-adv-x="206" d="M196 -169 Q168 -186 116 -186 Q72 -186 41 -166 Q10 -146 10 -109 Q10 -73 45 -43.5 Q80 -14 135 7 L196 0 Q107 -34 107 -84 Q107 -98 117.5 -106.5 Q128 -115 142 -115 Q158 -115 172 -108 L196 -169 Z " />
<glyph glyph-name="caron" unicode="&#x2c7;" horiz-adv-x="285" d="M0 700 L66 700 L144 603 L218 700 L285 700 L192 556 L96 556 L0 700 Z " />
<glyph glyph-name="uniF6C3" unicode="&#xf6c3;" d="M-177 -250 Q-156 -237 -138 -213 Q-120 -189 -116 -168 Q-120 -170 -130 -170 Q-150 -170 -164 -155.5 Q-178 -141 -178 -119 Q-178 -96 -162 -79.5 Q-146 -63 -123 -63 Q-97 -63 -78.5 -83 Q-60 -103 -60 -138 Q-60 -180 -81.5 -218 Q-103 -256 -138 -281 L-177 -250 Z " />
<glyph glyph-name="uni02C9" unicode="&#x2c9;" horiz-adv-x="363" d="M20 653 L343 653 L343 591 L20 591 L20 653 Z " />
<glyph glyph-name="uni0309" unicode="&#x309;" d="M-196 644 Q-185 678 -158.5 697 Q-132 716 -96 716 Q-54 716 -26 693 Q2 670 2 624 Q2 605 -3.5 590 Q-9 575 -20 557 L-82 557 Q-55 587 -55 622 Q-55 644 -66.5 655.5 Q-78 667 -96 667 Q-130 667 -144 628 L-196 644 Z " />
<glyph glyph-name="Alpha" unicode="&#x391;" horiz-adv-x="673" d="M494 128 L178 128 L129 0 L1 0 L263 667 L409 667 L671 0 L543 0 L494 128 Z M211 231 L461 231 L336 568 L211 231 Z " />
<glyph glyph-name="Beta" unicode="&#x392;" horiz-adv-x="648" d="M71 667 L399 667 Q458 667 501 644.5 Q544 622 566.5 583.5 Q589 545 589 497 Q589 437 555.5 395.5 Q522 354 473 344 Q508 339 537.5 315.5 Q567 292 584.5 256 Q602 220 602 180 Q602 100 550.5 50 Q499 0 408 0 L71 0 L71 667 Z M375 391 Q419 391 444 415 Q469 439 469 477 Q469 516 444 540 Q419 564 375 564 L188 564 L188 391 L375 391 Z M380 103 Q428 103 455 127.5 Q482 152 482 196 Q482 235 455 261.5 Q428 288 380 288 L188 288 L188 103 L380 103 Z " />
<glyph glyph-name="Gamma" unicode="&#x393;" horiz-adv-x="562" d="M71 667 L528 667 L528 564 L188 564 L188 0 L71 0 L71 667 Z " />
<glyph glyph-name="uni0394" unicode="&#x394;" horiz-adv-x="673" d="M263 667 L409 667 L671 0 L1 0 L263 667 Z M167 103 L506 103 L336 549 L167 103 Z " />
<glyph glyph-name="uni2206" unicode="&#x2206;" horiz-adv-x="673" d="M263 667 L409 667 L671 0 L1 0 L263 667 Z M167 103 L506 103 L336 549 L167 103 Z " />
<glyph glyph-name="Epsilon" unicode="&#x395;" horiz-adv-x="577" d="M71 667 L528 667 L528 564 L188 564 L188 391 L521 391 L521 288 L188 288 L188 103 L528 103 L528 0 L71 0 L71 667 Z " />
<glyph glyph-name="Zeta" unicode="&#x396;" horiz-adv-x="589" d="M44 95 L385 564 L44 564 L44 667 L537 667 L537 572 L196 103 L544 103 L544 0 L44 0 L44 95 Z " />
<glyph glyph-name="Eta" unicode="&#x397;" horiz-adv-x="723" d="M535 291 L188 291 L188 0 L71 0 L71 667 L188 667 L188 394 L535 394 L535 667 L652 667 L652 0 L535 0 L535 291 Z " />
<glyph glyph-name="Theta" unicode="&#x398;" horiz-adv-x="765" d="M41 333 Q41 431 84.5 510 Q128 589 205.5 633.5 Q283 678 382 678 Q481 678 558.5 633.5 Q636 589 679.5 510 Q723 431 723 333 Q723 235 679.5 156 Q636 77 558.5 32.5 Q481 -12 382 -12 Q283 -12 205.5 32.5 Q128 77 84.5 156 Q41 235 41 333 Z M603 333 Q603 402 575.5 457 Q548 512 498 543 Q448 574 382 574 Q316 574 266 543 Q216 512 188.5 457 Q161 402 161 333 Q161 265 188.5 210 Q216 155 266 123.5 Q316 92 382 92 Q448 92 498 123.5 Q548 155 575.5 210 Q603 265 603 333 Z M215 391 L550 391 L550 288 L215 288 L215 391 Z " />
<glyph glyph-name="Iota" unicode="&#x399;" horiz-adv-x="259" d="M71 667 L188 667 L188 0 L71 0 L71 667 Z " />
<glyph glyph-name="Kappa" unicode="&#x39a;" horiz-adv-x="621" d="M246 281 L188 213 L188 0 L71 0 L71 667 L188 667 L188 349 L449 667 L594 667 L323 352 L614 0 L470 0 L246 281 Z " />
<glyph glyph-name="Lambda" unicode="&#x39b;" horiz-adv-x="673" d="M336 549 L134 0 L1 0 L263 667 L409 667 L671 0 L538 0 L336 549 Z " />
<glyph glyph-name="Mu" unicode="&#x39c;" horiz-adv-x="835" d="M647 505 L442 0 L392 0 L188 505 L188 0 L71 0 L71 667 L236 667 L417 218 L599 667 L764 667 L764 0 L647 0 L647 505 Z " />
<glyph glyph-name="Nu" unicode="&#x39d;" horiz-adv-x="720" d="M188 486 L188 0 L71 0 L71 667 L191 667 L532 194 L532 667 L649 667 L649 0 L536 0 L188 486 Z " />
<glyph glyph-name="Xi" unicode="&#x39e;" horiz-adv-x="620" d="M49 667 L570 667 L570 564 L49 564 L49 667 Z M56 391 L564 391 L564 288 L56 288 L56 391 Z M49 103 L570 103 L570 0 L49 0 L49 103 Z " />
<glyph glyph-name="Omicron" unicode="&#x39f;" horiz-adv-x="765" d="M41 333 Q41 431 84.5 510 Q128 589 205.5 633.5 Q283 678 382 678 Q481 678 558.5 633.5 Q636 589 679.5 510 Q723 431 723 333 Q723 235 679.5 156 Q636 77 558.5 32.5 Q481 -12 382 -12 Q283 -12 205.5 32.5 Q128 77 84.5 156 Q41 235 41 333 Z M603 333 Q603 402 575.5 457 Q548 512 498 543 Q448 574 382 574 Q316 574 266 543 Q216 512 188.5 457 Q161 402 161 333 Q161 265 188.5 210 Q216 155 266 123.5 Q316 92 382 92 Q448 92 498 123.5 Q548 155 575.5 210 Q603 265 603 333 Z " />
<glyph glyph-name="Pi" unicode="&#x3a0;" horiz-adv-x="723" d="M535 564 L188 564 L188 0 L71 0 L71 667 L652 667 L652 0 L535 0 L535 564 Z " />
<glyph glyph-name="Rho" unicode="&#x3a1;" horiz-adv-x="608" d="M71 667 L364 667 Q432 667 481 639 Q530 611 556 563 Q582 515 582 458 Q582 401 556 353 Q530 305 480.5 277 Q431 249 364 249 L188 249 L188 0 L71 0 L71 667 Z M462 458 Q462 506 430 535 Q398 564 348 564 L188 564 L188 352 L348 352 Q398 352 430 381 Q462 410 462 458 Z " />
<glyph glyph-name="Sigma" unicode="&#x3a3;" horiz-adv-x="581" d="M532 103 L532 0 L49 0 L49 103 L264 341 L50 564 L50 667 L532 667 L532 564 L195 564 L407 342 L190 103 L532 103 Z " />
<glyph glyph-name="Tau" unicode="&#x3a4;" horiz-adv-x="577" d="M230 564 L28 564 L28 667 L549 667 L549 564 L347 564 L347 0 L230 0 L230 564 Z " />
<glyph glyph-name="Upsilon" unicode="&#x3a5;" horiz-adv-x="637" d="M260 277 L1 667 L135 667 L319 381 L501 667 L635 667 L377 277 L377 0 L260 0 L260 277 Z " />
<glyph glyph-name="Phi" unicode="&#x3a6;" horiz-adv-x="834" d="M792 333 Q792 219 708 148.5 Q624 78 475 66 L475 0 L358 0 L358 66 Q209 78 125 148.5 Q41 219 41 333 Q41 446 125 517 Q209 588 358 600 L358 667 L475 667 L475 600 Q624 588 708 517.5 Q792 447 792 333 Z M161 333 Q161 267 212 224 Q263 181 358 171 L358 495 Q263 485 212 442 Q161 399 161 333 Z M475 171 Q570 181 621 224 Q672 267 672 333 Q672 399 621 442 Q570 485 475 495 L475 171 Z " />
<glyph glyph-name="Chi" unicode="&#x3a7;" horiz-adv-x="661" d="M330 261 L143 0 L3 0 L253 342 L18 667 L158 667 L330 422 L501 667 L642 667 L408 343 L657 0 L517 0 L330 261 Z " />
<glyph glyph-name="Psi" unicode="&#x3a8;" horiz-adv-x="836" d="M765 667 L765 400 Q765 284 692 211.5 Q619 139 477 127 L477 0 L360 0 L360 126 Q218 139 144.5 211.5 Q71 284 71 399 L71 667 L189 667 L189 403 Q189 331 232.5 287 Q276 243 360 232 L360 667 L477 667 L477 232 Q560 243 603 287 Q646 331 646 403 L646 667 L765 667 Z " />
<glyph glyph-name="uni03A9" unicode="&#x3a9;" horiz-adv-x="765" d="M185 103 Q121 144 81 208.5 Q41 273 41 358 Q41 452 84.5 525 Q128 598 205.5 638 Q283 678 382 678 Q481 678 558.5 638 Q636 598 679.5 525 Q723 452 723 358 Q723 273 684 208.5 Q645 144 581 103 L706 103 L706 0 L449 0 L449 103 Q515 121 559 183.5 Q603 246 603 334 Q603 398 578 452.5 Q553 507 503 540 Q453 573 382 573 Q311 573 261 540 Q211 507 186 452.5 Q161 398 161 334 Q161 246 205 183.5 Q249 121 316 103 L316 0 L59 0 L59 103 L185 103 Z " />
<glyph glyph-name="uni2126" unicode="&#x2126;" horiz-adv-x="765" d="M185 103 Q121 144 81 208.5 Q41 273 41 358 Q41 452 84.5 525 Q128 598 205.5 638 Q283 678 382 678 Q481 678 558.5 638 Q636 598 679.5 525 Q723 452 723 358 Q723 273 684 208.5 Q645 144 581 103 L706 103 L706 0 L449 0 L449 103 Q515 121 559 183.5 Q603 246 603 334 Q603 398 578 452.5 Q553 507 503 540 Q453 573 382 573 Q311 573 261 540 Q211 507 186 452.5 Q161 398 161 334 Q161 246 205 183.5 Q249 121 316 103 L316 0 L59 0 L59 103 L185 103 Z " />
<glyph glyph-name="alpha" unicode="&#x3b1;" horiz-adv-x="595" d="M582 -6 Q563 -12 532 -12 Q483 -12 453 10.5 Q423 33 414 75 Q389 36 346 12 Q303 -12 253 -12 Q191 -12 142 18.5 Q93 49 65.5 106 Q38 163 38 241 Q38 318 65.5 375.5 Q93 433 142 464 Q191 495 253 495 Q298 495 338.5 474.5 Q379 454 407 416 L407 483 L513 483 L513 131 Q513 108 524.5 94.5 Q536 81 556 81 Q565 81 575 83 L582 -6 Z M408 336 Q390 364 355 382.5 Q320 401 283 401 Q221 401 184 356.5 Q147 312 147 241 Q147 170 184 125.5 Q221 81 283 81 Q320 81 355 99 Q390 117 408 145 L408 336 Z " />
<glyph glyph-name="beta" unicode="&#x3b2;" horiz-adv-x="581" d="M68 -184 L68 451 Q68 527 102.5 578 Q137 629 191.5 653 Q246 677 307 677 Q408 677 467.5 629 Q527 581 527 497 Q527 435 485.5 394.5 Q444 354 388 344 Q423 341 458.5 320.5 Q494 300 518 262 Q542 224 542 171 Q542 119 515 77 Q488 35 441.5 11.5 Q395 -12 339 -12 Q233 -12 173 66 L173 -184 L68 -184 Z M173 145 Q193 117 228.5 99 Q264 81 305 81 Q366 81 400 110 Q434 139 434 189 Q434 239 397 266 Q360 293 301 293 L263 293 L263 386 L298 386 Q352 386 385 411.5 Q418 437 418 484 Q418 529 386.5 556 Q355 583 307 583 Q248 583 210.5 548 Q173 513 173 451 L173 145 Z " />
<glyph glyph-name="gamma" unicode="&#x3b3;" horiz-adv-x="503" d="M199 -65 Q199 90 139.5 238 Q80 386 -12 483 L108 483 Q166 420 212 315.5 Q258 211 268 124 Q313 190 344 291 Q375 392 375 483 L480 483 Q480 366 431 235 Q382 104 304 5 L304 -184 L199 -184 L199 -65 Z " />
<glyph glyph-name="delta" unicode="&#x3b4;" horiz-adv-x="573" d="M298 474 Q368 453 416 429.5 Q464 406 499.5 356 Q535 306 535 224 Q535 162 505.5 108 Q476 54 421 21 Q366 -12 292 -12 Q215 -12 157.5 21.5 Q100 55 69 110 Q38 165 38 228 Q38 297 72.5 348.5 Q107 400 163 427 Q131 445 113.5 470 Q96 495 96 532 Q96 572 118.5 605.5 Q141 639 184 659 Q227 679 286 679 Q398 679 473 611 L429 537 Q406 563 368 579 Q330 595 286 595 Q245 595 221 578.5 Q197 562 197 536 Q197 514 220.5 502 Q244 490 298 474 Z M289 81 Q333 81 365.5 102 Q398 123 415.5 156 Q433 189 433 224 Q433 273 410.5 304 Q388 335 354.5 352.5 Q321 370 268 387 Q209 366 178 324 Q147 282 147 228 Q147 191 164 157 Q181 123 213.5 102 Q246 81 289 81 Z " />
<glyph glyph-name="epsilon" unicode="&#x3b5;" horiz-adv-x="484" d="M253 -12 Q152 -12 94.5 27.5 Q37 67 37 131 Q37 166 58 191.5 Q79 217 110 231 Q141 245 171 247 Q123 255 85 286 Q47 317 47 363 Q47 424 103.5 459 Q160 494 261 494 Q322 494 371.5 473 Q421 452 456 415 L404 351 Q349 409 260 409 Q214 409 185 392 Q156 375 156 349 Q156 318 183.5 302 Q211 286 262 286 L344 286 L344 202 L262 202 Q206 202 176.5 187 Q147 172 147 139 Q147 109 174.5 91 Q202 73 253 73 Q337 73 407 138 L464 66 Q428 30 374 9 Q320 -12 253 -12 Z " />
<glyph glyph-name="zeta" unicode="&#x3b6;" horiz-adv-x="487" d="M302 0 Q180 0 109 54.5 Q38 109 38 211 Q38 320 110 413 Q182 506 310 575 L54 575 L54 667 L446 667 L446 590 Q310 514 228.5 418.5 Q147 323 147 219 Q147 93 315 93 Q454 93 454 -17 Q454 -70 405 -157 L293 -157 Q313 -128 329 -94.5 Q345 -61 345 -40 Q345 -23 334 -11.5 Q323 0 302 0 Z " />
<glyph glyph-name="eta" unicode="&#x3b7;" horiz-adv-x="567" d="M394 302 Q394 356 369 379 Q344 402 297 402 Q259 402 226 383 Q193 364 173 337 L173 0 L68 0 L68 483 L173 483 L173 417 Q200 449 245 472 Q290 495 343 495 Q420 495 459.5 455 Q499 415 499 340 L499 -184 L394 -184 L394 302 Z " />
<glyph glyph-name="theta" unicode="&#x3b8;" horiz-adv-x="573" d="M286 679 Q366 679 422 633 Q478 587 506.5 509 Q535 431 535 334 Q535 237 506.5 158.5 Q478 80 422 34 Q366 -12 286 -12 Q207 -12 151 34 Q95 80 66.5 159 Q38 238 38 334 Q38 430 66.5 508.5 Q95 587 151 633 Q207 679 286 679 Z M286 586 Q222 586 188 532 Q154 478 148 381 L425 381 Q412 586 286 586 Z M286 81 Q413 81 425 289 L148 289 Q161 81 286 81 Z " />
<glyph glyph-name="iota" unicode="&#x3b9;" horiz-adv-x="255" d="M68 483 L173 483 L173 131 Q173 108 184.5 94.5 Q196 81 216 81 Q225 81 235 83 L242 -6 Q223 -12 192 -12 Q131 -12 99.5 20 Q68 52 68 112 L68 483 Z " />
<glyph glyph-name="kappa" unicode="&#x3ba;" horiz-adv-x="526" d="M240 199 L173 130 L173 0 L68 0 L68 483 L173 483 L173 250 L386 483 L516 483 L315 264 L520 0 L388 0 L240 199 Z " />
<glyph glyph-name="lambda" unicode="&#x3bb;" horiz-adv-x="503" d="M106 679 Q166 677 207.5 652.5 Q249 628 272 570 L505 0 L392 0 L251 362 L110 0 L-2 0 L196 488 L172 543 Q162 567 145.5 576.5 Q129 586 103 586 Q80 586 63 577 L47 671 Q57 675 75 677 Q93 679 106 679 Z " />
<glyph glyph-name="uni03BC" unicode="&#x3bc;" horiz-adv-x="581" d="M68 -184 L68 483 L173 483 L173 179 Q173 80 271 80 Q308 80 341 98.5 Q374 117 394 144 L394 483 L499 483 L499 131 Q499 108 510.5 94.5 Q522 81 542 81 Q551 81 561 83 L568 -6 Q549 -12 518 -12 Q421 -12 399 74 Q374 36 336.5 12 Q299 -12 256 -12 Q224 -12 203.5 -2 Q183 8 173 24 L173 -184 L68 -184 Z " />
<glyph glyph-name="uni00B5" unicode="&#xb5;" horiz-adv-x="581" d="M68 -184 L68 483 L173 483 L173 179 Q173 80 271 80 Q308 80 341 98.5 Q374 117 394 144 L394 483 L499 483 L499 131 Q499 108 510.5 94.5 Q522 81 542 81 Q551 81 561 83 L568 -6 Q549 -12 518 -12 Q421 -12 399 74 Q374 36 336.5 12 Q299 -12 256 -12 Q224 -12 203.5 -2 Q183 8 173 24 L173 -184 L68 -184 Z " />
<glyph glyph-name="nu" unicode="&#x3bd;" horiz-adv-x="503" d="M-2 483 L110 483 L256 105 Q311 185 343 287 Q375 389 375 483 L480 483 Q480 365 429.5 232 Q379 99 300 0 L195 0 L-2 483 Z " />
<glyph glyph-name="xi" unicode="&#x3be;" horiz-adv-x="487" d="M38 169 Q38 233 76.5 272.5 Q115 312 166 324 Q120 332 84.5 363 Q49 394 49 445 Q49 487 77.5 523 Q106 559 150 575 L58 575 L58 667 L440 667 L440 575 L251 575 Q211 565 184.5 537 Q158 509 158 475 Q158 432 195 408.5 Q232 385 290 385 L435 385 L435 295 L290 295 Q224 295 185.5 270 Q147 245 147 192 Q147 93 315 93 Q454 93 454 -17 Q454 -70 405 -157 L293 -157 Q311 -131 328 -90.5 Q345 -50 345 -28 Q345 -13 335 -6.5 Q325 0 302 0 Q173 0 105.5 43 Q38 86 38 169 Z " />
<glyph glyph-name="omicron" unicode="&#x3bf;" horiz-adv-x="573" d="M286 -12 Q212 -12 155.5 22 Q99 56 68.5 114 Q38 172 38 242 Q38 311 68.5 369 Q99 427 155.5 461 Q212 495 286 495 Q361 495 417.5 461 Q474 427 504.5 369.5 Q535 312 535 242 Q535 172 504.5 114 Q474 56 417.5 22 Q361 -12 286 -12 Z M286 81 Q351 81 388.5 127.5 Q426 174 426 242 Q426 309 388.5 355.5 Q351 402 286 402 Q222 402 184.5 355.5 Q147 309 147 242 Q147 174 184.5 127.5 Q222 81 286 81 Z " />
<glyph glyph-name="pi" unicode="&#x3c0;" horiz-adv-x="610" d="M416 391 L194 391 L194 0 L89 0 L89 391 L9 391 L9 483 L601 483 L601 391 L521 391 L521 0 L416 0 L416 391 Z " />
<glyph glyph-name="rho" unicode="&#x3c1;" horiz-adv-x="578" d="M173 -184 L68 -184 L68 242 Q68 312 96.5 369.5 Q125 427 179 461 Q233 495 304 495 Q376 495 430 461 Q484 427 513 369.5 Q542 312 542 242 Q542 164 515 106.5 Q488 49 439.5 18.5 Q391 -12 328 -12 Q282 -12 242 8 Q202 28 173 67 L173 -184 Z M433 242 Q433 309 398 355.5 Q363 402 303 402 Q243 402 208 355.5 Q173 309 173 242 L173 146 Q191 119 226 100 Q261 81 297 81 Q359 81 396 126 Q433 171 433 242 Z " />
<glyph glyph-name="uni03C2" unicode="&#x3c2;" horiz-adv-x="488" d="M38 242 Q38 314 70 372 Q102 430 159 462.5 Q216 495 288 495 Q409 495 473 409 L404 345 Q364 402 293 402 Q227 402 187 357.5 Q147 313 147 242 Q147 165 191.5 129 Q236 93 313 93 Q387 93 422.5 69 Q458 45 458 -5 Q458 -35 445 -75.5 Q432 -116 409 -157 L300 -157 Q318 -130 335 -90 Q352 -50 352 -28 Q352 -13 341 -6.5 Q330 0 308 0 Q185 0 111.5 63.5 Q38 127 38 242 Z " />
<glyph glyph-name="sigma" unicode="&#x3c3;" horiz-adv-x="573" d="M286 -12 Q212 -12 155.5 22 Q99 56 68.5 114 Q38 172 38 242 Q38 309 69 364 Q100 419 158.5 451 Q217 483 296 483 L551 483 L551 390 L450 390 Q488 359 507.5 317.5 Q527 276 527 219 Q527 155 498.5 102.5 Q470 50 415.5 19 Q361 -12 286 -12 Z M296 390 Q249 390 215 369 Q181 348 164 314.5 Q147 281 147 242 Q147 174 184.5 127.5 Q222 81 286 81 Q351 81 388.5 127 Q426 173 426 238 Q426 289 403.5 328.5 Q381 368 343 390 L296 390 Z " />
<glyph glyph-name="tau" unicode="&#x3c4;" horiz-adv-x="466" d="M175 391 L23 391 L23 483 L443 483 L443 391 L280 391 L280 138 Q280 112 292 96.5 Q304 81 326 81 Q340 81 353.5 86 Q367 91 373 98 L398 19 Q365 -12 299 -12 Q238 -12 206.5 20 Q175 52 175 112 L175 391 Z " />
</font>
</svg>
